<mxfile host="app.diagrams.net" agent="Mozilla/5.0 (Windows NT 10.0; Win64; x64) AppleWebKit/537.36 (KHTML, like Gecko) Chrome/126.0.0.0 Safari/537.36 OPR/112.0.0.0" version="24.7.16">
  <diagram id="a45cf8ec-cd66-6f27-3ac3-be6e809c9e4a" name="Page-1">
    <mxGraphModel dx="4036" dy="2476" grid="1" gridSize="10" guides="1" tooltips="1" connect="1" arrows="1" fold="1" page="1" pageScale="1" pageWidth="827" pageHeight="1169" background="none" math="0" shadow="0">
      <root>
        <mxCell id="0" />
        <mxCell id="1" parent="0" />
        <mxCell id="nLhs3VdEfNRNzpU9Hnr--12" value="" style="whiteSpace=wrap;html=1;aspect=fixed;fillColor=#333333;gradientColor=#333333;strokeColor=#666666;gradientDirection=radial;" parent="1" vertex="1">
          <mxGeometry x="610" y="1810" width="260" height="260" as="geometry" />
        </mxCell>
        <mxCell id="nLhs3VdEfNRNzpU9Hnr--5" value="" style="rounded=1;whiteSpace=wrap;html=1;fillColor=#333333;strokeColor=#666666;gradientColor=#333333;gradientDirection=radial;" parent="1" vertex="1">
          <mxGeometry x="60" y="70" width="470" height="410" as="geometry" />
        </mxCell>
        <mxCell id="yCNXlP83xQap65_kqkha-175" value="" style="verticalLabelPosition=bottom;sketch=0;aspect=fixed;html=1;verticalAlign=top;strokeColor=none;align=center;outlineConnect=0;shape=mxgraph.citrix.chassis;flipV=0;flipH=1;" parent="1" vertex="1">
          <mxGeometry x="240" y="410" width="40.71" height="52.55" as="geometry" />
        </mxCell>
        <mxCell id="yCNXlP83xQap65_kqkha-177" value="" style="endArrow=none;html=1;rounded=0;fillColor=#e51400;strokeColor=#B20000;" parent="1" edge="1">
          <mxGeometry width="50" height="50" relative="1" as="geometry">
            <mxPoint x="290" y="400" as="sourcePoint" />
            <mxPoint x="290" y="440" as="targetPoint" />
          </mxGeometry>
        </mxCell>
        <mxCell id="yCNXlP83xQap65_kqkha-183" style="rounded=0;orthogonalLoop=1;jettySize=auto;html=1;shape=link;width=-1.71875;fillColor=#e51400;strokeColor=#B20000;" parent="1" source="yCNXlP83xQap65_kqkha-178" edge="1">
          <mxGeometry relative="1" as="geometry">
            <mxPoint x="280.00000000000006" y="436.015" as="targetPoint" />
            <mxPoint x="290.00000000000006" y="436.036875" as="sourcePoint" />
          </mxGeometry>
        </mxCell>
        <mxCell id="yCNXlP83xQap65_kqkha-178" value="" style="verticalLabelPosition=bottom;sketch=0;aspect=fixed;html=1;verticalAlign=top;strokeColor=none;align=center;outlineConnect=0;shape=mxgraph.citrix.chassis;flipV=0;flipH=0;" parent="1" vertex="1">
          <mxGeometry x="300" y="410" width="40.71" height="52.55" as="geometry" />
        </mxCell>
        <mxCell id="yCNXlP83xQap65_kqkha-184" value="" style="verticalLabelPosition=bottom;sketch=0;aspect=fixed;html=1;verticalAlign=top;strokeColor=none;align=center;outlineConnect=0;shape=mxgraph.citrix.chassis;flipV=0;flipH=1;" parent="1" vertex="1">
          <mxGeometry x="240" y="350" width="40.71" height="52.55" as="geometry" />
        </mxCell>
        <mxCell id="yCNXlP83xQap65_kqkha-185" value="" style="endArrow=none;html=1;rounded=0;fillColor=#e51400;strokeColor=#B20000;" parent="1" edge="1">
          <mxGeometry width="50" height="50" relative="1" as="geometry">
            <mxPoint x="290" y="340" as="sourcePoint" />
            <mxPoint x="290" y="400" as="targetPoint" />
          </mxGeometry>
        </mxCell>
        <mxCell id="yCNXlP83xQap65_kqkha-186" style="rounded=0;orthogonalLoop=1;jettySize=auto;html=1;shape=link;width=-1.71875;fillColor=#e51400;strokeColor=#B20000;" parent="1" source="yCNXlP83xQap65_kqkha-187" edge="1">
          <mxGeometry relative="1" as="geometry">
            <mxPoint x="280.00000000000006" y="376.015" as="targetPoint" />
            <mxPoint x="290.00000000000006" y="376.036875" as="sourcePoint" />
          </mxGeometry>
        </mxCell>
        <mxCell id="yCNXlP83xQap65_kqkha-187" value="" style="verticalLabelPosition=bottom;sketch=0;aspect=fixed;html=1;verticalAlign=top;strokeColor=none;align=center;outlineConnect=0;shape=mxgraph.citrix.chassis;flipV=0;flipH=0;" parent="1" vertex="1">
          <mxGeometry x="300" y="350" width="40.71" height="52.55" as="geometry" />
        </mxCell>
        <mxCell id="yCNXlP83xQap65_kqkha-188" value="" style="verticalLabelPosition=bottom;sketch=0;aspect=fixed;html=1;verticalAlign=top;strokeColor=none;align=center;outlineConnect=0;shape=mxgraph.citrix.chassis;flipV=0;flipH=1;" parent="1" vertex="1">
          <mxGeometry x="240" y="290" width="40.71" height="52.55" as="geometry" />
        </mxCell>
        <mxCell id="yCNXlP83xQap65_kqkha-189" value="" style="endArrow=none;html=1;rounded=0;fillColor=#e51400;strokeColor=#B20000;" parent="1" edge="1">
          <mxGeometry width="50" height="50" relative="1" as="geometry">
            <mxPoint x="290" y="280" as="sourcePoint" />
            <mxPoint x="290" y="340" as="targetPoint" />
          </mxGeometry>
        </mxCell>
        <mxCell id="yCNXlP83xQap65_kqkha-190" style="rounded=0;orthogonalLoop=1;jettySize=auto;html=1;shape=link;width=-1.71875;fillColor=#e51400;strokeColor=#B20000;" parent="1" source="yCNXlP83xQap65_kqkha-191" edge="1">
          <mxGeometry relative="1" as="geometry">
            <mxPoint x="280.00000000000006" y="316.015" as="targetPoint" />
            <mxPoint x="290.00000000000006" y="316.036875" as="sourcePoint" />
          </mxGeometry>
        </mxCell>
        <mxCell id="yCNXlP83xQap65_kqkha-191" value="" style="verticalLabelPosition=bottom;sketch=0;aspect=fixed;html=1;verticalAlign=top;strokeColor=none;align=center;outlineConnect=0;shape=mxgraph.citrix.chassis;flipV=0;flipH=0;" parent="1" vertex="1">
          <mxGeometry x="300" y="290" width="40.71" height="52.55" as="geometry" />
        </mxCell>
        <mxCell id="yCNXlP83xQap65_kqkha-192" value="" style="verticalLabelPosition=bottom;sketch=0;aspect=fixed;html=1;verticalAlign=top;strokeColor=none;align=center;outlineConnect=0;shape=mxgraph.citrix.chassis;flipV=0;flipH=1;" parent="1" vertex="1">
          <mxGeometry x="240" y="230" width="40.71" height="52.55" as="geometry" />
        </mxCell>
        <mxCell id="yCNXlP83xQap65_kqkha-193" value="" style="endArrow=none;html=1;rounded=0;fillColor=#e51400;strokeColor=#B20000;exitX=0;exitY=0.5;exitDx=0;exitDy=0;exitPerimeter=0;" parent="1" source="nLhs3VdEfNRNzpU9Hnr--21" edge="1">
          <mxGeometry width="50" height="50" relative="1" as="geometry">
            <mxPoint x="290" y="250" as="sourcePoint" />
            <mxPoint x="290" y="280" as="targetPoint" />
          </mxGeometry>
        </mxCell>
        <mxCell id="yCNXlP83xQap65_kqkha-194" style="rounded=0;orthogonalLoop=1;jettySize=auto;html=1;shape=link;width=-1.71875;fillColor=#e51400;strokeColor=#B20000;" parent="1" source="yCNXlP83xQap65_kqkha-195" edge="1">
          <mxGeometry relative="1" as="geometry">
            <mxPoint x="280.00000000000006" y="256.015" as="targetPoint" />
            <mxPoint x="290.00000000000006" y="256.036875" as="sourcePoint" />
          </mxGeometry>
        </mxCell>
        <mxCell id="yCNXlP83xQap65_kqkha-195" value="" style="verticalLabelPosition=bottom;sketch=0;aspect=fixed;html=1;verticalAlign=top;strokeColor=none;align=center;outlineConnect=0;shape=mxgraph.citrix.chassis;flipV=0;flipH=0;" parent="1" vertex="1">
          <mxGeometry x="300" y="230" width="40.71" height="52.55" as="geometry" />
        </mxCell>
        <mxCell id="yCNXlP83xQap65_kqkha-205" value="" style="endArrow=none;html=1;rounded=0;fillColor=#b1ddf0;strokeColor=#10739e;" parent="1" edge="1">
          <mxGeometry width="50" height="50" relative="1" as="geometry">
            <mxPoint x="350" y="440" as="sourcePoint" />
            <mxPoint x="350" y="250" as="targetPoint" />
          </mxGeometry>
        </mxCell>
        <mxCell id="yCNXlP83xQap65_kqkha-207" value="" style="endArrow=none;html=1;rounded=0;fillColor=#b1ddf0;strokeColor=#10739e;shape=link;width=-1.7741935483870979;" parent="1" source="yCNXlP83xQap65_kqkha-191" edge="1">
          <mxGeometry width="50" height="50" relative="1" as="geometry">
            <mxPoint x="360" y="320" as="sourcePoint" />
            <mxPoint x="350" y="316" as="targetPoint" />
          </mxGeometry>
        </mxCell>
        <mxCell id="yCNXlP83xQap65_kqkha-209" value="" style="endArrow=none;html=1;rounded=0;fillColor=#b1ddf0;strokeColor=#10739e;shape=link;width=-1.7741935483870979;" parent="1" edge="1">
          <mxGeometry width="50" height="50" relative="1" as="geometry">
            <mxPoint x="340.71" y="376.19" as="sourcePoint" />
            <mxPoint x="349.71" y="376.19" as="targetPoint" />
          </mxGeometry>
        </mxCell>
        <mxCell id="yCNXlP83xQap65_kqkha-210" value="" style="endArrow=none;html=1;rounded=0;fillColor=#b1ddf0;strokeColor=#10739e;shape=link;width=-1.7741935483870979;" parent="1" edge="1">
          <mxGeometry width="50" height="50" relative="1" as="geometry">
            <mxPoint x="340.71" y="256.19" as="sourcePoint" />
            <mxPoint x="349.71" y="256.19" as="targetPoint" />
          </mxGeometry>
        </mxCell>
        <mxCell id="yCNXlP83xQap65_kqkha-211" value="" style="endArrow=none;html=1;rounded=0;fillColor=#b1ddf0;strokeColor=#10739e;shape=link;width=-1.7741935483870979;" parent="1" edge="1">
          <mxGeometry width="50" height="50" relative="1" as="geometry">
            <mxPoint x="340.71" y="436.04" as="sourcePoint" />
            <mxPoint x="349.71" y="436.04" as="targetPoint" />
          </mxGeometry>
        </mxCell>
        <mxCell id="yCNXlP83xQap65_kqkha-212" value="" style="endArrow=none;html=1;rounded=0;fillColor=#b1ddf0;strokeColor=#10739e;shape=link;width=-1.7741935483870979;" parent="1" edge="1">
          <mxGeometry width="50" height="50" relative="1" as="geometry">
            <mxPoint x="230" y="436" as="sourcePoint" />
            <mxPoint x="240" y="436.22" as="targetPoint" />
          </mxGeometry>
        </mxCell>
        <mxCell id="yCNXlP83xQap65_kqkha-213" value="" style="endArrow=none;html=1;rounded=0;fillColor=#b1ddf0;strokeColor=#10739e;shape=link;width=-1.7741935483870979;" parent="1" edge="1">
          <mxGeometry width="50" height="50" relative="1" as="geometry">
            <mxPoint x="230" y="376" as="sourcePoint" />
            <mxPoint x="240" y="376.04" as="targetPoint" />
          </mxGeometry>
        </mxCell>
        <mxCell id="yCNXlP83xQap65_kqkha-214" value="" style="endArrow=none;html=1;rounded=0;fillColor=#b1ddf0;strokeColor=#10739e;shape=link;width=-1.7741935483870979;" parent="1" edge="1">
          <mxGeometry width="50" height="50" relative="1" as="geometry">
            <mxPoint x="230" y="316" as="sourcePoint" />
            <mxPoint x="240" y="316.04" as="targetPoint" />
          </mxGeometry>
        </mxCell>
        <mxCell id="yCNXlP83xQap65_kqkha-215" value="" style="endArrow=none;html=1;rounded=0;fillColor=#b1ddf0;strokeColor=#10739e;shape=link;width=-1.7741935483870979;" parent="1" edge="1">
          <mxGeometry width="50" height="50" relative="1" as="geometry">
            <mxPoint x="230" y="256" as="sourcePoint" />
            <mxPoint x="240" y="256.03999999999996" as="targetPoint" />
          </mxGeometry>
        </mxCell>
        <mxCell id="yCNXlP83xQap65_kqkha-216" value="" style="endArrow=none;html=1;rounded=0;fillColor=#b1ddf0;strokeColor=#10739e;" parent="1" edge="1">
          <mxGeometry width="50" height="50" relative="1" as="geometry">
            <mxPoint x="230" y="440" as="sourcePoint" />
            <mxPoint x="230" y="250" as="targetPoint" />
          </mxGeometry>
        </mxCell>
        <mxCell id="yCNXlP83xQap65_kqkha-217" value="" style="verticalLabelPosition=bottom;sketch=0;aspect=fixed;html=1;verticalAlign=top;strokeColor=none;align=center;outlineConnect=0;shape=mxgraph.citrix.chassis;flipV=0;flipH=1;" parent="1" vertex="1">
          <mxGeometry x="393" y="410" width="40.71" height="52.55" as="geometry" />
        </mxCell>
        <mxCell id="yCNXlP83xQap65_kqkha-218" value="" style="endArrow=none;html=1;rounded=0;fillColor=#e51400;strokeColor=#B20000;" parent="1" edge="1">
          <mxGeometry width="50" height="50" relative="1" as="geometry">
            <mxPoint x="443" y="400" as="sourcePoint" />
            <mxPoint x="444" y="440" as="targetPoint" />
          </mxGeometry>
        </mxCell>
        <mxCell id="yCNXlP83xQap65_kqkha-219" style="rounded=0;orthogonalLoop=1;jettySize=auto;html=1;shape=link;width=-1.71875;fillColor=#e51400;strokeColor=#B20000;" parent="1" source="yCNXlP83xQap65_kqkha-220" edge="1">
          <mxGeometry relative="1" as="geometry">
            <mxPoint x="433.00000000000006" y="436.015" as="targetPoint" />
            <mxPoint x="443.00000000000006" y="436.036875" as="sourcePoint" />
          </mxGeometry>
        </mxCell>
        <mxCell id="yCNXlP83xQap65_kqkha-220" value="" style="verticalLabelPosition=bottom;sketch=0;aspect=fixed;html=1;verticalAlign=top;strokeColor=none;align=center;outlineConnect=0;shape=mxgraph.citrix.chassis;flipV=0;flipH=0;" parent="1" vertex="1">
          <mxGeometry x="453" y="410" width="40.71" height="52.55" as="geometry" />
        </mxCell>
        <mxCell id="yCNXlP83xQap65_kqkha-221" value="" style="verticalLabelPosition=bottom;sketch=0;aspect=fixed;html=1;verticalAlign=top;strokeColor=none;align=center;outlineConnect=0;shape=mxgraph.citrix.chassis;flipV=0;flipH=1;" parent="1" vertex="1">
          <mxGeometry x="393" y="350" width="40.71" height="52.55" as="geometry" />
        </mxCell>
        <mxCell id="yCNXlP83xQap65_kqkha-222" value="" style="endArrow=none;html=1;rounded=0;fillColor=#e51400;strokeColor=#B20000;" parent="1" edge="1">
          <mxGeometry width="50" height="50" relative="1" as="geometry">
            <mxPoint x="443" y="340" as="sourcePoint" />
            <mxPoint x="443" y="400" as="targetPoint" />
          </mxGeometry>
        </mxCell>
        <mxCell id="yCNXlP83xQap65_kqkha-223" style="rounded=0;orthogonalLoop=1;jettySize=auto;html=1;shape=link;width=-1.71875;fillColor=#e51400;strokeColor=#B20000;" parent="1" source="yCNXlP83xQap65_kqkha-224" edge="1">
          <mxGeometry relative="1" as="geometry">
            <mxPoint x="433.00000000000006" y="376.015" as="targetPoint" />
            <mxPoint x="443.00000000000006" y="376.036875" as="sourcePoint" />
          </mxGeometry>
        </mxCell>
        <mxCell id="yCNXlP83xQap65_kqkha-224" value="" style="verticalLabelPosition=bottom;sketch=0;aspect=fixed;html=1;verticalAlign=top;strokeColor=none;align=center;outlineConnect=0;shape=mxgraph.citrix.chassis;flipV=0;flipH=0;" parent="1" vertex="1">
          <mxGeometry x="453" y="350" width="40.71" height="52.55" as="geometry" />
        </mxCell>
        <mxCell id="yCNXlP83xQap65_kqkha-225" value="" style="verticalLabelPosition=bottom;sketch=0;aspect=fixed;html=1;verticalAlign=top;strokeColor=none;align=center;outlineConnect=0;shape=mxgraph.citrix.chassis;flipV=0;flipH=1;" parent="1" vertex="1">
          <mxGeometry x="393" y="290" width="40.71" height="52.55" as="geometry" />
        </mxCell>
        <mxCell id="yCNXlP83xQap65_kqkha-226" value="" style="endArrow=none;html=1;rounded=0;fillColor=#e51400;strokeColor=#B20000;" parent="1" edge="1">
          <mxGeometry width="50" height="50" relative="1" as="geometry">
            <mxPoint x="443" y="280" as="sourcePoint" />
            <mxPoint x="443" y="340" as="targetPoint" />
          </mxGeometry>
        </mxCell>
        <mxCell id="yCNXlP83xQap65_kqkha-227" style="rounded=0;orthogonalLoop=1;jettySize=auto;html=1;shape=link;width=-1.71875;fillColor=#e51400;strokeColor=#B20000;" parent="1" source="yCNXlP83xQap65_kqkha-228" edge="1">
          <mxGeometry relative="1" as="geometry">
            <mxPoint x="433.00000000000006" y="316.015" as="targetPoint" />
            <mxPoint x="443.00000000000006" y="316.036875" as="sourcePoint" />
          </mxGeometry>
        </mxCell>
        <mxCell id="yCNXlP83xQap65_kqkha-228" value="" style="verticalLabelPosition=bottom;sketch=0;aspect=fixed;html=1;verticalAlign=top;strokeColor=none;align=center;outlineConnect=0;shape=mxgraph.citrix.chassis;flipV=0;flipH=0;" parent="1" vertex="1">
          <mxGeometry x="453" y="290" width="40.71" height="52.55" as="geometry" />
        </mxCell>
        <mxCell id="yCNXlP83xQap65_kqkha-229" value="" style="verticalLabelPosition=bottom;sketch=0;aspect=fixed;html=1;verticalAlign=top;strokeColor=none;align=center;outlineConnect=0;shape=mxgraph.citrix.chassis;flipV=0;flipH=1;" parent="1" vertex="1">
          <mxGeometry x="393" y="230" width="40.71" height="52.55" as="geometry" />
        </mxCell>
        <mxCell id="yCNXlP83xQap65_kqkha-230" value="" style="endArrow=none;html=1;rounded=0;fillColor=#e51400;strokeColor=#B20000;exitX=0;exitY=0.5;exitDx=0;exitDy=0;exitPerimeter=0;" parent="1" source="nLhs3VdEfNRNzpU9Hnr--22" edge="1">
          <mxGeometry width="50" height="50" relative="1" as="geometry">
            <mxPoint x="443" y="250" as="sourcePoint" />
            <mxPoint x="443" y="280" as="targetPoint" />
          </mxGeometry>
        </mxCell>
        <mxCell id="yCNXlP83xQap65_kqkha-231" style="rounded=0;orthogonalLoop=1;jettySize=auto;html=1;shape=link;width=-1.71875;fillColor=#e51400;strokeColor=#B20000;" parent="1" source="yCNXlP83xQap65_kqkha-232" edge="1">
          <mxGeometry relative="1" as="geometry">
            <mxPoint x="433.00000000000006" y="256.015" as="targetPoint" />
            <mxPoint x="443.00000000000006" y="256.036875" as="sourcePoint" />
          </mxGeometry>
        </mxCell>
        <mxCell id="yCNXlP83xQap65_kqkha-232" value="" style="verticalLabelPosition=bottom;sketch=0;aspect=fixed;html=1;verticalAlign=top;strokeColor=none;align=center;outlineConnect=0;shape=mxgraph.citrix.chassis;flipV=0;flipH=0;" parent="1" vertex="1">
          <mxGeometry x="453" y="230" width="40.71" height="52.55" as="geometry" />
        </mxCell>
        <mxCell id="yCNXlP83xQap65_kqkha-233" value="" style="endArrow=none;html=1;rounded=0;fillColor=#b1ddf0;strokeColor=#10739e;" parent="1" edge="1">
          <mxGeometry width="50" height="50" relative="1" as="geometry">
            <mxPoint x="503" y="440" as="sourcePoint" />
            <mxPoint x="503" y="250" as="targetPoint" />
          </mxGeometry>
        </mxCell>
        <mxCell id="yCNXlP83xQap65_kqkha-234" value="" style="endArrow=none;html=1;rounded=0;fillColor=#b1ddf0;strokeColor=#10739e;shape=link;width=-1.7741935483870979;" parent="1" source="yCNXlP83xQap65_kqkha-228" edge="1">
          <mxGeometry width="50" height="50" relative="1" as="geometry">
            <mxPoint x="513" y="320" as="sourcePoint" />
            <mxPoint x="503" y="316" as="targetPoint" />
          </mxGeometry>
        </mxCell>
        <mxCell id="yCNXlP83xQap65_kqkha-235" value="" style="endArrow=none;html=1;rounded=0;fillColor=#b1ddf0;strokeColor=#10739e;shape=link;width=-1.7741935483870979;" parent="1" edge="1">
          <mxGeometry width="50" height="50" relative="1" as="geometry">
            <mxPoint x="493.71" y="376.19" as="sourcePoint" />
            <mxPoint x="502.71" y="376.19" as="targetPoint" />
          </mxGeometry>
        </mxCell>
        <mxCell id="yCNXlP83xQap65_kqkha-236" value="" style="endArrow=none;html=1;rounded=0;fillColor=#b1ddf0;strokeColor=#10739e;shape=link;width=-1.7741935483870979;" parent="1" edge="1">
          <mxGeometry width="50" height="50" relative="1" as="geometry">
            <mxPoint x="493.71" y="256.19" as="sourcePoint" />
            <mxPoint x="502.71" y="256.19" as="targetPoint" />
          </mxGeometry>
        </mxCell>
        <mxCell id="yCNXlP83xQap65_kqkha-237" value="" style="endArrow=none;html=1;rounded=0;fillColor=#b1ddf0;strokeColor=#10739e;shape=link;width=-1.7741935483870979;" parent="1" edge="1">
          <mxGeometry width="50" height="50" relative="1" as="geometry">
            <mxPoint x="493.71" y="436.04" as="sourcePoint" />
            <mxPoint x="502.71" y="436.04" as="targetPoint" />
          </mxGeometry>
        </mxCell>
        <mxCell id="yCNXlP83xQap65_kqkha-238" value="" style="endArrow=none;html=1;rounded=0;fillColor=#b1ddf0;strokeColor=#10739e;shape=link;width=-1.7741935483870979;" parent="1" edge="1">
          <mxGeometry width="50" height="50" relative="1" as="geometry">
            <mxPoint x="383" y="436" as="sourcePoint" />
            <mxPoint x="393" y="436.22" as="targetPoint" />
          </mxGeometry>
        </mxCell>
        <mxCell id="yCNXlP83xQap65_kqkha-239" value="" style="endArrow=none;html=1;rounded=0;fillColor=#b1ddf0;strokeColor=#10739e;shape=link;width=-1.7741935483870979;" parent="1" edge="1">
          <mxGeometry width="50" height="50" relative="1" as="geometry">
            <mxPoint x="383" y="376" as="sourcePoint" />
            <mxPoint x="393" y="376.04" as="targetPoint" />
          </mxGeometry>
        </mxCell>
        <mxCell id="yCNXlP83xQap65_kqkha-240" value="" style="endArrow=none;html=1;rounded=0;fillColor=#b1ddf0;strokeColor=#10739e;shape=link;width=-1.7741935483870979;" parent="1" edge="1">
          <mxGeometry width="50" height="50" relative="1" as="geometry">
            <mxPoint x="383" y="316" as="sourcePoint" />
            <mxPoint x="393" y="316.04" as="targetPoint" />
          </mxGeometry>
        </mxCell>
        <mxCell id="yCNXlP83xQap65_kqkha-241" value="" style="endArrow=none;html=1;rounded=0;fillColor=#b1ddf0;strokeColor=#10739e;shape=link;width=-1.7741935483870979;" parent="1" edge="1">
          <mxGeometry width="50" height="50" relative="1" as="geometry">
            <mxPoint x="383" y="256" as="sourcePoint" />
            <mxPoint x="393" y="256.03999999999996" as="targetPoint" />
          </mxGeometry>
        </mxCell>
        <mxCell id="yCNXlP83xQap65_kqkha-242" value="" style="endArrow=none;html=1;rounded=0;fillColor=#b1ddf0;strokeColor=#10739e;" parent="1" edge="1">
          <mxGeometry width="50" height="50" relative="1" as="geometry">
            <mxPoint x="383" y="440" as="sourcePoint" />
            <mxPoint x="383" y="250" as="targetPoint" />
          </mxGeometry>
        </mxCell>
        <mxCell id="yCNXlP83xQap65_kqkha-243" value="" style="verticalLabelPosition=bottom;sketch=0;aspect=fixed;html=1;verticalAlign=top;strokeColor=none;align=center;outlineConnect=0;shape=mxgraph.citrix.chassis;flipV=0;flipH=1;" parent="1" vertex="1">
          <mxGeometry x="90" y="410" width="40.71" height="52.55" as="geometry" />
        </mxCell>
        <mxCell id="yCNXlP83xQap65_kqkha-244" value="" style="endArrow=none;html=1;rounded=0;fillColor=#e51400;strokeColor=#B20000;" parent="1" edge="1">
          <mxGeometry width="50" height="50" relative="1" as="geometry">
            <mxPoint x="140" y="400" as="sourcePoint" />
            <mxPoint x="140" y="440" as="targetPoint" />
          </mxGeometry>
        </mxCell>
        <mxCell id="yCNXlP83xQap65_kqkha-245" style="rounded=0;orthogonalLoop=1;jettySize=auto;html=1;shape=link;width=-1.71875;fillColor=#e51400;strokeColor=#B20000;" parent="1" source="yCNXlP83xQap65_kqkha-246" edge="1">
          <mxGeometry relative="1" as="geometry">
            <mxPoint x="130.00000000000006" y="436.015" as="targetPoint" />
            <mxPoint x="140.00000000000006" y="436.036875" as="sourcePoint" />
          </mxGeometry>
        </mxCell>
        <mxCell id="yCNXlP83xQap65_kqkha-246" value="" style="verticalLabelPosition=bottom;sketch=0;aspect=fixed;html=1;verticalAlign=top;strokeColor=none;align=center;outlineConnect=0;shape=mxgraph.citrix.chassis;flipV=0;flipH=0;" parent="1" vertex="1">
          <mxGeometry x="150" y="410" width="40.71" height="52.55" as="geometry" />
        </mxCell>
        <mxCell id="yCNXlP83xQap65_kqkha-247" value="" style="verticalLabelPosition=bottom;sketch=0;aspect=fixed;html=1;verticalAlign=top;strokeColor=none;align=center;outlineConnect=0;shape=mxgraph.citrix.chassis;flipV=0;flipH=1;" parent="1" vertex="1">
          <mxGeometry x="90" y="350" width="40.71" height="52.55" as="geometry" />
        </mxCell>
        <mxCell id="yCNXlP83xQap65_kqkha-248" value="" style="endArrow=none;html=1;rounded=0;fillColor=#e51400;strokeColor=#B20000;" parent="1" edge="1">
          <mxGeometry width="50" height="50" relative="1" as="geometry">
            <mxPoint x="140" y="340" as="sourcePoint" />
            <mxPoint x="140" y="400" as="targetPoint" />
          </mxGeometry>
        </mxCell>
        <mxCell id="yCNXlP83xQap65_kqkha-249" style="rounded=0;orthogonalLoop=1;jettySize=auto;html=1;shape=link;width=-1.71875;fillColor=#e51400;strokeColor=#B20000;" parent="1" source="yCNXlP83xQap65_kqkha-250" edge="1">
          <mxGeometry relative="1" as="geometry">
            <mxPoint x="130.00000000000006" y="376.015" as="targetPoint" />
            <mxPoint x="140.00000000000006" y="376.036875" as="sourcePoint" />
          </mxGeometry>
        </mxCell>
        <mxCell id="yCNXlP83xQap65_kqkha-250" value="" style="verticalLabelPosition=bottom;sketch=0;aspect=fixed;html=1;verticalAlign=top;strokeColor=none;align=center;outlineConnect=0;shape=mxgraph.citrix.chassis;flipV=0;flipH=0;" parent="1" vertex="1">
          <mxGeometry x="150" y="350" width="40.71" height="52.55" as="geometry" />
        </mxCell>
        <mxCell id="yCNXlP83xQap65_kqkha-251" value="" style="verticalLabelPosition=bottom;sketch=0;aspect=fixed;html=1;verticalAlign=top;strokeColor=none;align=center;outlineConnect=0;shape=mxgraph.citrix.chassis;flipV=0;flipH=1;" parent="1" vertex="1">
          <mxGeometry x="90" y="290" width="40.71" height="52.55" as="geometry" />
        </mxCell>
        <mxCell id="yCNXlP83xQap65_kqkha-252" value="" style="endArrow=none;html=1;rounded=0;fillColor=#e51400;strokeColor=#B20000;" parent="1" edge="1">
          <mxGeometry width="50" height="50" relative="1" as="geometry">
            <mxPoint x="140" y="280" as="sourcePoint" />
            <mxPoint x="140" y="340" as="targetPoint" />
          </mxGeometry>
        </mxCell>
        <mxCell id="yCNXlP83xQap65_kqkha-253" style="rounded=0;orthogonalLoop=1;jettySize=auto;html=1;shape=link;width=-1.71875;fillColor=#e51400;strokeColor=#B20000;" parent="1" source="yCNXlP83xQap65_kqkha-254" edge="1">
          <mxGeometry relative="1" as="geometry">
            <mxPoint x="130.00000000000006" y="316.015" as="targetPoint" />
            <mxPoint x="140.00000000000006" y="316.036875" as="sourcePoint" />
          </mxGeometry>
        </mxCell>
        <mxCell id="yCNXlP83xQap65_kqkha-254" value="" style="verticalLabelPosition=bottom;sketch=0;aspect=fixed;html=1;verticalAlign=top;strokeColor=none;align=center;outlineConnect=0;shape=mxgraph.citrix.chassis;flipV=0;flipH=0;" parent="1" vertex="1">
          <mxGeometry x="150" y="290" width="40.71" height="52.55" as="geometry" />
        </mxCell>
        <mxCell id="yCNXlP83xQap65_kqkha-255" value="" style="verticalLabelPosition=bottom;sketch=0;aspect=fixed;html=1;verticalAlign=top;strokeColor=none;align=center;outlineConnect=0;shape=mxgraph.citrix.chassis;flipV=0;flipH=1;" parent="1" vertex="1">
          <mxGeometry x="90" y="230" width="40.71" height="52.55" as="geometry" />
        </mxCell>
        <mxCell id="yCNXlP83xQap65_kqkha-256" value="" style="endArrow=none;html=1;rounded=0;fillColor=#e51400;strokeColor=#B20000;exitX=0;exitY=0.5;exitDx=0;exitDy=0;exitPerimeter=0;" parent="1" source="nLhs3VdEfNRNzpU9Hnr--20" edge="1">
          <mxGeometry width="50" height="50" relative="1" as="geometry">
            <mxPoint x="140" y="250" as="sourcePoint" />
            <mxPoint x="140" y="280" as="targetPoint" />
          </mxGeometry>
        </mxCell>
        <mxCell id="yCNXlP83xQap65_kqkha-257" style="rounded=0;orthogonalLoop=1;jettySize=auto;html=1;shape=link;width=-1.71875;fillColor=#e51400;strokeColor=#B20000;" parent="1" source="yCNXlP83xQap65_kqkha-258" edge="1">
          <mxGeometry relative="1" as="geometry">
            <mxPoint x="130.00000000000006" y="256.015" as="targetPoint" />
            <mxPoint x="140.00000000000006" y="256.036875" as="sourcePoint" />
          </mxGeometry>
        </mxCell>
        <mxCell id="yCNXlP83xQap65_kqkha-258" value="" style="verticalLabelPosition=bottom;sketch=0;aspect=fixed;html=1;verticalAlign=top;strokeColor=none;align=center;outlineConnect=0;shape=mxgraph.citrix.chassis;flipV=0;flipH=0;" parent="1" vertex="1">
          <mxGeometry x="150" y="230" width="40.71" height="52.55" as="geometry" />
        </mxCell>
        <mxCell id="yCNXlP83xQap65_kqkha-259" value="" style="endArrow=none;html=1;rounded=0;fillColor=#b1ddf0;strokeColor=#10739e;" parent="1" edge="1">
          <mxGeometry width="50" height="50" relative="1" as="geometry">
            <mxPoint x="200" y="440" as="sourcePoint" />
            <mxPoint x="200" y="250" as="targetPoint" />
          </mxGeometry>
        </mxCell>
        <mxCell id="yCNXlP83xQap65_kqkha-260" value="" style="endArrow=none;html=1;rounded=0;fillColor=#b1ddf0;strokeColor=#10739e;shape=link;width=-1.7741935483870979;" parent="1" source="yCNXlP83xQap65_kqkha-254" edge="1">
          <mxGeometry width="50" height="50" relative="1" as="geometry">
            <mxPoint x="210" y="320" as="sourcePoint" />
            <mxPoint x="200" y="316" as="targetPoint" />
          </mxGeometry>
        </mxCell>
        <mxCell id="yCNXlP83xQap65_kqkha-261" value="" style="endArrow=none;html=1;rounded=0;fillColor=#b1ddf0;strokeColor=#10739e;shape=link;width=-1.7741935483870979;" parent="1" edge="1">
          <mxGeometry width="50" height="50" relative="1" as="geometry">
            <mxPoint x="190.70999999999998" y="376.19" as="sourcePoint" />
            <mxPoint x="199.70999999999998" y="376.19" as="targetPoint" />
          </mxGeometry>
        </mxCell>
        <mxCell id="yCNXlP83xQap65_kqkha-262" value="" style="endArrow=none;html=1;rounded=0;fillColor=#b1ddf0;strokeColor=#10739e;shape=link;width=-1.7741935483870979;" parent="1" edge="1">
          <mxGeometry width="50" height="50" relative="1" as="geometry">
            <mxPoint x="190.70999999999998" y="256.19" as="sourcePoint" />
            <mxPoint x="199.70999999999998" y="256.19" as="targetPoint" />
          </mxGeometry>
        </mxCell>
        <mxCell id="yCNXlP83xQap65_kqkha-263" value="" style="endArrow=none;html=1;rounded=0;fillColor=#b1ddf0;strokeColor=#10739e;shape=link;width=-1.7741935483870979;" parent="1" edge="1">
          <mxGeometry width="50" height="50" relative="1" as="geometry">
            <mxPoint x="190.70999999999998" y="436.04" as="sourcePoint" />
            <mxPoint x="199.70999999999998" y="436.04" as="targetPoint" />
          </mxGeometry>
        </mxCell>
        <mxCell id="yCNXlP83xQap65_kqkha-264" value="" style="endArrow=none;html=1;rounded=0;fillColor=#b1ddf0;strokeColor=#10739e;shape=link;width=-1.7741935483870979;" parent="1" edge="1">
          <mxGeometry width="50" height="50" relative="1" as="geometry">
            <mxPoint x="80" y="436" as="sourcePoint" />
            <mxPoint x="90" y="436.22" as="targetPoint" />
          </mxGeometry>
        </mxCell>
        <mxCell id="yCNXlP83xQap65_kqkha-265" value="" style="endArrow=none;html=1;rounded=0;fillColor=#b1ddf0;strokeColor=#10739e;shape=link;width=-1.7741935483870979;" parent="1" edge="1">
          <mxGeometry width="50" height="50" relative="1" as="geometry">
            <mxPoint x="80" y="376" as="sourcePoint" />
            <mxPoint x="90" y="376.04" as="targetPoint" />
          </mxGeometry>
        </mxCell>
        <mxCell id="yCNXlP83xQap65_kqkha-266" value="" style="endArrow=none;html=1;rounded=0;fillColor=#b1ddf0;strokeColor=#10739e;shape=link;width=-1.7741935483870979;" parent="1" edge="1">
          <mxGeometry width="50" height="50" relative="1" as="geometry">
            <mxPoint x="80" y="316" as="sourcePoint" />
            <mxPoint x="90" y="316.04" as="targetPoint" />
          </mxGeometry>
        </mxCell>
        <mxCell id="yCNXlP83xQap65_kqkha-267" value="" style="endArrow=none;html=1;rounded=0;fillColor=#b1ddf0;strokeColor=#10739e;shape=link;width=-1.7741935483870979;" parent="1" edge="1">
          <mxGeometry width="50" height="50" relative="1" as="geometry">
            <mxPoint x="80" y="256" as="sourcePoint" />
            <mxPoint x="90" y="256.03999999999996" as="targetPoint" />
          </mxGeometry>
        </mxCell>
        <mxCell id="yCNXlP83xQap65_kqkha-268" value="" style="endArrow=none;html=1;rounded=0;fillColor=#b1ddf0;strokeColor=#10739e;" parent="1" edge="1">
          <mxGeometry width="50" height="50" relative="1" as="geometry">
            <mxPoint x="80" y="440" as="sourcePoint" />
            <mxPoint x="80" y="250" as="targetPoint" />
          </mxGeometry>
        </mxCell>
        <mxCell id="nLhs3VdEfNRNzpU9Hnr--8" value="Sistema de resfriamento de um datacenter" style="text;html=1;align=center;verticalAlign=middle;resizable=0;points=[];autosize=1;strokeColor=none;fillColor=none;fontFamily=Times New Roman;fontStyle=2;fontSize=20;" parent="1" vertex="1">
          <mxGeometry x="115.00000000000003" y="30" width="360" height="40" as="geometry" />
        </mxCell>
        <mxCell id="nLhs3VdEfNRNzpU9Hnr--9" value="" style="shape=image;verticalLabelPosition=bottom;labelBackgroundColor=default;verticalAlign=top;aspect=fixed;imageAspect=0;image=data:image/jpeg,/9j/4AAQSkZJRgABAQAAAQABAAD/2wCEAAYGBgYHBgcICAcKCwoLCg8ODAwODxYQERAREBYiFRkVFRkVIh4kHhweJB42KiYmKjY+NDI0PkxERExfWl98fKcBBgYGBgcGBwgIBwoLCgsKDw4MDA4PFhAREBEQFiIVGRUVGRUiHiQeHB4kHjYqJiYqNj40MjQ+TERETF9aX3x8p//CABEIBRQCoAMBIgACEQEDEQH/xAAwAAEAAwEBAQAAAAAAAAAAAAAAAgMEBQEGAQEAAwEAAAAAAAAAAAAAAAAAAQIDBP/aAAwDAQACEAMQAAAC+qAAAAAAAAAAAAAAAAAAAAAAAAAAAAAAAAAAAAAAAAAAAAAAAAAAAAAAAAAAAAAAAAAAAAAAAAAAAAAAAAAAAAAAAAAAAAAAAAAAAAAB55nxnWcmJ2HHHYonyjsuRWdtytBtAAAAAAAAAAAAAAAAAAAAAAAAAAAAAAAAAAABGNgpt9EIXAClcKbfQAAAAAAAAAAAAAAAAAAAAAAAAAAABnouGS2OgpXClcKVwpXClcKVwpXClcKVwpXClcKVwpXClcKVwpXClcKVwpq15yVvvhqAAAAAAAAAAAAAAU+F4ACIkADMDNoyVm9gidFztBpZhpZhpZssR03PvNLMmdLMNLN4anDHccUdpwpnacMdxxfDtuJ6dpwx3HMkdFzpG/PRM2+e+GoAAAAAAAAAAAAAHPdAcinu+HCl3PDgdXV6AAZgZoTqK66vDVow3GhnGhnGjBfkpTRr5+i06M3vEW71vM1y0eUDkXYrKLbMs5W+Z0NPmaRqhXCWieSUPb8Np0tGHRZKzL7LfOq00+exNYAAAAAAAAAAAAADnVnVYazpMEja5Ws1AAzHhnpuiZoz8Kb7NBjbBjbBjju59az991zONsTONsGNs8OYyXVWqLJTUIXqBehWXqZk2PQaIWXyok9lZdGRpj74awAAAAAAAAAAAAAUysGaGwYPOgObusAAGbz3wz1WZyuNHhqv5txsYxsYxsxqq00aefZM7OLuzLatfOtlsYxzLLUKpy9M/t3pn9v8IwtFXtkjJZaNF+RLTLL6dG3NoNPnvhrAAAAAAAAAAAAAAAAAAABm898MxAlGiBr0YNBeoF6gXqBeoF6gXqBeoF6gXqBeoF6gXqBeoF6gX5/c5dLHM1ITNPnvhrAqtwllnLgd2jjyO7nqgXauLA7FuHcAAAAAAAAAAAAAZvPYmeq2oyeXxIXV1mhiG1kibWK8uSwmxjGxiG1j1EkcxrYfTaxjYw9Aiqzm1j8NrDI2UxsK/bJFttVpp8DWAAAAAAAAAAABxuznOdLZIyS1RM9O24ny+nQZmmRz9Vow9fPoM0ZRM8fayMavDTlszwq9ghbTOsv1YdMunw+ryC+tEurRh71eT0JXc7XhK9Ga2CymUvO5wesU5L8pOqUIXRiNerDolOWf2WyVVhpBrAAAAAAAAAAAAMZsZRqVelims1GE3KvC5jtL2PYZoyiZqbvDBHfEw1dbHDn+3CqGvPDy73ZKvB9H8+Q811lLTXCrXT1ZYMvZ5xkl7oMvt1hk6GP6A4dHUxFHmmmEfL0vLbdhz5a5Shd56aQawAAAAAAAAAAAOV1RxLesOO7A49vTFfP6g48usORd0Ry+oGaMoGeE6iuuPhfXHJDQ5/p0Y4aTqX8rUdXn6OKdFigdD3DWdLVw+oaM3vONrmXm1z5m3o/Ods8zwxnQ8wVnTYPDq2c7WSso9lsnVaaXnprAAAAAAAAAAAAAAAAAAABmhKJnrsiUxsiRvhoKloqWipaKloqWipaKloqWipaKloqWipaKloqWiqjZnK5JErIyNHvnprA89xGuXGHZces7kc9ZslxpHXYN4AAAAAAAAAAAABljKJmrsqM0bfD27JcWqhaqFqoWqhaqFqoWqhaqFqoWqhaqFqoWqhaqFtPtIlL0vtptNPvnprAhMUeaBRK0RhaKfLxCYAAAAAAAAAAAAAZYTgZzw8joieVS8PVQtVC1ULVQtVC1ULVQtVC1ULVQtVC1ULVQtVCdtfpGVkit56aJR9NgAAAAAAAAAAAAAHG7OQohrmZ6d0TP0arQADLCcDPGUC1WK0PSSAmgJoCaAmgJoCaAmpmTQE0BNATQE0BNATR8NasJQmaPfPTYAAAAAAAAAAAAAAAAAAADLCcDPVZUeeZYmhXWaGUamUamUamUamUamUamX003YbTTydqueFuVwwtwwtww33pvpZl+iamRo9xSNttNpp989NgAAAAAAAAAAAAAAAAAAAMtdlZnrs9M8bvDNPZWY24YW4YW4YW4YW4YW4YW4YW4YW4YW4YW4YW4YW4YW4ZYa7DJKciNnvholGRsAAAAAAAAAAAAAAhPlHVcnw67mVnXczpgAGWuysz+exNHkBX7X6SQE0BNATQE0BNATQE0BNATQE0BNATQE0BZ5Hw1e1iHsZGiUZGwAAAAAAAAAAAAADNpFPtorjcITAADLXZWZ4TrJqPD3yAsUC9QL1AvUC9QL1Av8pke2QuIV382ueplVw1Mo1Mo1Sx2zfUmv0V+1jWz+ls67DRKMjYAAAAAAAAAAAAAAAAAAADLVbUZ6rYGPzVEphfIzLhSuFK4UrhSuFK4U+XiiyYgmIJiCYgmIJiCYqld4Ue3yPbYTNE4TNgAAAAAAAAAAAAABnNAAAAAMtVtRn98COkVR8E0BNATQE0BNATQE0BNATQE0BNATQE0BNAeygPJXinwNE4TNgAAAAAAAAAAAAAHL6lRy49n05NfbgczrAABlqtqM8ZQLlYrnT4WICaAmgJoCaAmgJoRLVFhNCiI1MhGtkGtkGtkmaEE2uhX6a1Y8lCZonCZsAAAAAAAAAAAAAAAAAAABlpupM8J1kI1xLY+eEFgrWCtYK1grWCtYK7ES27FYacNqKVLVcaloqWiqci2lmX3mr9LJZ5GqddhosrsNgAAAAAAAAAAAAAAAAAAAMtN1JnjKRVHVEz3z0mNsGNsGNsGNsGNsGNsGNsGNsGNsGNsGNsGNsGNsGNsGOjp5jLK6RRKUTROEzaAAAAAAAAAAAAAAAAAAADLTdSZ/fPTY8GfTl0nuXTlmsFzfkpXClcKVwpXClcKVwpXClcKVwpXClcIa8evDq9zaM0X1PBk898NE4TNoAAAAAAAAAAAAAAAAAAAMtF9BQ89NTwUaM2g9zaM01tHTwgAAAAAAAAAAVasunn7fc9+et9LwZjw0WV2G0AAAAAAAAAAAAAAAAAAAGWi+gzg0vBRozaD3NozTW8dPCAAAAAAAAAABTpy6eft9z35630vBnBosrsNoAAAAAAAAAAAAADPE1KpE1ETSrsAAMtF+co898L3gpvz3ntF1E10Dp4QAAAAAAAAAAKL89/P2+0XUVvoeCn3z00WVWm0AAAAAAAAAAAAAFHM7Q5cOuOM7I43ZAADJRfQUePC54Kb82g9ouomuodPCAAAAAAAAAABmvou5+32i7PW+l4K/Y+mi2q02gAAAAAAAAAAAAAAAAAAAyUX0Gfz2JY8FN+e89ptqmusdPCAAAAAAAAAABltpt5+32i6it9DwR9jI0W1Wm0AAAAAAAAAAAAAAAAAAAGSi/OURlAm8FN+e89qsqmu0dPCAAAAAAAAAABksqs5+32i6it9DweShM0W03G0AAAAAAAAAAAAAAAAAAAGTPozlEJ1nrwVXUXHtc65rvHTwgAAAAAAAAAAYpwlz9vtNtNb3vB7OuwvupuNoAAAAAAAAAAAAAAAAAAAMmfRnM8J1hn8J3UXHtVhE0F8poCaAmgJoCaAmgJoCaAmgJoCaAhZ4pr7TbSm9m9NM67DRdTcbQAAAAAAAAAAAACJJyInZceZ1WfGdRyvTqAAyZ9GYoqtkYPOn4cy3oaDjuwOO7A47sDjt0jntlhz2wY3QrMbZYc9sGN0Bz3QiYXYHHdgcd2Bx6u7nOX70fTLbKJououNwAAAAAAAAAAAABUUp2GS3TjNuPSKPNES1XYAZM2nMUED2EPDRfhvL1AvUC9QKrc0idlATpmX1wE7KBOCBqUC+qMToKBeoF6gX0KCc6PTQhMvupuNwAAAAAAAAAAAAGHcMGDvDkw6thyqe2OBt6Qy6gAyZtOYoj76eRsiQv8ALylcKVwpXClcKVwpXClcKVwpXClcKVwpXClcKVwpo20FUkiHvvhoupuNwBhNziyOw5NR22ak3uNYdVg3gAAAAAAAAAAAAGTNpylHntZGMvCd+K4vUC9QL1AvUC9QL1AvUC9QL1AvUC9QL1AvUC9QL6FJKXnpb7XYaLqLzcBXYM8NYyy0CELhmaRCYAAAAAAAAAAAAAZMurKUThItjbER8iWsg1sg1sg1sg1sg1sg1sg1sg1sg1sg1sg1sg1sg1sg0yqkJeyKISiX30Xm4AAAAAAAAAAAAADjdnGVwvmVVaRT0KbgADJl1ZSh4NSsQ8h6TVixWLFYsVixWLFYsV+k1MixWLFYsVixWLFYsVifsPDWrFTwaL6LzcAAAAAAAAAAAAAAAAAAADJl1ZCjz2Bb5kiaEIFygXqBeoF6gXqBeoF/lI0XYri/lbvK54W1XDE2jE2jFdf7N9ChfoKpGj3DI0+wmaL8+g3AAAAAAAAAAAAAAAAAAAAyZNeQohOZX5fEyz20mZpGZpGZpGZpGZpGZpGb3QMzSMzSMzSMzSMzSMzSMzSKIarjJ7ZIzznAv0Z9BuAAAAAAAAAAAAAAOQddy4nWc2s6zm9IAAyZNeQolD02x8FXtfpJATQE0BNATQE0BNATQE0BNATQE0BNATQFiHhplAZ4vDRoz6DcAAAAAAAAAAAAABk1jP7eKY6BXYAAGTJrxlB4aFPgQE1YsVixWLFYsVixWLPIeicLiHlnLrnvc5XDoucOi5w6PvNvm+xNfoggNSj08eemjRm0m4AAAAAAAAAAAAAAAAAAAGTHsxlEZeFEdUSqu+RkXiheKF4oXiheKF4o9uFVno8ejx6PHo8ejx6PHohK2JTK6RGXnpfpzaDeAAAAAAAAAAAAAAUlwAAAAMmPZjKJwkWx0iqPgsVixWLFYsVixWLFYsVixWLFYsVixWLFYsVixWPZQHkrxkhKJfoz6DeAAAAAAAAAAAAABy+pnMEer6c2vrROf1fPQADJj14yiURrViHtXharFisWKxYrFisWKxYr8LVEyxXSjUyIa2Qa2Qa2SZoVpm3yr01qxV54NGjNpN4AAAAAAAAAAAAAAAAAAAMePZjKPPYko1xLY+RPExBMQTEExBMQTELPIl12Gw1c+5XOlcrhSuFK4U2STfUyr9E1fpZLPIt9jIv05tJvAAAAAAAAAAAAAAAAAAABjx7MZQTEdMCj3T4ZGwY2wY2wY2wY2wY2wY2wY2wY2wY2wY2wY2wY2wY2wZvNPpm9u9MycC/Tm0m8AAAAAAAAAAAAADNp5J1nEid1x6juuR1wADHi24imUJG1AV+QmeqxYrFisWKxYrFisWKxYrFisWKxYrFisWKxYrE/fIGtAZo+xL9WXUbwAAAAAAAAAAAAAIyAAAAAGPFtxFB4aWbwnHyJayjUyjUyjUyjUyjUyjVHPYe2wuIZtmKuYVwAAWVzm96a/RVKA1Mvp689L9WXUbwAAAAAAAAAAAAAAAAAAAY8W3EURl6VR1xMzSMzQM7QM7QM7QM7QM7QM7QMk9AztAztAztAztAztAztAztIze6JFEvfC/Vl1G8AAAAAAAAAAAAGKXuYm88JexkQ0Z7TPdOg824dxeDHh3YSmcJGmNwqQgXKhaqFqoWqhaqFqoWqhaqFqoWqhaqFqoWqhaqFqmZKVgxwlAv15NZvAAAAAAAAAAAAAAhPIaK8kTbfixHaZNYABjw7sJRKPprViFlFRpZhpZhpZhpZhpZhpZhpZvDUy3FivJFd7nop0HPHQc8dBz7E7Fa2l9dMzUrFMffC/Xk1m8AAAAAAAAAAAAACMhCu8U2SHnoAAY8O7CUeexPY+RLFYkiJIiSIkiJIiSIlKsW3YZmvIRXx6jPx6PHo8nEnWyLa2KxOVXpZ7GRfryazeAAAAAAAAAAAAAAAAAAADHg34CmcLC6OiJVor0mD576LMcd1RyezDcZuJ385yXVHJ7tGwwT6FlM+X70xzuN3819OU6o5Pcq0lHG+jxHKdUcn6HPoNWfbmKpWSMULKy7Zj1nQAAAAAAAAAAAAAAYrDSzemhR4aGDaSABjwb8BRbVYdFEU6Mugz/JfUVnzD6cfMfTe3Ffy31ET5l9OPmPq6rTDZunnlznR9MfzH1EdNfmX04+Y+qrmV/NfWVHzD6cfN/W5pnQz3ZzUiMNVlZfryazoAAAAAAAAAAAAAAy87tenMq7A5bqDladnh6ADHg34CicJm5EVX5ryj53uckztIzd3ldEt4PY55naRm+g4/SI2eWZYQTEeF18Gu+dpGbv8jolnC7HPM7SKPouH1ToUW0GlEY4TgX68ms6AAAAAAAAAAAAAAPn9XWpOZ7vkc+W+w5lPVgaQAY+f0OeUyj6bHgpvzaDJzep86bGMbOlwO2Swb+EbWMbOlwO+Ss588sdrF6TwbuJrttYxt38LvDnbeKbWMbujwPojVRdQaHgyx98LtmPYdAAAAAAAAAAAAAAGSF+E1qYGqfOka7+P0jSADHz+hzyiUfTUiKr815m8l80fQvnB9Hd8t3y3yPzx9G+cH0dnzH0Rqnyp0z6XvMF/lfAvp9G+cH0cvmvoi6qrgn0b5wfSvnPpTVRbQaURRH3wv2Y9h0AAAAAAAAAAAAAAAAPPQAABj5/Q55QC9EV3Z7jNk28o0sg1auX1CFGnmGtkGrTzOqezzzpnaq9K6NHNvprZBq0c3qHmbTzDWyDVq5vUNVNlJoRFQL9mPYdAAAAAAAAAAAAAAAAAAAAGPndHnFPnsSMbPBdmuKOP2ajlukOb0fdRl5nZqOY6Q5nU80lMvZ0zr9mMvN7NN9Oa6Q5nT9uM3P7eY5rpDm9eFpppnSPZenvsZF23FtOgAAAAAAAAAAAAAAAAAAADHzujzim6i41RvieaMugz/IfVVnyz6ofK/TyuK/lPqR8s+qHyv1kLDBZvszz5jpjF8v8AUtNPln1Q+V+rjIq+Z+uqPln1Q+Y+vzTOhnuzkZTkYaLqS/bi2nQAAAAAAAAAAAAAAcz06Tm+nRYPTc4/RLwAYuf0OeUW1WnSRFGnLoM/zXf5JjbBj+g5fQLvnu3zjI2DJ9HxukQs9nlhWs9IcDtc/XfI2DJ9Fx+iWfP9znmNsGb6Xh9U6Oa/OakRz6rai/bi2nQAAAAAAAAAAAAABDBqkQp12GSN1xjtvoNAAMXO6POKbK5nQRFOjLoMnL63zhrZBr6fA7ZLndLgmxjGzp8DvkrOfPLHaxek+fv4mu2xjGzpcHvDm7+IbGMbun899Ia892c1IjFXOBduw7joAAAAAAAAAAAAAA4lnXHBj9AONLrji0/QAADFzujzimUZG1EVX5rzL5P5g+ifND6W/wCT+hLfPPnD6R80PpbPl/pDVPkWUz6fvLQv8h89pp9I+aH0svmfoy+mr58+lfND6d839OaqLaDSiMkZRLtuLadEAAAAAAAAAAAAAGPH06SuF4oujSebKNxIAGLndHmlMo+mtEVX57jNk28g1sQ2auT1SNGnlmxiGzTyuuezzTpncp9IUX8y+m1iGzRzOoM2nlG1iGzVy+saqLaTQiM8ffC/bh3HRAAAAAAAAAAAAAAAAAAABi5vS5pT74NKuJ5fmvMvG7OY57cMPSr1lPM62cwtww9SnURnKdM6lox83rZ76YW4YenVpKed2Mphbhh7GfQbaLaDSpkV+Bduw7jogAAAAAAAAAAAAAAAAAAAxc3pc0p89EPNcSm6Fxl+e+pkfJO9oPme30shVwvoNp8k+mznB72+o58vejTPm+9Hnjh/TX30+Sd7QfM97fiKeL9DsPkn02c4X0OuJ5TppKfdEjP6F27DuOiAAAAAAAAAAAAAAAVlhAmAADFzelzCm6m01Q1CvRj0FnF63BOdKPh3uJuwHvb4e8wx89O1ytnNJbsNxow3UlnV4nSOdKPh3uJuwHvb4e8wx89Oz2vne8WZ7M557oGCi2ov3YN50QAAAAAAAAAAAAAAYMPT0HPh1cxpAABi5nT5hTZXM3oCu/LeTgzGDVydJ3uRu4ps6/znbMuaGY+ky+5CvqfOdo08vXxTu6uXrMGnlaTvcjfxDZ1/nO0Zs0Mx9JPHpJ0WUGpAZK5wLt+DedEAAAAAAAAAAAAAAAAAAAGLmdPmFPvg0RqiW35bizi9bKc2qvSSh1eOTlV2DjW+UG7nd3Ge46ewc3Zdxx0Ww5tULyUerxyc6ewca1mN/aw6iyidJbLN6e+BdvwbzogAAAAAAAAAAAAAAAAAAAxczp8sqlC8nHTEz3W6DF5u4Rn18nw+k5d3LN/T+d6gzYvT6LPTyzV1eFoOrymc7Gj53qGfTyvD6TmW8s3dT53qHuTH6fRe8/umKnp5zLK2RhjdQX7+f0DogAAAAAAAAAAAAAAjRmynYroqOoAADFy+pyym2qw6asV6Megs4fYifLe9TSZeb9TzDk9K3pHyvndznnN+noPntOrpHDzfS805vS3Xny3vU0Gbm/U805HTn0z5XzvZiPcpkWZ7M5sVjDVZWXdDn9A6IAAAAAAAAAAAAAAKrQV2AAADFy+pyymcJG1n8JX5bizHo4pk1QpO/wAScB3OJ6Sze3HXw184l28uI6/Es2kt3znRMemNJ9Bw5eHnb4kyWX2462zg9osonSamb0rhKJd0OfvOkAAAAAAAAAAAAAAAAAAADFy+pyipD0s8iJ3ZfTTn8HG1bxZx+oOX2Kxz8/YEsmkcPszEOP2xm1eDj6OgLOP1By+xWMGXsj3RmGmmHhP2A9Riat/P6B0gAAAAAAAAAAAAAAAAAAAYuV1OORuzWlisWKxYrFisWKxYrFisWKxYrFisWKxYrFisWKxYrFisWKxYrFlMqjT0OX0zpgAAAAAAAAAAAAAAAAAAAAAAAAAAAAAAAAAAAAAAAAAAAAAAAAAAAAAAAAAAAAAAAAAAAAAAAAAAAAAAAAAAAAAAAAAAAAAAAAAAAAAAAAAAAAAAAAAAAAAAAAAAAAAAAAAAAAAAA//EAAL/2gAMAwEAAgADAAAAIQAAAAAAAAAAAAAAAAAAAAAAAAAAAAAAAAAAAAAAAAAAAAAAAAAAAAAAAAAAAAAAAAAAAAAAAAAAAAAAAAAAAAAAAAAAAAAAAAAAAAAFCAADDAAAAAAAAAAAAAAAAAAAAAAAAAAAAAAAAAAAAAIMAEMAAAAAAAAAAAAAAAAAAAAAAAAAAAAPFPPPPPPPPPPPPPPPPPPKOAAAAAAAAAAAAAACAADAAPCACAABAwABBBCDDBBBABKAAAAAAAAAAAAAAIEAMAAAOGJDDHrXpGAbtWXOfcpMBAAAAAAAAAAAAAACCDDAABEGKAABwgABJBCBBiCHpIHAAAAAAAAAAAAAAIMAIAAEHOOMMJeZsIJCkBDmFHNLNAAAAAAAAAAAAAAAAAAAAAKDOMMMMMMMMMMMMMMNDFFAAEGHCKAAAAAAAAAAAAABJDEOMMOMPOMPMNOOOIDGHAAAAAAAAAAAAFPEFKJACEDGMvgABDEMNKjJMHDspDMAAAAAAAAAAAAACBCBDCCALHCpFnPsInvMMNJpmBrHAAAAAAAAAAAAAEMIAEEIABMGJiBAmihGpuDjprAGpMCAAAAAAAAAAAAAAAAAAAAGENCAAAAAAAAAAAAAABOIIAFLBHLAAAAAAAAAAAAAAKOHFPPPPPPPPPPPPPPKDJAAEIIIEAAAAAAAAAAAAAAPPMMAAAAAAAAAAAAAAMMPLAAAAAAAAAAAAAAEMFIAAOADOPPPPPPPPPPPPPPNDANAAAAAAAAAAAAAAAAAAAAKHJGDDDDDDDMNjDDDMDOLFAAAAAAAAAAAAAAAAAAAAPKGAMMMMMMMMMMMMMMAIFPAAAAAAAAAAAAAABDBAAAOFHMMMMMMMMMMMMMMMMLKNAAAAAAAAAAAAAAAIIIAAKACHDDDDDDDIBgAAAALBAEAAAAAAAAAAAAAAAAAAAANOLCAAAAAAEEMMMMMMIHNKAAAAAAAAAAAAAAAAAAAAEIMMMMMMMMMMMMMMMMMMEIAAAAAAAAAAAAAABONAAAAFDKPPPPPPPNO8888/FDKAAAAAAAAAAAAAAAAAAAAAFKFEMMMMMMNOIAAAE8AKFKAAAAAAAAAAAAAAAAAAAAAOPDDDDDDDDDDDDDDDDONFAAAAAAAAAAAAAAAAAAAAAEAKEc88888888888w1AIFAAAAAAAAAAAAAAAAAAAAFGPPLAwwwwwwwwwww9PPJPAAAAAAAAAAAAAAAAAAAAAPAIFAwwwwwwwwwwwyEAPFAAAAAAAAAAAAAABADAAABFPFKAwwwwwwwwwww1KPKHAAAAAAAAAAAAAAEAEAAAPDACFAwwwwwwwwwww4BADOAAAAAAAAAAAAAAAAAAAAKLPPOAwwwwwwwwwww3PPHAAAAAAAAAAAAAAAAAAAAALJAIBAwwwwwwwwwwwyFACCAAAAAAAAAAAAAAAAAAAAPBPFPAwwwwwwwwwww9KPCKAAAAAAAAAAAAAAAAAAAAKLCAEs88888888888wgAHAAAAAAAAAAAAAAABCCBAALIKEMMMOOPNOPMNMMMIFEDAAAAAAAAAAAAAAGIFICAPBCGMMMLLNHLODHMMMJFCPAAAAAAAAAAAAAEEAIMIAKHBBDDDDDDDDDDDDDDCCPFABBBDCCAAAAAAAAAAAAALJGIAAAAAAAAAAAAAAEJGHAEAMIEAAAAAAAAAAAAAAEAAIAAAAAAAAAAAAAAEAANAAAAAAAAAAAAAABAKIAAAHPHDDDDDDCDDDDDDDLPLFAAAAAAAAAAAAAAAAAAAABLNADDDDDDHCEvPPPACOHCAAAAAAAAAAAAAAAAAAAAEEBFDDDDDDHDDDDDDDKAMIAAAAAAAAAAAAAABBDAAAADEODDDDDDDDDDDDDDJIDAAAAAAAAAAAAAAAEEEAAABOCBDDDDDDGDCvPPODABNCAAAAAAAAAAAAAAAAAAAAEIHKPPPPPPPHPPPPPPNLEJAAAAAAAAAAAAAABAAAAAAEMPDDDDDDDDDDDDDDPIIFAAAAAAAAAAAAAAFAGIAADLPHDDDDDDCBDQwwwzLPDHAAAAAAAAAAAAAAAAAAAAOMFNAAAAAABCE8884wMKMNAAAAAAAAAAAAAAAAAAAAKBBAMMMMMMMMMMMMMMAFCFAAAAAAAAAAAAAAADBAAAPCMCDDDDDDDDDDDDDDBMBPAAAAAAAAAAAAAAEAAAAAOPCEMMMMMMJLGsMMJDMBPMAAAAAAAAAAAAAAAAAAAAKBDLPPPPPPLPPPPPPPHOCAAAAAAAAAAAAAABAKKNOAPFMPPPPPPPPPPPPPPPPMLKAAAAAAAAAAAAAAEFLCAAOKPAPPPPPPPONvPPO8APFIAAAAAAAAAAAAAAAIAAAAIMNMMMMMMMICAMMMMwMLIAAAAAAAAAAAAAAAAAAAAAFBACOAMIACGJBAAEANBACLAAAAAAAAAAAAAADADAAAALPHKPINPKN+1PKEPFLPHFAAAAAAAAAAAAAAKMMAAAAOPFPAGOAEKQSAMBALKPNFAAAAAAAAAAAAAAEAMGAAFBMOOACCAILy+AEDANMMCPAAAAAAAAAAAAAABPKPAAALACBMIHMLNLHMKEMCBAHFAAAAAAAAAAAAAAAAAAAAAOPFMAIJAGHOBAGEANKPNFAAAAAAAAAAAAAAAAAAAAFAGPCABGAOGIFANKABPPAKAAAAAAAAAAAAAAAAAAAAACOFJMCGMEAlqMMJMCKOFAAAAAAAAAAAAAAAABACAAKOAIEMNFPLNeVPLEPIEANAAAAAAAAAAAAAAAFALOAAPBAKGADEDMJ2+DJJDKFACKAAAAAAAAAAAAAAEMAEAAKEPHIPCMPMGIsPNDPELPIFAAAAAAAAAAAAAAELKBAALPPNFAJAAGDGDABEALOPPHAAAAAAAAAAAAAAAAAAAAPJBKMMJBMHAABMGOMMFCGPAAAAAAAAAAAAAAAAAAAAKFIBACCJBGGJDCHLBMCEKFAAAAAAAAAAAAAAABBAAALPGDGKKGEOPPNJIFFJDFHHAAAAAAAAAAAAAAAANAAAPIMEIJCKEOAANIFBOEIMEOAAAAAAAAAAAAAAAAAAAAKFFJCKIPKOEINFLEFBGLKAAAAAAAAAAAAAAAAAAAAABCCHLKONDPAAPDONFHLCBCAAAAAAAAAAAAAAANFAAAEPACFKJEDKNOFDICFKBAPIAAAAAAAAAAAAAAAAAAAAAAONPCLJGFJGKJGHBPONEBAAAAAAAAAAAAAAAAAAAABFLDHLDPLDPLHHPDHLDHLHAAAAAAAAAAAAAAAAAAAAGMMMMMMMMMMMMMMMMMMMMNAAAAAAAAAAAAAAAAAAAAAAAAAAAAAAAAAAAAAAAAAAAAAAAAAAAAAAAAAAAAAAAAAAAAAAAAAAAAAAAAAAAAAAAAAAAAAAAAAAAAAAAAAAAAAAAAAAAAAAAAAAAAAAAAAAAAAAAAP/EAAL/2gAMAwEAAgADAAAAEPPPPPPPPPPPPPPPPPPPPPPPPPPPPPPPPPPPPPPPPPPPPPPPPPPPPPPPPPPPPPPPPPPPPPPPPPPPPPPPPPPPPPPPPPPPPPPPPPPPPPPNOMLNFPPPPPPPPPPPPPPPPPPPPPPPPPPPPPPPPPPPPPPPPLPPPPPPPPPPPPPPPPPPPPPPPPPPPPPNFPPPPPPPPPPPPPPPPPPKOPPPPPPPPPPPPPPPPPMPPENMPPPPvPPPONMNOMNPMKIPPPPPPPPPPPPPPJDFFPPOIHBDDC7DBDBlXii+girBJPPPPPPPPPPPPPPPOMPPPLJONPPKtfPPF8fee/d2tGHPPPPPPPPPPPPPPPDDDPPPHNPPPO3fPOOYPcSEb0OLOPPPPPPPPPPPPPPPPPPPPMJOGMMMMMMMMMMMMMMJJGIPOGJODFPPPPPPPPPPOPPBCIADABCBAABCCDDBBAEBCPPLPHPPPPPPPBBFHHOINBHDFPy3d1S6wbaVX966DLDPPPPPPPPPPPPOOMMOONPEJPBrd/pBhzDiSmvJzSvGNPPPPPPPPPPPPLHPPLDHHBCAPgjREBAWNOgAJNTvgBHPPPPPPPPPPPPPPPPPPPPDMGHPPPPPPPPPPPPPPPBMGPPAMNGHPPPPPPPPPPPPPOOCHPPPPPPPPPPPPPPLLJIPLLDDLHPPPPPPPPPPPPPPMFFAAAAAAAAAAAAAAKGILPPPPPPPPPPPPPPLGEHPPJMMMMMMMMMMOMPPPOMMMMHPPPPPPPPPPPPPPPPPPPPEGPPPPPPPPPPO8888/NHJNPPPPPPPPPPPPPPPPPPPPFIGJMMMMMMMMMMMMMMGIEKPPPPPPPPPPPPPPOOOPPPBOLDPPPPPPPPPPPPPPHPNCPPPPPPPPPPPPPPLHLPPPAEACAAAAAAFDCzzz2zDAIBPPPPPPPPPPPPPPPPPPPPHNDOMMMMMMMIAAAAAAMDPPPPPPPPPPPPPPPPPPPPPPLGEGMMMMMMMMMMMMMMJIJHPPPPPPPPPPPPPPOBFPPPKAMJMMMMMMNONsMMNcGMEAPPPPPPPPPPPPPPPPPPPPPKBJDDDDDDHMMMMMMsMCFKPPPPPPPPPPPPPPPPPPPPFBMGMMMMMMMMMMMMMMJNCPPPPPPPPPPPPPPPPPPPPPAPMMIPvvvvvvvvvvvmcMOFPPPPPPPPPPPPPPPPPPPPEHMEMv/8A/wD/AP8A/wD/AP8A/wDRgws088888888888888888888UQwYn/8A/wD/AP8A/wD/AP8A/wD/ABkwgo88888888888888008888E4wQn/AP8A/wD/AP8A/wD/AP8A/wDZgw0I88888888888888M8cc884IwYi/8A/wD/AP8A/wD/AP8A/wD9GTASTzzzzzzzzzzzzzzzzzzzzyDDDP8A/wD/AP8A/wD/AP8A/wD/APnDADzzzzzzzzzzzzzzzzzzzzywjBjP/wD/AP8A/wD/AP8A/wD/AP0YMFHPPPPPPPPPPPPPPPPPPPPGAMONv/8A/wD/AP8A/wD/AP8A/wDx0wAg88888888888888888888QgwQxyyyyyyyyyyyySg0Qg888888888888884w4088EMYEMMMAAAEIAAAMMMIkMM8888888888888s40kkU8QgggAAAUckscY8oAAAUAQ088888888888888c88M88QIMEMMMMMMMMMMMMMMIMU0888o8088888888888888Ec0c88888888888888s4sI888s8sc88888888888888wMM88888888888888MMwo88888888888888osAU884YMIMMMMMMMEMMMMMMEMkg88888888888888888888s0ww8888884MLPPPLM4w4c8888888888888888888800IIMMMMMMMMMMMMMMEMo4888888888888884w4888QMA0wwwwwwwwwwwwwwogMg88888888888888s8M888Ekw0wwwwww0wj/8A/wCvDDBgjzzzzzzzzzzzzzzzzzzzwQggQAAAAAAAAAAAAAAggQzzzzzzzzzzzzzzzzzzzzxCTyAAAAAAAAAAAAAABDxjTzzzzzzzzzzzzzzxhRTzwywxwwwwwwwwQkIIIYywwxzzzzzzzzzzzzzzzzzzzzywzxwAAAAABAQ40010wTgxjzzzzzzzzzzzzzzzzzzzzjQSgwwwwwwwwwwwwwxRDiDzzzzzzzzzzzzzyjwjzzzxjBwAAAAAAAAAAAAACzCSjzzzzzzzzzzzzzzyxzzzwTTyQwwwwwwhDfPPPPADzgzzzzzzzzzzzzzzzzzzzzwDhDzDDDDDCDDDDDDDDxTRTzzzzzzzzzzzzywSxyADxRDzTDDDDDDDDDDDDDDiyTzzzzzzzzzzzzzzyzQjTzwTAzQAAAAAAAQk8884zgzQjzzzzzzzzzzzzzzwxzzzwhxDzDDDDDDAgIAABEAzTwDzzzzzzzzzzzzzzzzzzzzxQizAxggwwQyQxQQwBwiizzzzzzzzzzzzzzzTjTDzzygCDTwhzwwduTzyTwBABTzzzzzzzzzzzzzzxiyyzzyhTxwQBjQCwFVQCgwBCzyhTzzzzzzzzzzzzzzxzSTzzRTBhzCwTDgdtTBzzACDCijzzzzzzzzzzzzzxjjzTzxSjzQzxhTyRiTDyizwjjxSjzzzzzzzzzzzzzzzzzzzwBAAhQyjwzCwjgyjwzwQCADzzzzzzzzzzzzzzzzzzzxDwxgzxjjyxSzzzCzxyRTzTzzzzzzzzzzzzzzzzzzzxQyQwzzwwyg4pwxhzxQwRzzzzzzzzzzzzzzzzTjjDzygACDzzwDAyVkTARTABQAADzzzzzzzzzzzzzxQBRzzzjgwwABTAwQ8ugzQAxwwzSDzzzzzzzzzzzzzxQyjTzzxQAAwyxQwTiaAyhQxgACjzzzzzzzzzzzzzzzzjxjzyyTzTAyzAyhShwyTQzTjxhzzzzzzzzzzzzzzzzzzzzxBgwgDBCzCAxzDBijAQQyTTzzzzzzzzzzzzzzzzzzzxRTTgTRTDRRTwjiCjjiSiijzzzzzzzzzzzzzzzjjzzwThRjBQyCzDTjBgQyDCBhQjzzzzzzzzzzzzzzwTTzzxBjDDSQxjTyBDziQzjjDCSTzzzzzzzzzzzzzzzzzzzxDCDiCyxAATSghDDxRDQTDTzzzzzzzzzzzzzzzzzzzyxjRTyTxiBRiShCTxjyjSRzzzzzzzzzzzzzzzwSzzzzzAyxhCSzRyhSzhwgCRwzCjzzzzzzzzzzzzzzwwzzzzjgAwyTQDhwQizQDhQwwCSTzzzzzzzzzzzzzzzzzzzyxwwwyzwwxywzwwzwwwyyhzzzzzzzzzzzzzzzzzzzzzTTzzzzzzzzzzzzzzzzzzjjzzzzzzzzzzzzzzzzzzzxzzzzzzzzzzzzzzzzzzzzzzzzzzzzzzzzzzzzzzzzzzzzzzzzzzzzzzzzzzzzzzzzzzzzzzzzzzzzzzzzzzzzzzzzzzzzzzzzzzzzzzzzzzzzzzzzzzzz/xABCEQABAwEDBgoHBgYDAQAAAAABAgMRAAQSIRQiMTNRkRMVJDJQUlNhcXIjNEBBVGDhBTBCQ4GiEGNwgKHRIESx8P/aAAgBAgEBPwD+sTrrbTa3HFBKUiVHYBSFJWlKkmQoAg7QeibYSLI+QVA3DilN4/oPfTMllqSSbg0iDo94pRISSEk9w/i4y0pFoBYUoLMqE8/AaMaCEcKFcGZuRe7p0U2wylphIYUkIXKUzzTjicaUwyU2kFhRC+eJ5+Huxrg0ZQF8Gb3Bxf8AdE6KDDNxgcAqELlInmnacacZaUi0AsKIWc4Tz8BoxoCABHtz7im2XFpReKUkhMxP6mkKKkJURBIBImY/4LtDSEuqN+GzCoQo7oGP6VwqL4RjJTe0GI8aRaWloaWL8OKhMoUDPeCJGj30bS0A8c/0XOzFf4wx/SuFRwoazrxTe5piNGnRWUtXWlZ8OKupzFae8Rh4mlWhpCXVG/DZzoQo7oGP6UDIB9utTanbM82lKFFSCAF80+MU0koabSQkEJAhOgRspV4pN0gH3EiR/Eh2FwtIP4ZTMeOONQu9pERojGaAduplaSZziEkAjuE4VDsLz0483N0eOONQu/N4XY0RjPjUOwnPTM52bpHdjhRDsLhaQfwymY8ccfnBV26q9ojGkhn0UEaMzHSKAYuqxEX8cfxTQ4PhFQRfgSJpy5cN8gJ98mKhvhSZF+7onGKAYhqCI/BjSLkrukc7O8acDeZfIGcLsmMaUGYdkiPx40A3eTBE3cMfdTQbCBwZBTjoM0bl9EkXsbtAMXTChF/b+Kahm85iJgX8fdSbt1N3RGHtaiACToigpBuQDiM3NP8A8Kvt3Sbpi9HNOmaCk31AAyAJMH/2llISSRI8Jq8nhLsG9dmYOjxoLbhvNOPNzTh/qklJvQNBg4RS1JF2QTKgBgTjRWgByQcOdmkz/ugpN5IgyUyMDoptSVJBSCB3gj/BolIUkEGTMYUFt3ZumL0c06avIvLEGQMc00kgpBGiPayYBMT3UFKNzMUJGOjN8avqgnglc6Iw36aCjeIuEAfiwg0okJJCSruH1q8b924Yib2EeFX1Qj0SsdOjN8caBJmUkQd9KURdhBVJgxGHeZorUL/o1GNGjO8MaCjIFw4iZww7qQoqTJQUnYYn/E0SbwF0kH34QKvqieCVzojDfpq8qVC4rAYHDHwoGQDEd39THmuFRdvFOOkVkP8APc31kP8APc31kP8APc301ZeDWFcKs9x+ennFNolLZWZ0Csrf+EXWVv8Awi6yt/4RdNWh1awlVnUkbT89EgaTV9HWG+r6OsN9X0dYb6CknQodDOtIdTdWMJmsgs3VO+sgs3VO+sgs3VO+m7Iw2sKSDI7/AJIZALzYIwKhWS2fsk1ktn7JNZLZ+yTWS2fsk1ktn7JNZLZ+yTWS2fsk1ktn7JNZLZ+yTWS2fsk1ktn7JNZLZ+yTVoSEvuACAD7axr2vOPvbV6w75vbWNe15x97avWHfN7axr2vOPvbV6w75vbWNe15x97avWHfN7axr2vOPvbV6w75vbWNe15x97avWHfN7axr2vOPvbV6w75vbUKKFJUNIM1xi/sRurjF/YjdXGL+xG6uMX9iN1cYv7Ebq4xf2I3Vxi/sRurjF/YjdXGL+xG6uMX9iN1cYv7Ebq4xf2I3U4srWpZ0k/wBkLzZcRdCynHSKyNz4pysjc+KcrI3PinKasy0LCi+tXcfnp5wtovBBVjoFZY58M5WWOfDOVljnwzlNWlbiwksLT3n57kbakbakbakdDOsodTdVMTNcX2fYrfXF9n2K31xfZ9it9NWNlpYWmZHz08p1KJbQFKnQa4W39gnfXC2/sE764W39gnfTTlrKwHGkpTtn56WtCBKlACsps/ao31lNn7VG+sps/ao30l9lZhLiSdgPQy20OCFpkVkln7IVkln7IVkln7IUizsoUFJQAehAzbIHKhrrxzBzOp9a4G2QeVDXXhmDmdT69EiyCByl7X8Jz/2+Xuo2QQeUv4v8Jz/2+Xu6JDf2VCYLcZVIzvzv90W/sqFSW4yqTnfnf76JFpscD0RxtFwejOs2/WjabHB9EfWLh9GdZt+vRItL8DkjmuuaRzev4UbS/B5I5rrmkc3r+HRIVb4Ets66DnHV7fNRVb4MNs66BnHV7fN0SGrbA5UnXXjmDV9T60WrbB5UnXXhmDV9T69EiyYDlL+D3Cc79nlo2TA8pfxe4Tnfs8vRIa+yoTCm4yq8M/8AO36aLX2VCpU3GVXjn/nb9PRItFhgei/7FwejOs2/WjaLDB9FotFw+jOs2/XokWp6ByRzXXPdzev4UbU9B5I5rrnu5vX8OiQq3wJaa10HOOr2+NFVvg+ia10DOOr2+PRIatsDlKddeOZ+X1frRatsHlKddeGZ+X1fr0TkZgcpfwe4Tnfs8tGxmDyl/F7hOd+zy/3x/wD/xABFEQABAgMCBgsOBQUBAAAAAAABAgQAAxEFIRIUMTRSkhMVFiMzUFNVYXKRBiIwMkBBUVRgc6Kx0dIQIENx4URwgIGhJP/aAAgBAwEBPwD+8U6dKkSlzZqwlCEkqUfMBCFomIStBBSoAg+kHil+SGTkgrBEtVClOGrJ5knLDckyJJJJOAmpIwTk84835ATUXx5oJNTfFTdfFbssVNTfAJuv8vczVypE2YiXhqSgkJqE1I6TEtSly0KUnBJSCRWtCfyUN0Uihvihu6YpdWKG+KG7p8veyVTmk+UlMtRWggJX4pJ9NIkIMuTKQQkFKACE+KKDzdH5Lvwui78Lou9sb74vi+kCL6Rff+ArF90Xwa/hfF/sR/v+7Noscdb7Ds8yV3wVhINDdG5c87PNeNy552ea8blzzs814YWEWblE/H3M2gPeLVUGo9urRdz2jfZJLRbhWEBgIy0PnyGN0FqcwOe0/bG6C1OYHPaftjdBanMDntP2wwtd85colTbInyEEGsxRNBQfsPbpa0IFVKCR6SaRjLflpesIxlvy0vWEYy35aXrCEzpKzRM1BPoBB4mfMGz+RsLhJUjCCqAkXiNydicgvXVG5OxOQXrqjcnYnIL11Qy7n7MZOEz5EpQWkEAlROX2IcqKW85QNCEKI7Ix55y64x55y64x55y64x55y64x55y64x55y64x55y64x55y64x55y64x55y64x55y64x55y64ZrUtrJUo1JTefLXWaz/dq+XhWGZyOp5a6zWf7tXy8KwzOR1PLXWaz/dq+XhWGZyOp5a6zWf7tXy8KwzOR1PLXWaz/AHavl4VhmcjqeWus1n+7V8vCsMzkdTy11ms/3avl4VhmcjqeWzECYhaDkUCD/uNpmulM7RG0zXSmdojaZrpTO0RtM10pnaI2ma6UztEbTNdKZ2iNpmulM7RG0zXSmdojaZrpTO0RtM10pnaI2ma6UztEbTNdKZ2iJUpMqWiWmtEigr/hDaLOY8b7Eh1MkHCBw0ZY3Nu+fHmsfrG5t3z481j9Y3Nu+fHmsfrDCxXDRyicu1HM4AHe1k0NR7dWi8mM2+yobTJ5wgMBGW/zxukd8xvNU/SN0jvmN5qn6Rukd8xvNU/SGFtOHblEldluZIIPfrBoKD26JAymMNGkO2MNGkO2MNGkO2ApJyKHE1oWe3tCRsE8KwMIKuNDURuPsb0TdeNx9jeibrxuPsb0TdeGPc5ZrFyhxJEzDSCBVVReKe3VozX8pvhMpCZ03CAwVGgp2iMf7q+aZGuPujH+6vmmRrj7ox/ur5pka4+6GDu35jlCXdnypUkg1WFAn5n26cOW7ZGyT5qJaK0wlGgrG3Vkevt9cRt1ZHr7fXEbdWR6+31xEi07PcTBLku5K1nIlKgTxM5aN3UvY58pK0VrQ+kRtBY3qMqNoLG9RlRtBY3qMqG9kWa2mibJaoQsVoodPEgkP6Cr0Zxhnexweh/MGQ/oaPRnGGN7HB6H88UhiAAMbcXONl8f4Or0QWIooY24vcbL4/wdXo4pEqxKJoqTTHCod/8A1H16IMqxKKqqTTHAo9//AFH16OKQ7s+iaSTe6Msb0eF0sn/YLuz6K3k50JZ3o8LpZPi4pDxxQHEZt7jY8qbk8p+0F44of/DNucbHlTenlP24pC7ToKypGcUPfHgvT1oK7ToaSpFcYoO+PBenrcUiRaFBV4nOMI72OC0P5gyLQoaPE5xhDexwWh/PFIY3AY44ucbL4/wdXogsbiMccXuNl8f4Or0cUiTYtE0VKpjhUO//AF+3L0QZNi0VVUqmOBR7/wDX7cvRxSHdnUTSTldmWN6PC6WT4oLuzqKrJyOxLO9HhdLJ/wB4pDyfQHEZ17jY8ouTymXJBeT6E4jOucbHlF6eUy5OKQu06CsmRXGKHvzwWl1oK7ToaSZGcUHfngtLrcUiTaFBV4jOMI73+loZcvTBk2hQ0eIzjCG9/paGXL08UhgoADHHNzjZfG+Dq9EFgogjHHN7jZfG+Dq9H+cf/8QATxAAAAQDAQcOCwgCAwEBAAIDAAECAwQREhMUITFTVJGSBRAiMjNBUVJxgqKxwdEVIyREYXJzg6Gy4TRAQlBiY4GTIGRDwvCEMGCA8dJw/9oACAEBAAE/Av8A+ujjzbRTWqQafadnQqcv8jjoUjMjcwYQlSVERpOZazjiW01Kwf8A8Kim63GaXCS4mZpnvhx9bd01NoJ4m51J3w3bktBlXI0nVUojn6SDdqiFZiDdWrZEar+8HX3ZOupUqSnSQmXAFHENoiNulNn+JUzIxDINLSZrNRnfMzDTkQhEUpDKVETq98FS3DQ7ZLUo3FT2F6e+ExDxNvoqMpPJThmaSMRKLJl0rZS76TpO+eEQSzcNxazOucqOL/8Awl1hp4irTOWANwrDZKkjbYfSEQcOhVSUXwTLZNWdOxlKQKHZJqyoKjgCYOHSlZEjbYQRSKQQ0hFVJYTmYODhzQSKLxHMvQCg4YqvFlfKRhMHDpSZEjDh/gWTZOWktlKX/wDw2MUtLaaVGmbiSmXpMWb2VO9HuHj7ei6nZUT/AA8PILN7Knej3Czeyp3o9ws3sqd6PcLN7Knej3Czeyp3o9ws3sqd6PcLN7Knej3Czeyp3o9ws3sqd6PcLN7Knej3Czeyp3o9ws3sqd6PcLN7Knej3Czeyp3o9ws3sqd6PcLN7Knej3Czeyp3o9ws3sqd6PcLN7Knej3Czeyp3o9ws3sqd6PcLN7Knej3Czeyp3o9ws3sqd6PcLN7Knej3Czeyp3o9ws3sqd6PcLN7Knej3Czeyp3o9ws3sqd6PcLN7Knej3Czeyp3o9ws3sqd6PcLN7Knej3Czeyp3o9ws3sqd6PcLN7Knej3Czeyp3o9wXbk60m6ndlVxd7+BZvZU70e4QinKn0qcNVKilPk9H5THbRr2yOvW87P2Pb+TufaIbn9WtCbrFeun5S/KY7c2vbI69bzs/Y9oqLhIVFwkKi4SFRcJCouEhUXCQqLhIVFwkKi4SFRcJCouEhUXCQqLhIVFwkKi4SFRcJCouEhUXCQqLhIVFwkKi4SFRcJCouEhUXCQqLhIVFwkKi4SFRcJCouEhUXCQqLhIVFwkKi4SFRcJCouEhUXCQqLhIVFwkHDK6Ifn9WtCbrFeun5S++vxKGKKiUdRyKRTCIslzk05e4Sl/i68lokme+ok5wy6l0lS/Co05v8Y7c2vbI69ZTba4vZoSrxW+U98Ow8OT0P4lH4vwlwB1EOikkwzZqUd4pEG0NV2bkM0RymUiKRhbEPdDHiW8C/wkLnhsQ3okLnhsQ3okLnhsQ3okLnhsQ3okLnhsQ3okLnhsQ3okIiwaoJMM0alfpIQ6YZ1E7nbIyOR7Ehc8NiG9Ehc8NiG9Ehc8NiG9Ehc8NiG9Ehc8NiG9Ehc8NiG9EhYQ2Ib0SBOsHZkaIQlLIpJlwhTjSE1ONwidkadrwA1NlObcISaCVVLhCTQqg0tQhpUR7KXACdZWhSm24RVMp7HhFbJqUhKYM1EU5SBusJNBLTCJUoiOVPCFONIqtG4RMlSwAzQms1NQhJSSTqlxgS2lEhSW4Q0qMynLBIpgltKIzbbhFSURHJPCcgS2FO2RJg6+CkE6x4uaIQlLK8mQUtpCZuNwidkadrwBlLK1yNlgyoJRGlIsIe6pWLe5cUuEOIars24Vo1SmcyKRBpEOupKoZslJwlIg1Dw5vRHiUfh/CXADaaREw9DaU7bAUt7WhN1ivXT8pffY6u1hKDKqvf5BElFFDO2qkHwUlIEjxkc6UzWja5gw3UcOdTZGor+yM1K5QSlSRf8AsuHPLqBqSZNzTO2dUopnJMvSG3JoNEy2MWiRFwCA2r/t1f4x25te2R163nZ+x7REbrD8quoP/hXWSTTvmGVWi7Q3EmZFIiLeC1eUMcixUKhUKhUKhHKmTab189se8INficBXjMr2+KhUFRaEzvKvHKcgh8lmopGRlwlIVCoVBptvYqMjmokf8cz2PAYNTatkpGBbm3RUV9QWhCqESVJCUHtL14z3uAbG8gkqkonMCJFf4BNtKVqSneIti3TvhtttrARzTUe57K/whRNrK+m+tCcLczwSvBRIW6t1STvKMpKRMr42MjQaVSSlvCi9sZ4SCiQaKCSclrPaokW1leCaG07FO+2WxRLAoIJsnSOm+SzVueyzhttuRKMjmtKMLcz2JbwNSFbJSMC3Nsior5iFkTlJEd5ot6W+Yq8q912h9Vmu0JxJHKRke+GPxLrJRq3yEPusRyp6g59oh+f1a0JusV66flL76aUmZGZYMANJKKRlMgSUlORYcIJllKqibSR8Is29lsS2WH0g2WlJJJoIyLAQsGcNBf8A+ASUpnIv8Y7c2vbI69bzs/Zdoi90h+VXUHz2TSjKaSO+ELJb9aMFN8+ELPx7PIoVCoVCoVCoRZ3kke0/EYhlKsr/AA3uQVCoRCCdWolOyTWexqlf4d8Qy5qXsqtigjP0ioVCoJTNTazfLYkmnZYOHeDxNPpIjcKRLWcqpYT5DDmySSLctoklHPCV+8EGltCEE8V4lyOc5TDSWmEuUuFI5Xqp7/IQbSSHFOKfI1GSp7LD8A4hDikLtimSU07KUpfwHyS+pXjSoqO9VLvCzStCkG8V9DZGc8MsITJtom0PFtjp2U5bEMkhlKvGkc1IPbTvzvmEJbTE21sU6jnst7MCTUbazfLYkmnZSp4d4PE0+UjcKVazlVLCfIYhVbIirqk0RT/kT8p932hayQ/WvBTePgDB7J1RFJJne7xCbpEcqeoOfaIfn9WtCbrFeun5S/KY7c2vbI69bzs/Zdoi0KW5DkkyI5qw8gOHfIpm61mMJZeWU0vtGXoIwuHiLdkrRvAreMXLE4xvMYuWJxjeYxcsTjG8xi5YnGN5jFyxOMbzGLlicY3mMKYeQU1PNEXpIwUO+ZTJ1rMYuWJxjeYxcsTjG8xi5onGN5jFzROMbzGLlicY3mMXLE4xvMYuaJxjeYxP/ch//fyJllkP/wC/kTLLIf8A9/ImWWQ//v5EyyyH/wDfyJ/7kP8A+/kT/wByH/8AfyJllkP/AO/kTLLIf/38iZZZD/8Av5EyyyH/APfyJ/7kP/7+RMssh/8A38iZZZD/APv5CELcnREMq5P/APIueIuiVo3ufAfCFMvIKan2iL0kYKHfMpk61mMQiFIciCUZGc04OQOfaIfn9WtCbrFeun5S++6oqIlQ1S1JSa78jkKoVLTqmnFuSK+RqMFFuWrxWZUN7ZU/QEaoqNTd5vZ4CJV8uUXefk2w2+2/TvA4xySjJKJWhpI1HIrwXFWzSME0xKEnI7wgTM0v3/8AmV/jHbm17ZHXredn7IusP7tD8quoRRlUyaym2StkG1IVE1NYKNkZYD4As/KGORYqFQqFQqFQj8DauA9rwiCvMYcJmfIKhUKhUKhUKg2/FzbkuSEEiSadtMg6p+RJbds9m6ZnTP8AEHH4mSDTt1IQSlU4L53whx+lJqVUtKXZHKU7wSqIpcS49aFIjnTKWyDT0WtRm4u8olkaKZSkWEOORRU0PUklCZIonVeDzkTarQ2ugjWozVTMKdfoUZHStSGpnLBhFrEpaIzVaLQtVJ0ynsA05EGkydcr2TR7WUtlgDbkVdJGbuxNZlZ0YCCH4vYUrpQhKJJp20yDqn9q27Z+McM1Uz3xDLWayNe2sSnvb5iflXuu0OKbTE1O4KNiZ4C4RDGVTxoKTZneDG7RHKnqDn2iH5/VrQm6xXrp+UvvrzFo4wqe0VMRDNqypBSKYTCfaSUd53uDMM+hSCNaKE8Cb5i4D8o2e32n6d8HALoh6VpqbnhK8cwnU9wjV4wjm6leDfIQ7JtE5M9s4as/+MdubXtkdet52fsi6xFbrD8quoOuLmhCTkat8IWtDhNqVURlMj5As/Hs8ihUKhUKhUKhFnuZlt78iEKZWWG/Uc+UVCoRL6yWpKKjXWf4jIpZxDLvrkapGlBlM54RUKhUEvmSmUJJdJEms6z3+C+HlLbSRNEo1Gtf4zwEfKFukkiWVpUttJEVZ4Tn6QhU0trXXNJLqKs97+Q2txxDhOkojvGWzPh5Qh+1cWUl2ZpOk6zwl/IcdW2pskEs0ElNezP4Xw84bZrQ0SzWaz/GcpZwtUkrcRXM0N0lWe//ACEueKQt0l1IWdREs+LO9fDS1OpVWSy2aDLZngNXKEOrVFUmS7IzMiOs59YS+ZGyhJLpSSbTZnv8F8PKW2mTVRqNxf4zwEfKIVU11X77RTmc98T8p932ha1rcs0qpIkzM5BpxU1oUczTviF3WI5U9Qc+0Q/P6taE3WK9dPyl+Ux25te2R163nZ+y7RHKJKoczPfV1BbjCyKbmDAZGELZSdVrUfCYVENWzWzLAoXS1xyF0tcchdLXHIXS1xyF0tcchdLXHIOOMLl42RlgMNusITInCF0tcchdLXHIGbUzO3wnPARhtxpBqO2nOXwF0tcchdLXHIXQ1xyBWRERXRg9CR4vKN8zwJ3x4uc7o3pYEjxcy8pwegt8HZGUro+CRNvKPgkeLveUfBI8Vf8AKMJzwJHi5n5ThlvFvDxd7yjB6EjxeUb5byd4TbnO6PgnuBWRERXRg9CR4vKN+eBO+ELaSqdtO9Le7BdDVvOstp2ha2VHVa0q4SCHGET8ZhwmIFRKVEGR76eoOfaIfn9WtCbrFeun5S/KY7c2vbI69bzs/Zdod3eH53UHnlkaEIlUrh3gh11Ltm4ojmUyPBgC1eUMcixUKhUKhUKhUKhUKhUKhUKhUKhUKhUKhUKhUKhUKhUKhUKhV5X7rtC3XVO2baiKSZmeEMvLNS0LlUng35hrd4jm9Qc+0Q/P6taE3WK9dPyl/hEvmzRS3WalSIpyCY2ZuoU0aVpRVIIimzZbcWokVFO+YtG72zK/gDsUlKEKRJRKWSc4qSajTMplvByJMnbJtqtUpnfkDjJJQdkZGblBkYtWq6K01cEwiIZW6tolFUn75Hbm37ZHXredn7LtERusPyq6hEGilJqUaTI9iZYZhhSTWZmtRrlvlKRBavKGeRYqFQqFQqFQqFQqFQqFQqFQqFQqFQqFQqFQqFQqFQqFQqFQn5V7rtEQpJLJRLUS5bxTmQhzRJRkozMz2RnhmIfdYjlT1Bz7RD8/q1oTdYr10/KX+GqNMoepRpK0vmXIEUWjtipS0qaOpSgTkrmSZJT4gtkaap+ghDFXcSFltVrIyMPJV49KL3lSJCA2JLbUXjCPZHxvSIm5jf8AGVtqIryy3xW6tDdRmoiiSpVLCQMkFDvtqT4+0OV6/hvBilMY8SryjJMvvkdubftkdet52fsu0Re6Q/KrqDtVTayKdJ4Ak1LdJdJpIkyv78wtXj2eRQqFQqFQqFQqFQqFQqFQqFQqFQqFQqFQqFQqFQqFQqFQqFQq8p932hRqQ7XSaiNMr28GqqnFmUqt4Qm6RHKnqDn2iH5/VrQm6xXrp+UvyCZTlrTLh1yOesRkeDWjtzb9sjr1vOz9l2iKbtHIdNRpvqvlyBcOltM1xSiLkINsocnTFLvYSkU+oLhPHslbrwK3iDra0LWRPXkkRmpRknD/AACS8dFLpGSjkRkst7miTsppdSrZEm8ssJ3uKCQ6azbJ9FfFrKfyhJOmTfjUkay2JGsp/KDJ0k1LdSkqjTfWRYOaGmXFLNKnTLYkojKR4f4FxnlC8xAyWV+2IirNJVKIpyOXFBpeTaVOEkknIzNRb/NFD50ScIyURmR1FK9zQROmSTS6SiNVN5ZYdESc2ZE8kzSRzIllO9zQSXTNCbZNSimSayn8oZhzcbJVusvRe7g9Dm22ardZ+i93Ch20s7dFfFrKfygrWSDN1JVYCNZf/wCoMnUko1OkkiVTfWX/APqKH5l4wpUVTqKUtEEl5VnS4SiUciMlFvc0bOlwyeSqgpqksj/6i4zyheYg8wtBoJLyjNU8MiwfwJOmU0upVsiTeWWE+aCS6azQT6DUWEqyn8oSTp2fjUkaymRGsp/KPGEmpbyUlUZX1kWDmih8jVNwiIkkqdRSkfNDTa1rQRvXlEZkpJkrB/AuTymVuvc+AuEOMoblVFLv4CkU+oIh0uFNMUoy5CEK3ZuRCajVfTfPkDn2iH5/VrQe6xXrp+UvvUIqwQlJnsHUnL0K4A1FKQzCtJOU25mdNQN6JdJjZUnbSnTh9IXGPpblerJxRK9VIXGPWhkiUjWlCeUymYeiohlL6TNJqSglJOXCHn1MPMOPGRnQrB6d4MWlmRuGRmfAFs0OPG7Dm6kzmSywkQKKsy2KqkWNSJ4bwup80NpOVeztOaGnXrVlVZEkoaqmQaXGLShwzRQssHAIdx9qGhVTTQaqZcp60dubftkdet52fsu0P7tD87qD9VTS6TUSTvkEKNx8nCSZJJMr96YWflDHIsRLdotwjbUaTowS/DMXPJuzJpyk1GZ3i30y4Q2xYkdDLl80bxFtTnwhEOlDxO2Lk6jVgTv/AMhMGUyUppyqSd5P4eC+HGbXbsrvKWeAj2x8ohUmhUqFEkmyTflwioOQZOOKUttf4iwEZX1T4Q41akpKmXJVkZXiPAmXCFQ02iasnadlO8W/L0hpqxlQy5uhGd4iwfyEQqWzqSy5OkywFvlyhEKknCcsnKqiVgTvfyIeaWUkZSO/1iImplREUzvdYudNva2Lk66sCe8XGStktpyqXAn4Xw41bTrZc3QzK8R4f5CoapCGrJ2gi4C4Z8IbasiSlLLkqzM7xFhTLhCYUm0roZXM2zTgIsP8ioRrZupSmSjK/OWG+QbZsdoy5tkHgItqfKEQyUOk4TLkyMzwJ3/5CIMqkrU05Vsd5P4f5C2LWVbK7xr3iPbHPhC4askINp2lKUSvF+Gfp9Ihm7NbZE2oklXhl+KQn5V7rtC1G2/aGkzSaJXr8gxOt1yRpJRlIu0MbtEc3qDn2iH5/VrQe6xXrp+UvvVxoOGsDO9wgoFKUNUuKJSE0koHCTbQm1VUlVVQuNFst0z2yZSCYFtLBNVK21VW/MHApUlytxSlLKRq5AqGQtxCz3kmmXKGGbFFFRmW8LjUVVEQtKT3sIVANGhlJGZE2ecFBoJ15yZ7MpcgTBJSbRks9gig/SQRB0Gnxq6U7VPALkTYNNVHsFEebWjtzb9sjr1vOz9l2iJ3WH5VdQeWqptBKMqjvmEGbbxIJRmk0zv35BZ+PZ5FB95SVOHU5eJMkp4TF0HQSzceSVR1Ecp4J8AREKcI5LeSdSdtLAZy4AmIqeoqiJTkSr0uoJi9oRrfM5FUZEUin/AW+tstu+s61FJMsBHyCHdNStuoyNBHshUFxdKjKp4zmq8mV4pyC3lIrO0eVsiJJFKd8p8AunYpWbryU7KojlO9/AQ8tyWzeSdZEZKlv/wExJrNREp8rx0qOUjl/ATFTcSit/eI1XpEeYMLM2kzOZ3+sPrMmlSOR3usXR4+zqiJVU13pTzC65Uka3zP8UiKRfALeW3PZvKOsyIky3v4BxMiSs3XpGnBenOcuAIeUug7R5OyMlEcp3inwAopSkuSU+kyQak1Skcv4FQinqKDrNKb85BD6nCvLeSdaS2UsBnyBMQanKKogsMlXpHL+AmLvoTW+e1qMpSIz/gLfWgi2T6zNSryZYCOXAFRNOytXjI0ppK9OZz9AYeUpTZ1OXyVNKuEhPyn3faFmbj1BqMkkmd69MMrMlOIqmSTvGIbdYjlT1Bz7RD87q1oPdYr10/KX5THbm37ZHXredn7LtEbOuHkRnfVgv7wXNZSUw4fNMITRgYd5aTClLtmvFOYFfhDs6zmkymRXlI4BLBglPBZ/wAcIlwSLBgb4P5GA5yTP2f1BJlK8nev2fB/Iv78jvmd9vh/kM1EozpUexlJKBUvEu6Jg07I5pLCeFu/fOYv35yOZz3P+OEGU5YJX71nev8A8i+UpSK/O839RLgJJXsX9QRSkckz4bP6hqtLZFZuH6aTDtamzKzcL00mPxVSTOc9z+oJHoSfps/qL5znI789z+olOWCUsFne6xfvSkUjnuf8cIpvGRSKZSvN/UVLxLuiYfmqmaFF6yLwv70ivkd5vg/kYDmRJn7P6hKZSvJvSv2fB/Iv78jvnhb4b/CJTwywFes+D+Q1OspJM5Ed5KOEVLujcnNz4vpC014WHeWkwiaCklhwuaYgp1xEyMr6cN7eDn2iH53VrQe6xXrp+UvvUJGKeQutJEsinLhINxiLBpxy8aywEFx7KUtKK+S1SwC62LNK6rxqpLlC4lhBrJS5Uyn/ACLsh6FrrvJw+gFGEt9tKD2BpVM+QNuodTUg7wKJiHFuk0lvYKlJWEwiIScyWVKiTUouAHFs2aVkvb7UIjkG403hqROqRhMbDrUaEr2V+XpENHNrQ1WrZq1o7c2/bI69bzs/Zdod3eH53UH3F1NNpVTUeHkCFLbeJus1EaZ38JSC1eUMcixFGut820JNcmyKaapYQRvWSFLYQpxK1S2EqtiGrZSVW7SNu3LYU/iwBs4k4rZMt2ZqMpWeAuWQQuJ8USGEUElH4J1TIPWpJkw2jdXJmaKt/wBBGIUztCNSCSo2SnIpb5ioOLiajJplEqlnUaKp7I7wdrInbJpFRuJ/BOWxBqeJttZw6FOkS71GHBvBm0USLdtE7ZMjop6w2cSal2rSKDQq9ZypvcgbXE2zZWCLMjItzwlwzEIcmE8qusRZzYVyp6wRxN2bi3ZWkpWe9wzkK4kqCbYRSkuJOoPWhEsmG0TtlTOiqWYKU8SEKKHQbtmZGVH6sMg1WZNWrSKicV+CU9iEnEmh+2bRKyUZSbpkeYVCOWorM0tksyqkmU94M2qk+PbRurcjopwngvho4k4jZst2ZzvWeD+ZBtcTUySWEWZEj8G2n6Q7bElJMNo27kzNFX4vQRhxTxSNEOi0U2iew2uG+IU11sG4hJLk4RyTTPAJ+V+67QtS3HrOs0kSZ3sJzDDi63W1Kqplf5Q1u8RzeoOfaIfndWtB7rFeun5S+9WDpQrTiU+MQWDhLgCWXkphVmThJJqR04SOYszQ204Tbm7VGR3zCodxbzrdOw2S0n6VAmXlNpfU2dVsSjTvyK8IhLrxRK0tKIjQkinhO+IuGW86ylJmkrI7/YIZSlNFUikyvGQeoUa7SFXabykb4cZibNiZGalIs18gSw5bOpo2CErNHODbTiTYmk9lDUch+kMGokNMnDnNBSNR73ICaXcMKmg5k6kzz60dubftkdet52fsu0RG6w/KrqEQpFJEpJmZnsSLDMMGklmRpUS5b5zmQWrx7PIsOm0bp+KWpUinT/8A5B2E0zh3ZzvX/qFWBFsod3CW/wDUSbyd7P8AUIsDSmmHdlK9f+oTYX5Q7uE9/fzhg2yWoibUlUvxcAqHiTNUmHD2R4D384KwmqUO7Pfv/UeIqT5O7O/K/wDUKsNjOHdw3r+/nB2MjnDvS5fqCspFKHez/UMqRZJoKRcAeUiyVWUy4BJvJ3s/1CLA0lTDuy5fqE2GylDu4b9/fzjxFcrndqlw72cHYTTOHdnvX/qFWBJM1MOy37/1FQfNvYEpClHO9IKsL04d3CW/v5x4rJ3s/wBQmxNKaYd2Ur1/6hNhLYw7uE9/6jxFRlc7s5cP1DRtE6XilpVI5Vf/AORV5V7rtEQaTWRElRrlvHKRCHUilRJSZGR7KeGYh91iOVPUHPtEPzurWg91ivXT8pflMdubftkdet52fsu0Re6Q/KrqDpKM0KTKaQmtTlayIpFIiC1eOZ5FCJkpTiTVKZI4b8gREhskIcMtkcsOx2IaJDRHszOakcJ4DwhCEJiLW0v1HPDgzAm5mhZuneJNOHYyDpNvFI1HKtZyvlhPkEMeylOcmyKf8ioOt2ijqcMpGqRXyv1YQ5Q6S0ms5Vke+U9iDKTaW0umW2kd+9gDVDMiJRytCPfMNoQ2pS6zmaVTw35/wEIK1S6bpzIylhvFwCHV4lP89YiFeJV/HWKW7ptrS/XPfwcGAWdclG6d4tiV8qTDtm9MjUcrQzlfKYUWwQ2TplJMp38E8AboaJCSWcqzPfOWxCG0Npcks9k2ZHhOZ5hUIyZkiSqcN/gvBokMleUd9aDlfPAYbQhD1raX788N/wCASiakLN05lTLDekHEtvEVSjkSl3r5YT5AsqyJFqe1SRnfvyneENJKm0kqciXw3piryj3faFWhOVoIjmUjINkojWtUpqEJukRyp6g59oh+d1a0HusV66flL8pjtzb9sjr1vOz9l2iJQlx2HSqcpqwHLeDrEM2RTtb+AiUq+G2YdZmk0vJVwGowuEZt2S2eBX4zFxsfuaZi42P3NMxcbH7mmYuNj9zTMXGx+5pmLjY/c0zFxsfuaZi42P3NMxcbH7mmYuNj9zTMXGx+5pmLjY/c0zFxsfuaZi42P3NMxcbH7mmYuNj9zTMXGx+5pmLjY/c0zFxsfuaZi42P3NMxcbH7mmYuNj9zTMXGx+5pmLjY/c0zFxsfuaZi42P3NMxcbH7mmYuNj9zTMXGx+5pmLjY/c0zFyM3TLZ7nxz4Q4zDIMkkTylHvEow2xDOEcrW9hI1KvCGQlt2ISmcppwnPeDn2iH53VrQe6xXrp+Uv8HHmmim4skl6Ql9laTUlwjIsISpKkkpJ3j1luIRKo5TOWs4+y1t1kQt2pJOspKORffo7c2/bI69bzs/Zdof3aH53UHq6m1ovmne5QitbpOKTSRJkRT4Qs/KGORYqFQqFQqFQqFQqFQqFQqFQqFQqFQqFQqFQqFQqFQqFQqFQn5V7rtC60Om4lNRGmRlPgDJLqccVeNUr3IGN2iOb1Bz7RD87q1oPdIr10/KX+EfV5NSRGdrgPBgFK0RD9qlKVLZOVOC8EOHZwzaVOTsSOSOsw1EPvFBeMMqjWSv4DziyQtKjUuziUy4RBLU6lTil3zPa8UOtLuk3WjQo6ZKSoKU2pLZE1Qoooqy9ItXzYdibYyNKjknevCGT5ZEKrV+G998jtzb9sjr1vOz9l2iJ3WH5VdQiFFNolHsDO+EUJfk3gp2RbxBZ+PZ5FCoVCoVCoVCoVCoVCoVCoVCoVCoVCoVCoVCoVCoVCoVCoVCflPu+0OUKiKXMFOxLeMQ6iqdJJ7AjvCG3WI5U9Qc+0Q/O6taD3SK9dPyl/g+wh8iJU7xzKRyCINlE8JmZSmZzOQOBhzovHsU03j3giCYbUk0lKRmZfyDhGTMzlhWSv5IJZQhxayvVYQ5CtOLrvkrhI5AoNgkpIiwKq/kKgodSjUaTvnMyneFggnbUp1Sl98jtzb9sjr1vOz9l2iLJZrh6EzOauoG1EnhY6RBLMQkpJhpc4gpETbNeJ3lfiIWcViOkQs4rEdIhZxWI6RCzisR0iFnFYjpELOKxHSIWcViOkQs4rEdIhZxWI6RCzisR0iFnFYjpELOKxHSIWcViOkQs4rEdIhZxWI6RCzisR0iFnFYjpELOKxHSIWcViOkQs4rEdIhZxWI6RCzisR0iFnFYjpELOKxHSIWcViOkQs4rEdIhZxWI6RCzisR0iFnFYjpELOKxHSIURN0bjfs+MXCFMxCikqHnziBNRJYGOkQhCWS4itMjmnqDn2iH53VrQe6RXrp+UvymO3Nv2yOvW87P2XaHN3h+d1CJOamUGqSFKv738BsibiaGz2JomZTwBZ+Usciw8TSolBOSlZnh5RYwPFbFjA8VsWMDxWxYwPFbFjA8VsWMDxWxYwPFbFjA8VsWMDxWxYwPFbFjA8VsWMDxWxYwPFbFjA8VsWMDxWxYwPFbFjA8VsWMDxWxYwPFbFjA8VsWMDxWxYwPFbFjA8VsWMDxWxYwPFbFjA8VsWMDxWxYwPFbDJNJiVk3KVmWDlE/K/ddock5E0OHsaJkU8Ihjkt5BKmhJlLuDe7xHN6g5u8PzurWg90ivXT8pffpl/8AnH7m37ZHXredn7LtDu7w/O6gokrKSiIyCG229okiCz8oY5Fh5aK0pNm0OU8Bdo2GQnmR3jYZCeZHeNhkJ5kd42GQnmR3jYZCeZHeNhkJ5kd42GQnmR3jYZCeZHeNhkJ5kd42GQnmR3jYZCeZHeNhkJ5kd42GQnmR3jYZCeZHeNhkJ5kd42GQnmR3jYZCeZHeNhkJ5kd42GQnmR3jYZCeZHeNhkJ5kd42GQnmR3jYZCeZHeNhkJ5kd42GQnmR3jYZCeZHeNhkJ5kd42GQnmR3hlaK1JJmzOU8Bdgn5V7rtC223C2aSMJJKCkkpEGt3iOb1Bzd4fndWtB7pFeun5S+/KZotbdhS75napwyDkXSptttd6znWZVC7IpZMEkiJS1KScy4N8HFuobiSVK0Qck+mrAFxj9a0EoiNBF+EzmYRExLrrKUkSam6jmX+Ufubftkdet52fsu0P7tD87qExMLPyhjkWFpctSWinayvicV+18ROK/a+InFftfETiv2viJxX7XxE4r9r4icV+18ROK/a+InFftfETiv2viJxX7XxE4r9r4icV+18ROK/a+InFftfETiv2viJxX7XxE4r9r4icV+18ROK/a+InFftfETiv2viJxX7XxE4r9r4icV+18ROK/a+InFftfETiv2viEJctTWunayvCflXuu0TEwxu0RzeoObvD87q1oPdIr10/KX3641yUlMSskHvA4FJUG0s0GlNPDeBQl9kzcUZtmeHfmHIRDj6HZ4N7hDkIZrWtDykV7aQTDkl5LlR3kU/wCUfubftkdet52fsu0RG6w/KrqExML3dnkUFuOWhIQSdrO+YqieK3nPuFUTxW859wqieK3nPuFUTxW859wqieK3nPuFUTxW859wqieK3nPuFUTxW859wqieK3nPuFUTxW859wqieK3nPuFUTxW859wqieK3nPuCHHKzStKdrO8YQ5ELQlVDd8p4T7hVE8VvOfcKonit5z7hOJ4rec+4TieK3nPuE4nit5z7hOJ4rec+4TieK3nPuE4nit5z7hOJ4rec+4TieK3nPuE4nit5z7hVE8VvOfcKonit5z7ghxy0NCyTtZ3jHnPu+0TExD7rEcqeoObvD87q1oPdIr10/KX5TH7m37ZHXredn7LtETukPyq6gaiIpmYS4hZTSojC93Z5FBaVmsloURbGV8pjynjo0T7x5Tx0aJ948p46NE+8eU8dGifePKeOjRPvHlPHRon3jynjo0T7x5Tx0aJ948p46NE+8eU8dGifePKeOjRPvHlPHRon3jynjo0T7wlK6zWtRHsZXikIf7Oz6hCYmF2Nq7XKdY8l/SPJf0jyX9I8l/SPJf0jyX9I8l/SIWi2VRgoExMecn7Musec+77QpxCCmpRECURlMjENukRyp6g5u8PzurWg90ivXT8pflMfubftkdet52fsu0Re6Q/KrqD+Fs1FNJHfCFJU/U3gpvnwhZ+Oa5FB427ZNocioPfkPIuOnSHkXHTpDyLjp0h5Fx06Q8i46dIeRcdOkPIuOnSHkXHTpDyLjp0h5Fx06Q8i46dIeRcdOkPIuOnSDRtWqrM5lRwzDD7JMtkbidqW+LpYxqM4uljGozi6WMajOLpYxqM4uljGozi6WMajOLpYxqM4uljGozi6WMajOLpYxqM4uljGozi6WMajOLpYxqM4Q4hb6qVEewLByiflHu+0LUlL9S8FN4+AMbZw0lJJneEJukRyp6g5u8PzurWgt0ivXT8pflMfubftkdet52fsu0RSFrchyTKc1YeQXNE8Zr4hLD6imlbJl6JhcPE2zJTbwK4Qtp1G3dYLlOQkeUQ2kJHlENpCR5RDaQkeUQ2kJHlENpCR5RDaQkeUQ2kJHlENpCR5RDaQkeUQ2kJHlENpCR5RDaQkeUQ2kL+Uw2kJHlENpCR5RDaQkeUQ2kJHlENpCR5RDaQkeUQ2kJHlENpCR5RDaQkeUQ2kJHlENpCR5RDaQkeUQ2kJHlENpCR5RDaQQ06vaOsHyHMXPE3RKbc7P08IUw+kpqWyRemYuaJP8TXxEKhaHIglSnNODkDm7w/O6taC3SK9cvlL8pj9zb9sjr1vOz9l2hzd4fndQiqZs2m51bLsDZtnFTZlKjZywegLPyljkWHVtoiUGvBZn1i6YTjJzC6YTjJzC6YTjJzC6YTjJzC6YTjJzC6YTjJzC6YTjJzC6YTjJzC6YTjJzC6YTjJzC6YTjJzC6YTjJzC6YTjJzC6YTjJzC6YTjJzC6YTjJzC6YTjJzC6YTjJzC6YTjJzC6YTjJzC6YTjJzC6YTjJzC6YTjJzC6YTjJzC6YTjJzC6YTjJzC6YTjJzC6YTjJzBpba4lZowWZdYn5X7rtDptlFEb0pUbCeCe+IWmp6jc53u2Qb3eI5vUHN3h+d1a0FukV65fL9+OJYSqk3UkfBP/APOP3Jv2yOvW87P2XaHd3h+d1axSLAQX9oY5FhbrhOEhCCPYzvnIVxWLRpn3CuKxaNM+4VxWLRpn3CuKxaNM+4VxWLRpn3CuKxaNM+4VxWLRpn3CuKxaNM+4VxWLRpn3CuKxaNM+4VxWLRpn3CuKxaNM+4VxWLRpn3CuKxaNM+4VxWLRpn3CuKxaNM+4VxWLRpn3CuKxaNM+4VxWLRpn3CuKxaNM+4VxWLRpn3CuKxaNM+4VxWLRpn3CuKxaNM+4VxWLRpn3CuKxaNM+4VxWLRpn3CuKxaNM+4IdcNw0LQRbGd45jzr3XaDkeHWa3eI5vUHN3h+d1a0FukV65fL9+sltId8W280Zmf6gqINa2kM10WVWww/EVxh3MhSzQalqIz35Bb7rSYlqszXUVmfrBTkSpx1BKd8XIiplh9IQuKciGUKWaPFVKL0z/wAo/cm/bI69bzs/Zdoe3aH53UJiYWflDHIsLbUayWlyk5SwTFD+P6JCh/H9EhQ/j+iQofx/RIUP4/okKH8f0SFD+P6JCh/H9EhQ/j+iQofx/RIUP4/okKH8f0SFD+P6JCh/H9EhQ/j+iQofx/RIUP4/okKH8f0SFD+P6JCh/H9EhQ/j+iQofx/RIUP4/okKH8f0SFD+P6JCh/H9EhQ/j+iQofx/RIIbUSzWpyo5SwSE/KvddomJhndojm9Qc3eH53VrQW6RXrl8v344Bi/tyI8KSVeC4NlVN400lIjScrwTCspspFtMH8hcM0t5Dplsk4A7BsuKNR1EZ4ZHKYTDtpWSyK+Saf4/yj9yb9sjr1vOz9l2iI3WH5VdQmJhZ+PZ5FBanDdJCVEWxM8ExS/ji0RS/ji0RS/ji0RS/ji0RS/ji0RS/ji0RS/ji0RS/ji0RS/ji0RS/ji0RS/ji0RS/ji0RS/ji0QhThOmlSiPYTwSDd0LbQq1TfSR7UUv44tEUv44tEGtRHI4psv4+otTytrMXeLU8razF3i1PK2sxd4tTytrMXeLU8razF3i1PK2sxd4tTytrMXeEm4raxKD5E/UUv44tEUv44tEIU4TpoUoj2JHgkJ+U+77RMTEPusRyp6g5u8PzurWgt0ivXL5fymP3Jv2yOvW87P2XaIndIflV1BbiUFNRhDyFzlh4As/Hs8ig4RVEq1oOUt7tH/1n0R/9Z9Ef/WfRH/1n0R/9Z9Ef/WfRH/1n0R/9Z9Ef/WfRH/1n0R/9Z9Ef/WfRH/1n0QgiqUq1rOUt7sEOfiGfUITEwcycdm2o9nwD3S9Ee6Xoj3S9Ee6Xoj3S9Ee6Xoj3S9EQ87YzoMio3ykJiYn5Sfsy6xPyn3faFvIRhw8AQ4lZTSYht0iOVPUHN3h+d1a0FukV65fL+Ux+5N+2R163nZ+y7RFbpD8quoO1VNrIp0ngCTNbpLpMiJMr++Fn45rkUHKbZJqRMqD3pitjFH/AFmK2MUf9ZitjFH/AFmK2MUf9ZitjFH/AFmK2MUf9ZitjFH/AFmK2MUf9ZitjFH/AFmK2MUf9ZitjFH/AFmK2MUf9ZitjFH/AFmEUm6o0oMio4sg08SWmyNK5kkvwmLoTwL0TF0J4F6Ji6E8C9ExdCeBeiYuhPAvRMXQngXomLoTwL0TF0J4F6Ji6E8C9ExdCeBeiYuhPAvRMXQngXomLoTwL0TCFVPKORyoLCUhPyj3faFGaHa6TMjTK9vBqdTizKVW8IXdIjlT1Bzd4fndWtBbpFeuXy/lMfuTftkdet52fsu0RDZuOw6aqb6r/wDAXDWaalxUi9Ug2wTk6IufNC4RduyVueBX4SDjJNmRKiVTPgbn1ClOUOf0mKU5Q5/SYpTlDn9JilOUOf0mKU5Q5/SYpTlDn9JilOUOf0mKU5Q5/SYpTlDn9JilOUOf0mKU5Q5/SYpTlDn9JilOUOf0mKU5Q5/SYpTlDn9JilOUOf0mKU5Q5/SYpTlDn9JilOUOf0mKU5Q5/SYpTlDn9JilOUOf0mKU5Q5/SYpTlDn9JilOUOf0mKU5Q5/SYpTlDn9JilOUOf0mG2ScMyTEqmXC3LrFyLumVue58UuEOME1t4uXNCIasppipl6pCHbNt2ITVVfTf/gObvD87q1oLdIr1y+X8pj9yb9sjr1vOj9l2he7w/O6hETJTK6TUSTvkXWEKtYgnEkZJJEp4JhZ+UMciw4o0xCV0KMrMyvcoun9l3RF0/su6Iun9l3RF0/su6Iun9l3RF0/su6Iun9l3RF0/su6Iun9l3RF0/su6Iun9l3RF0/su6Iun9l3RF0/su6Iun9l3RF0/su6Iun9l3RF0/su6Iun9l3RF0/su6Iun9l3RF0/su6Iun9l3RF0/su6Iun9l3RF0/su6Iun9l3RF0/su6IbUaohS6FEVmRX+UT8r912harOItFJM0miUyvyEPM1vLpNKVGUi7Qjd4jm9Qc3eH53VrQW6RXrl8v35UdDpMymd7CcrxAjIymX/wCUfuTftkdet50fsu0O7vD87qExMLPyhjkWHFu2qUINJbEzvlMSisa3ofUSisa3ofUSisa3ofUSisa3ofUSisa3ofUSisa3ofUSisa3ofUSisa3ofUSisa3ofUSisa3ofUSisa3ofUSisa3ofUSisa3ofUSisa3ofUSisa3ofUSisa3ofUSisa3ofUSisa3ofUSisa3ofUSisa3ofUSisa3ofUSisa3ofUSisa3ofUSisa3ofUSisa3ofUSisa3ofUSisa3ofUSisa3ofUNrdtVIWaT2JHeKQn5V7rtExMNbvEc3qDm7w/O6taC3SK9cvl+/ERttuLYfQbczOhQW4p91oiRsLGqmqkUOKuRtbl41r2qvw8Ew4pTNvDkZzWZWfOwhaVqdfRvNkRFNdMr2ENoW5EsJcXPxMzkd4zn/lH7k37VHXredH7LtD27Q/O6hMTCz8oY5FhbSVqJU1EcpXjkLEsa7pCxLGu6QsSxrukLEsa7pCxLGu6QsSxrukLEsa7pCxLGu6QsSxrukLEsa7pCxLGu6QsSxrukLEsa7pCxLGu6QsSxrukLEsa7pCxLGu6QsSxrukLEsa7pCxLGu6QsSxrukLEsa7pCxLGu6QsSxrukLEsa7pCxLGu6QsSxrukLEsa7pBDSUKNU1GcpXzmJ+Ve67RMTDO7RHN6g5u8PzurWgt0ivXL5fvyoSGUqo2kzDjDLhES2yOQJloqJILY7X0A2m1LSs0lUWAw5DsOnNbZGYs0Eqqm/KX8f5R+5N+1R163nR+y7Q/usPyq6hMTCz8ezyKC6lPJTWoioM7wsjxzmcWR45zOLI8c5nFkeOcziyPHOZxZHjnM4sjxzmcWR45zOLI8c5nFkeOcziyPHOZxZHjnM4sjxzmcJqS8pNajKid8MoUtptRvOTNJHhFkeOcziyPHOZwa2iMyOIdmX/uAWrOUPZj7has5Q9mPuFqzlD2Y+4WrOUPZj7has5Q9mPuFqzlD2Y+4WrOUPZj7gg0OHJL7v/v4FkeOcziyPHOZwipLyk1qMqCO+J+U+77RMTDG6xHKnqDm7w/O6taC3SK9cvl/KY/cm/ao69bzo/Zdoid0h+VXUHHSRLCc8BEEPVHSaTSrgMLPx7PIoPWFRVmZHK9Iz7BOF4686xOF4686xOF4686xOF4686xOF4686xOF4686xOF4686xOF4686xOF4686xOF4686xOF4686xOF4686xOF4686w1YTVQZmct8z7RDn4hr1CExMGh4luSbmRqnhEnsV8SEnsV8SEnsV8SEnsV8SEnsV8SEnsV8SEnsV8SDKXLU1KTLYywiYmJ+UH7MusT8p932hb1J0kk1K4CCHSXPCRlhIxDbpEcqeoObvD87q1oLdIr1y+X8pj9yb9qjr1vOj9l2iK3RjlV1B0lTQpOFO8E1qcrUUpFIiCj8c1yKC6ydJRIM9jIWrmJVnIWrmJVnIWrmJVnIWrmJVnIWrmJVnIWrmJVnIWrmJVnIWrmJVnIWrmJVnIWrmJVnIWrmJVnIWrmJVnIWrmJVnIJrN01Ggy2Eg2pxDaE2KrySLCQtXMSrOQtXMSrOQtXMSrOQtXMSrOQtXMSrOQtXMSrOQtXMSrOQtXMSrOQtXMSrOQtXMSrOQtXMSrOQtXMSrOQtXMSrOQRWbpqNBp2MhPyj3faFVpcrSU5lIyDZKmtasKt4Qu6P8qeoObvD87q1oLdIr1y+X8pj9yb9qjr1vOj9l2h5snHodJmf4sF7eDsNDtlM1u38BEZnMNsQ6zNM30qLeMwuCat2Sqcvkr8QuFnjuaQuFnjuaQuFnjuaQuFnjuaQuFnjuaQuFnjuaQuFnjuaQuFnjuaQuFnjuaQuFnjuaQuFnjuaQuFnjuaQuFnjuaQuFnjuaQuFnjuaQuFnjuaQuFnjuaQuFnjuaQuFnjuaQuFnjuaQuFnjuaQuFnjuaQuFnjuaQuFnjuaQuFnjuaQuFnjuaQuFnjuaQuFnjuaQuFnjuaQuFnjuaQuJq6ZVOblxvSHGIdsyTN9Sj3iMNw0O4RyW7ewkajvBlsm3ohJGf4cN/eDm7w/O6taC3SK9cvl/KY/cm/ao69bzo/ZdoV9oh+d1B9K6mnEFM0Gd7lCLRx4nFIoJKZFwnMOfaYfkX9/8AO/ddoXaNvm6lFZGmRlv3gwldbriylVK9yBP2iI5vUHN3h+d1a0FukV65fL+Ux+5N+1R163nR+y7Qr7RD87q13PtLHIvXiVL8USVmmpcjMuQxQ7lLnR7hQ7lLnR7hQ7lLnR7hQ7lLnR7hQ7lLnR7hQ7lLnR7hQ7lLnR7hQ7lLnR7hQ7lLnR7hQ7lLnR7hQ7lLnR7hQ7lLnR7hQ7lLnR7hQ7lLnR7hQ7lLnR7hQ7lLnR7hQ7lLnR7hQ7lLnR7hQ7lLnR7hQ7lLnR7hQ7lLnR7hQ7lLnR7hQ7lLnR7hQ7lLnR7gwa7V1KnDVIkmU5b8+DX8791266ftERzeoObvD87q1oHdIr1y+X8pj9yb9qjr1vOj9l2hf2iH53Vrr+0Mci9eI20P7T/qf3lr7Q96iO3X8791266PtERzeoObvD87q1oHdIr1y+X8pj9yb9qjr1vOj9l2he7w/O6tdf2hjkXrxG2h/af9T+8tfaHvUR26/nfuu3XRu8RzeoObvD87q1oHbxXrl8v5TH7k37VHXredH7LtC93h+d1a6/tDHIvXf20P7T/qf3lv7Q96iO3X8791266N3iOb1Bzd4fndWtA7eK9cvl/KY/cm/ao69bzo/Zdoc3eH53Vrr+0Mci9d/bw/tP8Aqf3lv7Q96iO3X8691267e7xHN6g5u8PzurWgdvFeuXy/lMfuTftUdet50fsu0ObvD87q11/aGOReu9t4f2n/AFP7yj7S96iO3X8691267e7xHN6g5u7HO6taB28V65fL+Ux+5N+1R163nR+y7Q5u0PzurXX9oY5F6723h/af9T+8o+0veojt1/Ovdduu3u0RzeoObuxzurWgdvFeuXy/fYx9UO0SyTVsivCKjLGHJ1JVGeAhdTKUINayI1JnIKiWE0zcK+UyColBpbUhxMjVINRrC0LVVIknvgoqHNCl2hSLCG3UOFNCplOX+OqG5N+1R163nR+y7Q7u0PzurXX9oY5F67u3h/af9T+8p+0u+ojt1/Ovdduu1u0RzeoObuxzurWgdvFeuXy/fYsp2N7/AJCBsuyeQaTkyhRI9NQR4h2taFGS2UEV6d8t4MMrS7CVowJX/EzFmuvan9smKVUyoUdnEVKKW8IglOlFLQhVJtpLBhMIIiSREW9/jqhuTftUdet50fsu0O7tD87q117uzyK13dvD+0/6n95L7S76iO3X8691267W7RHN6g5u7HO6taB28V65fL+U6obk37VHXredH7LtD27Mc7q117uzyK13N0h/af8AU/vJfaXfUR26/nPu+3XZ3Z/m9Qc3djndWtA7eK9cvl/KdUNyb9qjr1vOj9l2h7dWOd1a693Z5Fa7m6Q/tP8Aqf3nzl31Eduv5z7vt12d1f5vUHN3Y53VrQO3ivXL5fynVDcke1R163nR+y7Q9urHO6tde7s8itde6Q/tP+p/efOXfUR26/nPu+3XZ3V/m9Qc3djndWtA7eK9cvl/KdUNyR7VHXredH7LtD+6scqurXXu7PIrXXukP7T/AKn9585d9RHbr+c+77ddjdX+VPUHN3Y53VrQO3ivXL5fynVDcke1R163nR+y7Q/urHKrq117uzyK11box6//AFP7yf2lz1Eduv5z7vt12N1f5U9Qc3djndWtA7eK9cvl/KdUNyR7VHXredH7LtERurHKrq117uzyK11bqx6//U/vJ/aXPUR26/nHu+3Xh91f5U9Qc3djndWtA7eK9cvl/KdUNyR7VHXredH7LtERujHKrq117s1yK1z3Vj1/+p/eVfaXPUT26/nHu+3Xh90f5U9Qc3djndWtA7eK9cvl/KdUNyR7VHXredH7LtERujHKrq11bs1yK11nJTSpHeXflf3hdbfFc0TF1t8VzRMXW3xXNExdbfFc0TF1t8VzRMXW3xXNExdbfFc0TF1t8VzRMXW3xXNExdbfFc0TF1t8VzRMXW3xXNExdbfFc0TF1t8VzRMXW3xXNExdbfFc0TF1t8VzRMXW3xXNExdbfFc0TF1t8VzRMXW3xXNExdbfFc0TF1t8VzRMXW3xXNExVW84oiOVKcJS4dfzj3fbrw+6P8qeoObuxzurWgNvFeuXy/lOqG4o9qjr1vOj9l2iJ3RjlV1B1SpoQRyq3wmpDpIqNRGU7+8Fbs1yK+/+ce77QqpbtFRpIkzvBpSqloM5074ht0f5U9Qc3djndWtAbeK9cvl+/Vp4xYZAzIsP/wCWqG4o9qjr1vOj9l2iKOS2MOFWAp7wXQspGleioIoRfk4Z8JpUFL8a1sV4FfhMWhcVegoWhcVegoWhcVegoWhcVegoWhcVegoWhcVegoWhcVegoWhcVegoWhcVegoWhcVegoWhcVegoWhcVegoWhcVegoWhcVegoWhcVegoWhcVegoWhcVegoWhcVegoWhcVegoWhcVegoWhcVegoWhcVegoWhcVegoWhcVegoWhcVegoWhcVegoWhcVegoWhcVegoWhcVegoWhcVegoV+P2q9pxT4Quhd+ThHwklQRQgryV6KhCnNb+HCnCUt4ObuxzurWgNvFeuXy/fIhC1suJQclGV4NpZbUyTjC2Vz2xYDMNroXgI5xasIddfchicOmg3E3uAphyNcqeoUkqDvFIzqBRjRkksCjTOQhYVmJZtXtmpRnv4BDvOIIm6pyiKJnwCMeeJMSlKpUkn4huqhNRzOX+GqG4o9qjr1vOj9l2g/tEPzuoPOrqbQg5Go8PIELcQ8Tal1EaZke/eC1eUMcixUKhUKhUKhULZ9SnKEoklUr5mK4vitZzBvRVolFLV8jPCe8K4vitZzDb0UtM6WsJlhPeOQU9FJUhNLWyPhMVxfFazmEPRSqti1eVLCYW9FJp2LV9UsJiuL4rWcwl6KUpaaWtifCYceikJnS1hIsJ75yFcXxWs5iuL4rWcxXF8VrOYtn0qbrSiSlSvGYqFQqFQqFQqFXlfuu0LW4t6zSukiTMz374ZdXU42s5mmV/lBfaIjm9Qc3djndWtAbeK9cvl++Otk62pBzvi41qptX1LSk5kV4XEkjI6j3U1hWp0yotlUVTJIVB7JZoeUis5qkCIhcSkGqxfUhJ/h7hcKLFKEqMjSqolb8wcClRPVLUdoRTPkCCNKSI1T9P8AhqhuKPao69bzo/Zdoc3ZjndQiDbpTVVOexpwzEOaaznXaS/FwBZ+PZ5FioVCoVCoVCoIW9W/SlJlab5y3uQWkTi29I+4HdNoldDd5Jltj3/4FpE4tvSPuEOuIs7yEbZX4vTyBV0qW2qhvYnxj4OQWkTi29I+4IulNewbvqntj7gu6VUbBu8qe2PuFpE4tvSPuCbpStxVDeyPjHwcgiFxFnfQjbJ/F6eQWkTi29I+4WkTi29I+4WkTi29I+4LW9WxUlJFabxz3uQVCoVCoVCoVCflXuu0RBprTKu0leo4BDmilVNU57KrDMN7s/zeoObuxzurWgNvFeuXy/fIl+wSg5TqcSnOERFbxoQmaU7ZXp4BdUPXRaFMW7VBrqKksJhEe1aOpcWlMlSIORLDcq1kUwuIZQklGspHgF0sUEu0Kk98HFw5S8YV8rwhnTdYQs98v8NUNxR7VHXredH7LtD+6sc7qDtU0LTfNO8E1qdJak0yKRFyhavHs8ihUKhUKhUKhUCN5CnJISZGqe2kLR/FJ0voLR/FJ0voLR/FJ0voGzfQmVmnCf4uE+QWj+KTpfQWj+KTpfQWj+KTpfQWj+KTpfQWj+KTpfQWj+KTpfQOG+tMrNOEvxcB8gtH8UnS+gtH8UnS+gtH8UnS+gM3lqbmhJESp7aYqFQqFQqFQqE/KPd9oVWl2tKappkZBqqpa1XjVvcgY3V/m9Qc3djndWtAbeK9cvl++apoNbLSb+7IwBtK4RdiRHZK2h8U+Aw20qhDKzdI68BJvcsw6g7qOH/A4onD/jCJ0qj0m0szcPY3sN4NEqHcI3kKObKSmRTvlvBNu0iGJSTItlfJNRlwEEIWZIQptf2qq+W8HDsYiINTalVpKmRT/ganzKDamUjl/hqhuKPao69bzo/ZdodbJx5hJmZbbByByHZbKannQ2yy4ZlaPkZbx3guERbslauYFb4uJGNdzi4kY13OLiRjXc4uJGNdzi4kY13OLiRjXc4uJGNdzi4kY13OLiRjXc4uJGNdzi4kY13OLiRjXc4uJGNdzi4kY13OLiRjXc4uJGNdzi4kY13OLiRjXc4uJGNdzi4kY13OLiRjXc4uJGNdzi4kY13OLiRjXc4uJGNdzi4kY13OLiRjXc4uJGNdzi4kY13OLiRjXc4uRF0ytXNz4fSHGWWzIrV4zPeK+G4dlwppedDTZNvPpIzPa4eQObuxzurWgNvFeuXy/wCC1oQU1KIuUE42ZTJZGQJRKIjI72spaUymcr8tZbjaNstJcpg3GyIjqK/g+6IYQhal3zUe+f8A+WqG4o9qjr1vOj9l2he7sc7qD1VTS0lVSeDlCTW48ThoNJEmV/Ccws/KGORYqFQqFQqFQqFQqFQqFQqFQqFQqFQqFQqFQqFQqFQqFQqFQn5V7rtCzWh43CQaiNMjlhKQZqrdcUVNUr3IEbu/zeoObuxzurWgNvFeuXy/4aoT8nkgleN2p8gSk0PxFbZNmtk5JLBeCHVE1DIS6ojsSOSUzMNxT7pQclSrNZKvcAfeXQonDqsolN/fMQbi3km6pV4zvJ4A+y5dNqhCHNjI0nvBRtGhokINEooqk8Bi3iTYciLSRJUewlvEIYlXXEKtDlsb33zVDcUe1R163nR+y7Q9urHO6g+qamkmckmd8Ik2/Qg9jTfLgCz8ezyKFQqFQqFQqFQqFQqFQqFQqFQqFQqFQqFQqFQqFQqFQqFQqE/Kfd9oXJx+hZ7Gm8XCGFSU6kjmkjvdwZ3V/m9Qc3djndWtAbeK9cvl/wAH2CeJM1KTScyMgmCbKZmpalGmU1HO8DgGtgZKUUkU3jwkG4FlpSDTPYmZkXKFQbZmo799wl/yQbYS24tSfxYS3g5CpUuslrQrfpMXE0SSK/t658JhUCyo1X1UmczTO9MEwknjdIzKZXy3vvmqG4o9qjr1vOj9l2iIqtGKUmo5qvFyBSHlFI4VZ6PeENOI2sKstHvCre2a8QvArg7xKIydfR7xKIydfR7xKIydfR7xKIydfR7xKIydfR7xKIydfR7xKIydfR7xKIydfR7xKIydfR7xKIydfR7xKIydfR7xKIydfR7xKIydfR7xKIydfR7xKIydfR7xKIydfR7xKIydfR7xKIydfR7xKIydfR7xKIydfR7xKIydfR7xKIydfR7xKIydfR7xKIydfR7xKIydfR7xKIydfR7xKIydfR7xKIydfR7xKIydfR7xKIydfR7x4+6NwXufo4eULacXtoVZ6PeEoeSUihVlo94h6rR+pJpOabx8gc3djndWtAbeK9cvl/KdUNxR7VHXredH7LtHnEPzuoRClGpluo0ko75l1BE2ogmyUo0micjvyDh+Usciw4klxKUqM5WZneMy3/QLmZ/Xpq7xczP69NXeLmZ/Xpq7xczP69NXeLmZ/Xpq7xczP69NXeLmZ/Xpq7xczP69NXeLmZ/Xpq7xczP69NXeLmZ/Xpq7xczP69NXeLmZ/Xpq7xczP69NXeLmZ/Xpq7xczP69NXeLmZ/Xpq7xczP69NXeLmZ/Xpq7xczP69NXeLmZ/Xpq7xczP69NXeLmZ/Xpq7xczP69NXeLmZ/Xpq7xczP69NXeLmZ/Xpq7xczP69NXeG0kiJUlJnKzI75me/6RPyv3XaFzdiLM1KJJInIr0wwpRLebqNRJMpGfUPOIjm9Qc3djndWtAbeK9cvl/KdUNxR7VHXredH7LtCvtDHO6gtCHEyWUyDbTbc6Sw4T3ws/KGORYfNg1JJbVZyvbGYlCZGf9YlCZGf9YlCZGf8AWJQmRn/WJQmRn/WJQmRn/WJQmRn/AFiUJkZ/1iUJkZ/1iUJkZ/1iUJkZ/wBYlCZGf9YlCZGf9YlCZGf9YlCZGf8AWJQmRn/WJQmRn/WJQmRn/WJQmRn/AFiUJkZ/1iUJkZ/1iUJkZ/1iUJkZ/wBYlCZGf9YlCZGf9YlCZGf9YlCZGf8AWJQmRn/WGDYJSiQ1Qcr+xkJ+V+67Q4025KosGA98IQhspJKRBP2h/m9Qc3djndWtAbeK9cvl+/KTSbl0pdnUcnSwSDsZQbbaXE7SdawUe8tLFmhNS1KSfBeF2LQ3EVkVbZyIuGeAOR7hKUgjaI0EU575hMY864yltKZKbqOe9/lqhuKPao69bzo/ZdoXu7HO6hMTC/tDHIsLJ21StBJPYmV85CuJxaNP6CuJxaNP6CuJxaNP6CuJxaNP6CuJxaNP6CuJxaNP6CuJxaNP6CuJxaNP6CuJxaNP6CuJxaNP6CuJxaNP6CuJxaNP6CuJxaNP6CuJxaNP6CuJxaNP6CuJxaNP6CuJxaNP6CuJxaNP6CuJxaNP6CuJxaNP6CuJxaNP6CuJxaNP6CuJxaNP6CuJxaNP6CuJxaNP6CuJxaNP6CuJxaNP6CuJxaNP6BBO2qlrJJbEivHMede67RMTCN3f5vUHN3Y53VrQG3ivXL5fvxwsRJSCiNgfCUzFxUUGy5SaUU3yneFyqqYUbkzQZ/zMPQhLiEO1Xiwp4ZYAuFctFradpr216eYJh5PpcqnJun/LVHcUe1R163nR+y7Q5uzHO6hMTCz8ezyKC3VkskJRO9PDIWkRiU6f0FpEYlOn9BaRGJTp/QWkRiU6f0FpEYlOn9BaRGJTp/QWkRiU6f0FpEYlOn9BaRGJTp/QWkRiU6f0FpEYlOn9BaRGJTp/QWkRiU6f0CHVms0qRLYzwzCHnlpSomSkZT2wtIjEp0/oLSIxKdP6C0iMSnT+griMSnT+griMSnT+griMSnT+griMSnT+griMSnT+griMSnT+griMSnT+gtIjEp0/oLSIxKdP6C0iMSnT+gQ6s1mhSJXp4ZiflPu+0TEw3uz/ADeoObuxzurWgNtFeuXy/lOqO4o9qjr1vOj9l2h7dWOd1CYJZKKZHMLPx7PIoLJy0JaKdrK+JxP7fxE4n9v4icT+38ROJ/b+InE/t/ETif2/iJxP7fxE4n9v4icT+38ROJ/b+InE/t/ETif2/iJxP7fxCScrNa6drK8Ic/J2fUITEwpSLV2pyWz48hNnHdMxNnHdMxNnHdMxNnHdMxNnHdMxNnHdMxNnHdMxDKK2USVzKjjTExMT8pP2ZdYn5T7vtBqIimZyEwzur/N6g5u7HO6taA20V65fL+U6o7ij2qOvW85P2XaH91Y53UIiU269pO+EGi38XKVOykFn45rkUHDI3kkpZkVB/ikKWMaf9hiljGn/AGGKWMaf9hiljGn/AGGKWMaf9hiljGn/AGGKWMaf9hiljGn/AGGKWMaf9hiljGn/AGGKWMaf9hiljGn/AGGKWMaf9hhBpJ1RJWZlRxphhxFg1sy2hb4tW+OnOLVvjpzitrjIFbPCgVs8KBWzwoFbPCgVs8KBWzwoFbPCgWjXGSLVvjpzi1b46c4SojiFSOfiy6xPyj3faFmi38ZKVOxmGJVO0bSd4Mbq/wA3qDm7sc7q1oDbRXrl8v5TqjuKPao69bzo/ZdofStTrBIlPZYb28LCK4jel9AUPEyvIa0voFsxVs1sW8CvxfQKh3/xIZ/lX0FzucSH0voLnc4kPpfQXO5xIfS+gudziQ+l9Bc7nEh9L6C53OJD6X0FzucSH0voLnc4kPpfQXO5xIfS+gudziQ+l9Bc7nEh9L6C53OJD6X0FzucSH0voCZeLAljT+gudziQ+l9Bc7nEh9L6C53OJD6X0FzucSH0voLnc4kPpfQXO5xIfS+gudziQ+l9Bc7nEh9L6C53OJD6X0FzucSH0voLnc4kPpfQXO5xIfS+gudziQ+l9Bc7nEh9L6BMO/8AhQz/AAr6CxirolS3Oz43p5AcPEyvoa0voLCK4jel9AwlaXXyXKexwX94ObuxzurWgNtFeuXy/lOqO4o9qjr1vOT9l2jzhjndQijKpkln4s1bIN2aYqlmUqNmRYC4As/KWORYeNi6UWtErM9tyirU3/X6Iq1N/wBfoirU3/X6Iq1N/wBfoirU3/X6Iq1N/wBfoirU3/X6Iq1N/wBfoirU3/X6Iq1N/wBfoirU3/X6Iq1N/wBfoirU3/X6Iq1N/wBfoirU3/X6Iq1N/wBfoirU3/X6Iq1N/wBfoirU3/X6Iq1N/wBfoirU3/X6Iq1N/wBfoirU3/X6Iq1N/wBfoirU3/X6Iq1N/wBfoirU3/X6Iq1N/wBfohk2LpXZUSsy2vKJ+V+67Q7ZqiqXpU0bEjwGe+IUyqeJB+LI73aPOH+b1BzdmOd1a0Btor1y+X78brZHI1pnwT//AD1R3FHtUdet5yfsu0H9oY53UDkeEJShBSSkiL0BZ+UMciw46ZLJCW6jlPDIWj2T9IhaPZP0iFo9k/SIWj2T9IhaPZP0iFo9k/SIWj2T9IhaPZP0iFo9k/SIWj2T9IhaPZP0iFo9k/SIWj2T9IhaPZP0iFo9k/SIWj2T9IhaPZP0iFo9k/SIWj2T9IhaPZP0iFo9k/SIWj2T9IhaPZP0iFo9k/SIWj2T9IhaPZP0iFo9k/SIWj2T9Ig26ZrNCm6TlPDMT8q912hSUrKSkkZekFIikQL7Q/zeoObsxzurWgNtFeuXy/fjZU0TtbBOoMzOsj2QXEnU220pRIs6pkVRi3jFXOidClLUkzMt4t8KiXm0RKDVNwlFRzsAXERBrcQS1bAiK8icz9IS9FOvsonZzaqUUv8ALVHcUe1R163nJ+z7Qvd2Od1CYmFn5QxyLC0LNwloWRbGV8piUTjUaH1EonGo0PqJRONRofUSicajQ+olE41Gh9RKJxqND6iUTjUaH1EonGo0PqJRONRofUSicajQ+olE41Gh9RKJxqND6iUTjUaH1EonGo0PqJRONRofUSicajQ+olE41Gh9RKJxqND6iUTjUaH1EonGo0PqJRONRofUSicajQ+olE41Gh9RKJxqND6iUTjUaH1EonGo0PqJRONRofUSicajQ+oQhZOGtayPYyvFIT8q912iYmEbu/zeoObsxzurW1P20V65fL9+OBTsiJ1wkn+GYVBN7Cg1INKaSNPAChEFY3z8XOX8hyGbW+h08KQ5BoWpSiWtBq21J4QmHQl0nCneRT/lqjuKPao69bzk/Z9oc3ZjndQmJhe7s8igtbloSEU7Wd8eU8dvRPvHlPHb0T7x5Tx29E+8eU8dvRPvHlPHb0T7x5Tx29E+8eU8dvRPvHlPHb0T7x5Tx29E+8eU8dvRPvHlPHb0T7x5Tx29E+8eU8dvRPvCFu2hoXTtZ3g2qJWhCqm75TwH3jynjt6J948p47eifeJv4xrMfeJv4xrN9RN/GNZvqJv4xrN9RN/GNZvqJv4xrN9RN/GNZvqJv4xrN9ROI47WY+8eU8dvRPvHlPHb0T7whbloaF07Wd4ec+77RMTDe7P83qC92Y53Vran7aK9cvl/KdUdxR7VHXrecn7PtDu6sc7qCnEoKajkQQ6he1UFn49nkUFoUayUldJylgmKXsf0RS9j+iKXsf0RS9j+iKXsf0RS9j+iKXsf0RS9j+iKXsf0RS9j+iKXsf0RS9j+iKXsf0QlCiUalLqOmWCQhz8Qz6hCYmFE3au1Nz2fFmJMYroGJMYroGJMYroGJMYroGJMYroGJMYroGJMYroGIYk2yjSiRUcEhMTE/KT9mXWJ+U+77Qt1CNsoJcSsppOYa3V/m9QXuzHO6tbU/bRXrl8v5TqjuKPao69bzk/Z9of3VjndQe2zapTJJ3wlVb1aSORJlPhCz8c1yKD1lbJtCmVB70x5FxE6I8i4idEeRcROiPIuInRHkXETojyLiJ0R5FxE6I8i4idEeRcROiPIuInRHkXETojyLiJ0R5FxE6IasrVVmUio4JBl9tLLZGd8klvGLpa43wMXS1xvgYulrjfAxdLXG+Bi6WuN8DF0tcb4GLpa43wMXS1xvgYulrjfAxdLXG+Bi6WuN8DF0tcb4GLpa43wMIWS31GXELrE/KPd9oWqh6tRHKmU+AM7ZxUpEo73eGN1f5vUF7sxzurW1P20V65fL+U6o7ij2qOvW85P2faHUKW6wSVER7LenvBcO4gpqiEEXqfUNsqd2kSg+Z9QuFet2Stk4Ffh+oW0bciXFNlP9H1GxyxvQPvGxyxvQPvGxyxvQPvGxyxvQPvGxyxvQPvGxyxvQPvGxyxvQPvGxyxvQPvGxyxvQPvGxyxvQPvGxyxvQPvGxyxvQPvGxyxvQPvGxyxrQPvGxyxvQPvGxyxvQPvGxyxvQPvGxyxvQPvGxyxvQPvGxyxvQPvGxyxvQPvGxyxvQPvGxyxvQPvGxyxvQPvGxyxvQPvGxyxvQPvGxyxvQPvGxyxvQPvCGjcmSIps5fo+ouV66ZWydz4vp5Q4yprbxKC5n1CIdxZTTEIMvU+oaQpDr5KURnsd6W8F7sxzurW1P20V65fL+U6o7ij2qOvW85P2faPOGOd1CInUyukzSk75F1hCrSItEEZJokZmUphZ+UMciw4uiISoyVKzMrxGe/6BdaOBzQULrRwOaChdaOBzQULrRwOaChdaOBzQULrRwOaChdaOBzQULrRwOaChdaOBzQULrRwOaChdaOBzQULrRwOaChdaOBzQULrRwOaChdaOBzQULrRwOaChdaOBzQULrRwOaChdaOBzQULrRwOaChdaOBzQULrRwOaChdaOBzQULrRwOaChdaOBzQULrRwOaChdaOBzQULrRwOaCg2uuIUoiVKzIr5GW/6RPyv3XaFqs4i0UR00SIyKchDzreXSaUqMpEfWPOH+b1Be7Mc7q1tT9tFeuXy/flRkMlVJuF/+eqO4o9qjr1vOT9n2g/tDHO6hMTCz8oY5FhbjtqSEU7Wd8Tiv2viJxX7XxE4r9r4icV+18ROK/a+InFftfETiv2viJxX7XxE4r9r4icV+18ROK/a+InFftfETiv2viJxX7XxE4r9r4icV+18ROK/a+InFftfETiv2viJxX7XxE4r9r4icV+18ROK/a+InFftfETiv2viJxX7XxE4r9r4icV+18Qhx21NC6drO8J+Ve67RMTBfaH+b1Be7Mc7q1tT9tFeuXy/fibcabcU0bbjRmZyMKeU640htKqLGqlJ0jyhVytrdUU1qKZHfkHHHGroYqOo1FZn6wVbLdeR4zxZERSVLewhFu5EsJccMvEzUSTwnP/LVHcUe1R163nJ+z7Qrd2Od1CYmFn5QxyLC26lEolqScpXhZLyhzo9wsl5Q50e4WS8oc6PcLJeUOdHuFkvKHOj3CyXlDnR7hZLyhzo9wsl5Q50e4WS8oc6PcLJeUOdHuFkvKHOj3CyXlDnR7hZLyhzo9wsl5Q50e4WS8oc6PcLJeUOdHuFkvKHOj3CyXlDnR7hZLyhzo9wsl5Q50e4WS8oc6PcLJeUOdHuFkvKHOj3CyXlDnR7hZLyhzo9wsl5Q50e4WS8oc6PcLJeUOdHuCG6VGo1qUcpXxPyr3XaJiYTu7/N6gvdmOd1a2p+2ivXL5fvyoGFUZnRhwhyFYcIiUjBgBQzJWckyo2oWy0pxLhp2ScBh2Eh3TmtF8Ey2SyWSb5Jl/H+WqO4o9qjr1vOT9n2hzdmOd1CYmFn49nkUFms3kpJw0lQZ3pdos3MoXmT3CzcyheZPcLNzKF5k9ws3MoXmT3CzcyheZPcLNzKF5k9ws3MoXmT3CzcyheZPcLNzKF5k9ws3MoXmT3CzcyheZPcLNzKF5k9ws3MoXmT3BBrS6pJuGoqJ35BonVtIUb6r6SPAnuFm5lC8ye4WbmULzJ7gbiUmZHGHPm9wtm8t+XuFs3lvy9wtm8t+XuFs3lvy9wtm8t+XuFs3lvy9wtm8t+XuCDr2sWZ6PcLNzKF5k9ws3MoXmT3BBrJ5STcNRUEd+XYPOfd9omJhG7P83qC92Y53Vran7aK9cvl/KdUdxR7VHXrecn7PtDu6sc7qC3SQRYTngIgh6o6TSaVcBhZ+PZ5FB6yqI1O0HLhkKofKj0xVD5UemKofKj0xVD5UemKofKj0xVD5UemKofKj0xVD5UemKofKj0xVD5UemKofKj0xVD5UemKofKj0w1ZTUaXazlxpiHPxDXqEJiYMnCW54pRzVPeHjcSv4d48biV/DvHjcSv4d48biV/DvHjcSv4d48biV/DvHjcSv4d4ZJdqajQZFTK+JiYn5Qfsy6xPyn3faFvUmSSSalcBBDpLnhKWEjDW6v8AN6gvdmOd1a2p+2ivXL5fynVHcEe1R163nJ+z7Q9urHO6g4SpoUnCneCa1OEtSaZFIiCz8c1yKCzMniVQZlQZXhbftOZhbftOZhbftOZhbftOZhbftOZhbftOZhbftOZhbftOZhbftOZhbftOZhbftOZhbftOZhbftOZgkzU6aqDIqJXw04pLSEm0u8kiFseKczC2PFOZhbHinMwtjxTmYWx4pzMLY8U5mFseKczC2PFOZhbHinMwtjxTmYWx4pzMLY8U5mFseKczBBmp41UGRUEV8T8o932hVaXK0lVMpGQaJVS1qvGreDO6v83qC92Y53Vran7aK9cvl/KdUdwR7VHXrecn7PtDjdo8wmoy22DkDkM22Uzfd9GDuDbDbhmVs8Si3jl3BcGVuyVs5fJXB3BxhCFEm1fMzKd4iPsFknhitEu4WSeGK0S7hZJ4YrRLuFknhitEu4WSeGK0S7hZJ4YrRLuFknhitEu4WSeGK0S7hZJ4YrRLuFknhitEu4WSeGK0S7hZJ4YrRLuFknhitEu4WSeGK0S7hZJ4YrRLuFknhitEu4WSeGK0S7hZJ4YrRLuFknhitEu4WSeGK0S7hZJ4YrRLuFknhitEu4WSeGK0S7hZJ4YrRLuFknhitEu4WSeGK0S7hZJ4YrRLuFknhitEu4NsIWo02r5GRTvkRdguMrplbObn6OHkDjDbZkVs8ajwEUu4NwzbhTJ9304O4Nt2bz6ajPa4eQL3ZjndWtqftor1y+X8p1R3BHtUdet5yfs+0ecMc7qDxLqaWkqqTO9yhFbjxOGg0ESTK/hOYX9oY5FhytL6Vk2aioMr0uH0i3dyZedPeLd3Jl5094t3cmXnT3i3dyZedPeLd3Jl5094t3cmXnT3i3dyZedPeLd3Jl5094t3cmXnT3i3dyZedPeLd3Jl5094t3cmXnT3i3dyZedPeLd3Jl5094t3cmXnT3i3dyZedPeLd3Jl5094t3cmXnT3i3dyZedPeLd3Jl5094t3cmXnT3i3dyZedPeLd3Jl5094t3cmXnT3i3dyZedPeLd3Jl5094t3cmXnT3i3dyZedPeG61PqWbZpKgivy4fQJ+V+67QutDxuEg1kaZXsJSDBLrdcUmmqV7kHnD/N6gvdmOd1a2p+2ifXL5fvxxzRVSQsyI76iK8CUk0kojvH/wDlqjuCPao69bzk/Z9oP7QxzuoTEws/KGORYcU4byUJXTsDPBMUP5QeiQofyg9EhQ/lB6JCh/KD0SFD+UHokKH8oPRIUP5QeiQofyg9EhQ/lB6JCh/KD0SFD+UHokKH8oPRIUP5QeiQofyg9EhQ/lB6JCh/KD0SFD+UHokKH8oPRIUP5QeiQofyg9EhQ/lB6JCh/KD0SFD+UHokKH8oPRIUP5QeiQofyg9EhQ/lB6JCh/KD0SDanCeUhS6tgR4JCflXuu0TEwX2h/m9QXuzHO6tbU/bRPrl8v36baEuOMRRJKZmbauEOLN51mskEk2Z0rwAmiVcaFLqSbi8HBwB2bSnoZP/ACmVH84Q4grZ9C7OSSIk1ngKW8Gmq4pgnFVyYny3/wDLVHcEe1R163nJ+z7Qrd2Od1CYmFn49nkWFtNrMjOc+Uy6hc7X6tNQudr9WmoXO1+rTULna/VpqFztfq01C52v1aahc7X6tNQudr9WmoXO1+rTULna/VpqFztfq01C52v1aahc7X6tNQudr9WmoXO1+rTULna/VpqFztfq01C52v1aahc7X6tNQudr9WmoXO1+rTULna/VpqFztfq01C52v1aahc7X6tNQudr9WmoXO1+rTULna/VpqCGm0GZlOfKZ9Yn5V7rtExMJ3d/m9QXuzHO6tbU/bRPrl8v342WTOo20z4ZBTaFlJSSMhQi9sSvYAaUmZKkUy3wtptcqkEYpTOcr/wDlqjuCPao69bzk/Z9oXuzHO6hMTCz8ezyKCyrfSmapUGd4zLf9AsEcZzTULBHGc01CwRxnNNQsEcZzTULBHGc01CwRxnNNQsEcZzTULBHGc01CwRxnNNQsEcZzTULBHGc01CwRxnNNQsEcZzTUElQ8oiNUrOd8zPrDLRKZbUanJmkvxmLBHGc01CwRxnNNQNTBKMvHXuA1Ctj9/OoVsfv51Ctj9/OoVsfv51Ctj9/OoVsfv51Ctj9/OoN2LijIjenLfUohYI4zmmoWCOM5pqCCofUkjVKgjvmZ74n5T7vtExMI3Z/m9QXuzHO6tbU7bRPrl8v5TqjuCPao69bzk/Z9od3VjndQcdpkRFMzwEEOqqoWmRyne3ws/Hs8ig9Y1FWiZyvXjPqEoXEq0VCULiVaKhKFxKtFQlC4lWioShcSrRUJQuJVoqEoXEq0VCULiVaKhKFxKtFQlC4lWioShcSrRUJQuJVoqEoXEq0VBqwmqhEjlwGXWIc/ENeoQmJg23q1yJMjVPCKIjio0voKIjio0voKIjio0voKIjio0voKIjio0voKIjio0voKIjio0voGUOE4alU7WV45iYmJ+UH7MusT8p932hbqqqEJmcp394Nu1VEZSMsJBrdX+b1Be7Mc7q1tTttE+uXy/lOqO4I9qjr1vOT9n2h7dWOd1BxJqpNJyUQSlddazKcpERBR+Oa5FBdpaEpKSPYywyFb+KLSFb+KLSFb+KLSFb+KLSFb+KLSFb+KLSFb+KLSFb+KLSFb+KLSFb+KLSFb+KLSFb+KLSFb+KLSCbQ3DUpJFsZYZhs30IQmzK8UtsK38UWkK38UWkK38UWkK38UWkK38UWkK38UWkK38UWkK38UWkK38UWkK38UWkK38UWkK38UWkK38UWkEWloalJItjLDMT8o932hSV11oMpykZGG0mRqUo5qMM7q/wA3qC92Y53VranbaJ9cvl/KdUdwR7VHXrecn7PtCm0OPsJVg2Xo3g7DwzdPi1KNRyIqzDbDBroW0pKpT25mFwcPbslSd8lfiMOMMJcJCWVKOme6GQuYskV/aLmLJFf2i5iyRX9ouYskV/aLmLJFf2i5iyRX9ouYskV/aLmLJFf2i5iyRX9ouYskV/aLmLJFf2i5iyRX9ouYskV/aLmLJFf2i5iyRX9ouYskV/aLmLJFf2i5iyRX9ouYskV/aLmLJFf2i5iyRX9ouYskV/aLmLJFf2i5iyRX9ouYskV/aLmLJFf2i5iyRX9ouYskV/aG2GFOGhTKknTPdDMXHD3VKk9y4x8IcYYSskIaUpUp7cyDUPDOVeLWlSTkZVmEtobffSnBsfTvBe7Mc7q1tTttE+uXy/e3lvHFWaHybKieCYhn3DddaWol0EWzIQ8U4qI2W5rnZ80ORDqbtke5ypC1xcO2TqlpcT+K9IxEPuJU5QraM1HyngF1u3E+Z3nm03+8MPOW6m1nhQSkh2JiKH1tnetCQgPxiigkuI26ivdoVEPKUwm3JupqozMhDV7KqIJzkKWvqluCPao69bzk/Z9o84Y53UHkKM0LRKpPCEJdU6TjlJSKREXpCz8oY5FhwnbVK0UnsTK+chVFcRrSPuFUVxGtI+4VRXEa0j7hVFcRrSPuFUVxGtI+4VRXEa0j7hVFcRrSPuFUVxGtI+4VRXEa0j7hVFcRrSPuFUVxGtI+4VRXEa0j7hVFcRrSPuFUVxGtI+4VRXEa0j7hVFcRrSPuFUVxGtI+4VRXEa0j7hVFcRrSPuFUVxGtI+4VRXEa0j7hVFcRrSPuFUVxGtI+4VRXEa0j7hVFcRrSPuFUVxGtI+4VRXEa0j7hVFcRrSPuDZO2qlrpLYkV45iflfuu0LS6Tto3I5pkZH6AyhZKWtcqlcG9IecP83qC92Y53VranbaJ9cvl+9rhicizWtBGmzkLCIZbiGWkXlbRXBMOQFLSbJSzU3I0kZhbD5lGnRtyKnMFlFxCCaNmzT+IzOd4HDuG1GbHZLvJL0EI2FdU1U0WzopMuEhEsvWbK2i8Yi9nwhUMpMK02kpmS0mee+DhHbR/iUqs+VQUy8lcOq57SlqkymWEQ5rvzhrL+S7NfVLcEe1R163nJ+z7R5wxzuoTEws/KGORYc2T6UmtSSoM7xy3xZt45zTFm3jnNMWbeOc0xZt45zTFm3jnNMWbeOc0xZt45zTFm3jnNMWbeOc0xZt45zTFm3jnNMWbeOc0xZt45zTFm3jnNMWbeOc0xZt45zTFm3jnNMWbeOc0xZt45zTFm3jnNMWbeOc0xZt45zTFm3jnNMWbeOc0xZt45zTFm3jnNMWbeOc0xZt45zTDexfUklqUVBHfOe+J+Ve67RMTHnD/ADeoL3ZjndWtqdhifXL5fvzr7TUqlYcAREsrJRpXtcO9IJjYZSiIl4cF7CDjYZKjSa75YbxhKkqIjScy/wA9UtwR7VHXrecn7PtCt3Y53UJiYWfj2eRYUltW2Sk+UhYw+KRmIWMPikZiFjD4pGYhYw+KRmIWMPikZiFjD4pGYhYw+KRmIWMPikZiFjD4pGYhYw+KRmIWMPikZiFjD4pGYhYw+KRmIWLGKRmIWMPikZiFjD4pGYhYw+KRmIWMPikZiFjD4pGYhYw+KRmIWMPikZiFjD4pGYhYw+KRmIWMPikZiFjD4pGYhYw+KRmIWMPikZiFjD4pGYglLadqlJchCflXuu0TEwnd3+b1Be7Mc7q1tTsMT65fL9+iWyW+1Q6SXUkcp75CtJ3S1EEgjoKpaeAwq1h0M2lm63UkivXxCStIyeM7AhKlofsVSTb7Epyq9BCCUR2qdmRpO+lRzl/lqluCPao69bzk/Z9oXuzHO6hMTCz8ezyKDticQm0plZntuUSgeBn4CUDwM/ASgeBn4CUDwM/ASgeBn4CUDwM/ASgeBn4CUDwM/ASgeBn4CUDwM/ASgeBn4CUDwM/ASgeBn4BuxJ9VnTKz/Dyhhhg2GjNpG0LeFzw+JRmFzw+JRmBmxUoihEnI5bwm1kSfgJtZEn4CbWRJ+Am1kSfgJtZEn4CbWRJ+Am1kSfgGiYWs0nDJTengIXPD4lGYXPD4lGYIShEQqlJF4ssHKJ+U+77RMTCN2f5vUF7sxzurW1OwxPrl8v351hp6VaJhEMwhKkpQUjwhMHDIVMmymFQUMpRqNspnhCodlSCQaCpLeDTLbRSQmX+WqW4I9qjr1vOT9n2hzdWOd1BxxRGlKZTUELcJyhZkcymRhZ+PZ5FBxzZEmzqOU97tFR5MfRFR5MfRFR5MfRFR5MfRFR5MfRFR5MfRFR5MfRFR5MfRFR5MfRFR5MfRFR5MfRFR5MfRFR5MfRCHNkabOk5T3uwQ5+Ia9QhMTBsOVLMnCvnPaixexqdH6ixexqdH6ixexqdH6ixexqdH6ixexqdH6ixexqdH6ixexqdH6hppSVmpSyO9LBITExPyg/Zl1iflHu+0LW4blCDIr0zMNuKM1JVKaQ3ur/N6gvdmed1a2p2GJ9cvl/KdUtwR7VHXrecn7PtD15xnndQWSVy2UjLAYQUlVKcqMKUVs1f3lBc6yUlacEr4m9x2831E3uO3m+om9x2831E3uO3m+om9x2831E3uO3m+om9x2831E3uO3m+om9x2831E3uO3m+om9x2831E3uO3m+om9x2831CZ1mpS07WV4ItUISm0bvFLB9RN7jt5vqJvcdvN9RN7jt5vqJvcdvN9RN7jt5vqJvcdvN9RN7jt5vqJvcdvN9RN7jt5vqJvcdvN9RN7jt5vqJvcdvN9RN7jt5vqETrNSlpwSvCorow/8faFkRqqS5SoIJKJ7OZnhMM33Hub1Be7M87q1tTsMT65fL+U6pbgn2qOvW85P2faKUriGCUkjLZYeQPNspoSiHaNSjvTSG22ycs3WGZymRknCFw8PdDHiUYF/hIXNDYhvRIIZhyVFHYovK4pcUh4XTM/ImMw8LoyFjMPC6MhYzDwunIWMw1NcYi2lKVCtEZHLaiTDME47c6FUmv8AD+oFqunImMw8LoyFjMPC6MhYzA9V05ExmDFzxEDa3O2kzQr8Ih3UKsZwzNKpJ2t8E43a/ZmaK6drfBuN2v2Zmiuna3wpxsnVeTM0Euna3wdgxqdbXOhRkXF9ILVdORMZh4XRkLGYeF0ZCxmB6rpyJjMCKHe1OU9c6EmbSvwjVBxiEYQpMM2ZmctqPC6chYzDwujIWMw8LoyFjMPC6Zl5ExmDzMObTSiYQU1t/hLfMXNDYhvRIXPD3VKxRuXFLhDjbdpZtQ7M5TMzTgDLbKjWlcO0Sk4diQpSiIfJKSItjg5Avdmed1a2p2GJ9cvl/KdUtwT7VHXrecn7PtCftLHO6g63XSZKpUnAYbaXXW4upUpFekRBz7SxyL1ku0PRJWaz2ZYCn+EguFgVqNRwTk+QyFxan5E78RcWp+RO/EXFqfkTvxDa22k0ohnEl6Ehh4rGk2XDKpf4fSDg9TzOdxOZjFxan5E78RcWp+RO/EXFqfkTmYwt5KWFpSw4RUH+EMsMkTblmmqkr4sGbS0s01cIsGbS0s01cIsGTctLNNXCGHU3MlCmVqKXFmQuLU/InMxi4tT8id+IuLU/InfiCg9TyOdxOZjD7xXM6kmXCKzP8PoC1tut0rhnFF6ouLU/InfiLi1PyJ34i4tT8id+IRCwKFEooJyfIZh56omys3C8ajCXp1vO/ddocaXXaNrpVKR3pkYaboqNSqlKwmFfaX+b1Be7M87q1tTsMT65fL+U6pbgn2qOvW85P2faC+0sc7q11/aGORes3OuKlhr/AOpBb2qSFqJS3SP+RdWqONe+IurVHGvfEXVqhjXviNSbquc7eeHYz4AdtcDllt5rlpC6NUUzK0eLOLq1Rxr3xF1ao4174i6NUVXrR74iHt7g8dt6FTENdFbO6VXqsNNIK6Lp/wCSq09NNIO6Lp/5KrT000hd0XSe6VV7HDTIKt/BvidvK9nF0aopvWj3xF1ao4174i6tUca98RdGqKpFaPHnCbbwaq229kqY1Uum5U2E/wBUuAXVqhjXviLq1Rxr3xF1ao4174hD2qS1pJK3jPewh6dk1PDaNzz63nfuu3XP7S/zeoL3ZnndWtqdhifXL5fvq4tbcXQois71/gMxdMnogl3kIJJ5wUa3JWxVMkzkZYSDEYhxJTI0nRUYTFsGhtZHeWciCI1hakkU9ltTleMPx5WT1lOpG/K8EPIU4bZYSK//AI6pbgn2qOvW85P2faPOGOd1a6/tDHIvWTbW0RQaJVlhL9JC7L5ldUPe/wDcIuz/AG4b/wB/Iuz/AG4b/wB/Iuz/AG4b/wB/IbcecTUh1lRegj7wwcQTM62iKpeEj4eUFGz87hv/AH8i7P8Abhv/AH8i7P8Abhv/AH8g42XncN/7+Qs4hTKzJxoyoPAR94ZiGTJCLQqqSvC6GbSztCq4BdDNpZ2hVcAuhknKLQquAMG+mHSdbRJ9JGCjZ+dw3/v5F2f7cN/7+Rdn+3Df+/kHGy87hv8A38h84g4Z062jKzPAR8HKFOPNoqW6ykvSR94uz/bhv/fyLs/24b/38i7P9uG/9/Iuy+RXVD/+/kPW8m6lIlaIwEfDred+67dfzh/m9QXuzPO6tbU7DE+uXy/fTYtHYglFsVISQuWLWmKSor+wkfGpDbClLUdk4WwMiNap4Qtl82YeTZkok2auQ98FCuXQtJlJsiUaT9KikEtRBtw7FlKzUU1b17gBsO3FFIo2SlnLOIVtyHWpuRmg9kSu/wDx1S3BPtUdet5yfs+0ecMc7q11/aGOResi+uKLhV/1IL1EiqjpNJlyjwLGfozjwLGfozjwLGfozjU6EOFaNKlTMzmLK2gltzlUa/mB6ixk/wAGceBYz9GceBYz9GceBYz9GcMsXPBG3VOSFBiEcImdkVBSV6QUI5abYqK6vSDhHLTbFRXV6QqEcNxWyKg11ekWF0an2c5TLtHgWM/RnHgWM/RnHgWM/RnBaixk/wAGcWNhqetuc5NKEfCHFMJSlUjK+PAsZ+jOPAsZ+jOPAsZ+jOEaiRRqKpSCIPFJtouBbfXrede67dfzh/m9QXuzPO6tbU7DE+uXy/fbVonCbqKoywCZAjnrOOIbIjUe/LXW4huVR4Tl/jqluCfao69bzk/Z9o/52Od1a6/tDHIvWJtBuRKlGq8reUZfhLgHhOEmewf0z7x4ThOI/pn3jwnCcR/TPvHhOE4j+mfeINbEUg1JtSkd8q1AkstQqnFG5IjV+NXCC1Uhd9t/+w+8eE4TiP6Z948JwnEf0z7weqkLvNv/ANh94QTL8KbqTcvpP8agxGTJoqDpOREoXZs5UHTVTULs2cqDpqpqBxklnsDpJUjUPEtQdqs13uBZ8ILVSF323/7D7x4ThOI/pn3jwnCcR/TPvB6qQu82/wD2H3g0suwa3Um5fbP8ahFLYhWkqVaHPAVah4ThOI/pn3jwnCcR/TPvHhOE4j+mfePCcLMtg/pn3hxtBJbUk17ojCoz39bzr3Xbr/8AO/zeoL3ZnndWtqdhifXL5fvqnajXEWa6icmg5XqSCyJyLWonFSOGneMNqphoRBLdM1lOScOcIiHlM0VmXj6Kt8iEU2tDVNua/HIlPCQeedh1xKSWpXiqinvGG1RSFpVJyRpOqoy+AWSzZhHFPGqtxJmXd/jqluCfao69bzk/Z9oPd2Od1a693Z5F6xPNIdiCWsi2RfKQXA6mKUZk9L0EY8H6m5SrOQ8H6m5SrOQ8H6m5SrOQhzgodFLbhBt2FUwaFrTIzVPOD1P1Nn9oPOPB+puUqzkPB+puUqzkPB+puUHnFrCNw6m0LTIknIMwrRE2q/gI5TvTFytV138M5TvTFytV138M5TvTBwrRuVX8M5TvTCHIVcMTbiy9JDwfqblB5x4P1NylWch4P1NylWcgWp+ps/tB5wt2FRCrbQtMrMyIg+cFEN0OLIeD9TcpVnIeD9TcpVnIeD9TcpVnIIgNTEqmbxn6DMOvsqJtKVluiL3863nXuu3XLd3+b1Be7M87q1tTcMT65fL98UklJNJ74S2hLZIItjKQKDYI0GRbUpFyC4IaRFI7x3r+AFAwxEoqNthBQbBJlL8RH/JBTDSlmsymZppPkDcGw2qpJX+XALghpkdOA5lfwf46pbgn2qOvW85P2faD3djndWuvd2eRWsgzJUT63/Ugeq0aSj2Rckh4XjeMnMPC8bxk5h4XjeMWYamxLz7Jm5vHhFotuCcWgr5Gv5h4WjS/EWYeF43jJzDwvG8ZOYeFo3jFmDDrjsFWvCaDDEQ4dls75mRGjgBRDlrt79crP0A4hy129+uVn6AqIcJ09nfJciRwhTrjWp9aMJF2jwtG8Ysw8LxvGTmHheN4ycw8LRp/iLMCcW5qepayvm0Y1QiHmGEm3w4R4XjeMWYeF43jJzDwvG8ZOYeFo0zLZFmDxmbbc+Ojr1vOfdduuW7v83qC92Z53Vram4Yn1y+X77GPrbU0klEhKjvr4Ab77TLqzNLqSLYmkXYUkFZrrNM6SCo9kktnJR1zIi35kHIxKJ+LXJJbI5YAuLbSokkSlGZVXt4gUc0pCFJSo6jMklv3gy+l4jkRkZHIyPe/x1S3BPtUdet5x7vtCt2Y53Vrr3dnkVrJU4Tr9Lc9kW/L8JAyrO/CoM+UhZlkTfwFmWRN/AWZZG38AS3ZXmCl6wYW9Z7j+JX4vSKCO/cjZ/yQsyyJv4CzLIm/gKCK/cbecg4t6zX4n8J/iDVNCOGkhsZ+kbGfpGxq9IYW7Ypk1MvWFBHfuNvOQsyyJv4CzLIm/gKCK/cjZfyQfW9YO+J/Af4hW7TfYKUuMLMsjb+AsyyJv4CzLIm/gCKg70Kgj5SDq3Tom1IrRG/6dbzn3fbrp3Z/m9QXuzPO6tbU3DE+uXy/fX7cjTS2S0/iTvgoR1V1GTZNktuRI9PCEoiELS6TM/F0qTPgDcI8hTClS3Ra1eioPwsS4uIKmdW0Oq8X8Bu1acIzSmZtERlVgkGoVamYdymqVU0kdOHgEGzZpWZt0Go+NV/jqluCfao69bzj3faF7szzurXXu7PIrWRtoj1v+pBcDGko9go/SQuONxSxccbili443FLGpzLzLJk5vneIULXBrSg751dYuKNL/iULjjcUsXHG4pYuKNxSwy2tqCoWd8kGGGXCsthfIyM1gmXLTaX651+gGy5abS/XOv0BTLhunsL5rmSwpC3IChB3zLtFxRuKWLjjcUsXHG4pYuKNP/iUCQtuANKzvk2Y1QZdeYSTe9vC443FLFxxuKWLjjcUsIgY01FsFF6TDu5tz46OvW8593266N2e5vUF7szzurW1NwxPrl8v5E4y07t0EoEUr3+WqW4J9qjr1vOPd9oXuzPO6tde7s8itYiUbj5k4adl6OAhdzEz8rXol3C7mMrXo/QXcxla9H6C72MrXo/QMrt01IiVZiDc0Mmo31ERGreLhF3sZWvRLuF3MZWvR+gu5jK16P0F3sZWvRLuF9xg1piFGRpPeINRDZkhN/ARTleF0N1038MpyvTF0N1038MpyvTF0Nkum/hlOV4ImiHJZvqSnkIXexla9Eu4Xcxla9H6C7mMrXo/QXexla9Eu4LmuGWsn1GRoPeIOrsUEpcQoi5CF3sZWvR+gu5jK16P0F3MZWvR+gu5iZeVr0S7g4lckHamZVo4OHW8593266N2e5vUF7szzurW1NwxPrl8v5TqluCfao69bzj3faHN1Z53Vrr3ZrkVrIlW+R8b/qQVqQU9i9eHgg8eWYeCDx5Zh4IPHlmELDoh0Ukqc8IShLsMpBneM1dY8EfvlmHgg8eWYeCDx5Zh4IPHlmCW0MwxoSeBJhqHklvZ7EpGRC59lt9jVOQufZbfY1TkDh5qPZ7E1TMgTaXoQm1HhIeCDx5Zh4IPHlmHgg8eWYeCP3yzA0JahFoSeBBiJh0RDRJNUpYB4IPHlmHgg8eWYeCDx5ZgnUgp7J68HZEhBFx0det5x7vt1291e5vUF7szzurW1NwxPrl8v5TqluCfao69bzj3faHN1Z53UHj2TaZyIzvhOwepSd6nBwBW7Ncitahs1vqUgjv8HoF3omfkrY8IIyRseEEZI2PCCMkbEGpmIQZmwgjI+ASZbhlOWKTkat70i70ZK0PCCMkbHhBGSNi70ZK0G7F6GtLFBbE94NPuUNHIqTkXpFu5Ocipqp9It3JzkVNVPpBvuTM5FSSpekHZNwlobSVHyC70ZK0PCCMkbHhBGSNi70ZK0JMuQhuWKSmg94RamYdpKiYQZn6B4QRkjY8IIyRseEEZI2LvRMvJWwtDVLaktpLZo3vTrece77QvZvUKO9TOXCGT2TiZzIjvBvdXub1Be7M87q1tTcMT65fL+U6pbgn2qOvW84932h6dozJJntsHIFEpRSOHcPmhCKNrDuFzQqu2a8S5gV+EeMxLuiG663vEubbi+gKgmVHM4RzMY8HsZI7mMeD2MkdzGPB7GSO5jCEWZUph3CL1Q1UbUrFwymr8PpBwDGSO5jHg9jJHcxjwexkjuYxcDGSO5jCiUlpREw4RUn+ENtXkquZc5YaRZbKq5nJ+qLLZVXM5P1RZbOq5nJ+qGSUbCSNhwylxRcDGSO5jHg9jJHcxjwexkjuYwUAxkjuYw7UTDhWDhFQf4QpFoilUO4ZeqPB7GSO5jHg9jJHcxjwexkjuYwmCZScyhHMxh6ulPiXNun8PpHjMS7ojZ2+4ubTi+kLRXtodw+aEkpJSKHcLmhmdo9NJltcPIF7szztbU3DE+uXy/lOqW4J9qjr1vOPd9oR9pY53UIhSqmmyUaajOZ8gRNqIJslGaTRO/flIOfaYfkXrNzri5Ya/+pBcTqm24olOOke+Lu1Rxzou7VHHOi7dUcc6NSDijhzt54djPgB21wO2O3muWkLr1RTMrV0hd2qOOdF3ao450XZqiq9auiHN/wAH+P29CpzEKcTWzulV6rDTSCOJun/kqtPTTSDOJun/AJKrT000hZxN0nulVexw00hZv+DPEbeV7OLs1RTetXRd2qOOdF3ao450XXqiqRWrphNt4MVbbexVMaqnFFCpsJ4dlLgF26o450XdqjjnRd2qOOdCInVNxaSS46Z7wfnZNTw2jc8+t537rtC5uxFmajJJInevTmGDUS3WzUaiSZSPl3gv7S/zeoL3ZnndWtqbhifXL5fynVLcE+1R163nHu+0I+0sc7qC0IcKSimG2W250lh3wv7SxyL1k29tE0GiVZYZ8Uhdl8yumGvC6/8AZhc/1F1/7MLn+ouz/Zhc4bcfcTUhxhReiYYOIJmdTRFUvDPhBRk/OYbOLr/2YXP9Rdf+zC5/qDjJecw2cLVEKYWZKZMqDwTDMQyZNotE1UleF0M2lnaJq4BdDNpZ2iauAXQyTlFomrgDCn0w6TqaJPpmCjJ+cw2cXX/swuf6i6/9mFz/AFBxkvOYbOHziThnTqaMrM8E+AKcfbRUtxlJemYuz/Zhc4uv/Zhc/wBRdf8Aswuf6i7L5FdMNfD10SbqNuVqjBPh1vO/ddocZbc2xfyG20NlJJSC/tL/ADeoL3ZnndWtqbhifXL5fynVLcE+1R163nHu+0J+0sc7q11/aGORes3fXFFwr/6kF6iRZKOmky4ZjwLHcCM48Cx3AjOPAsdwIzjU2DVCNGlSpmZzFlbwS25yqNfzA9RI2f4M48Cx3AjOPAsdwIzjwLG/ozhli54E2qpyQoQ8G6VjfTSUlT3wUG7a4U011T3wcG7a4U011T3wqDdN1V9NJrqnvg2Lo1OsqpTLtHgWN/RnHgWO4EZx4FjuBGcFqJGz/BnFjYanLanOlpQ1QhFRbCUpVIyvjwLHcCM48Cx3AjOPAsdwIzhGokWaiqpIuGYeKTTRcDjfXred+67ddX2l/m9QXuzPO1tTcMT65fL99eW63FrdIzoQlNSfQe+DirJ2LcnNJJbl/IKNcM1I8WZ0GZGntDMW4lCbWW4VkfIExyrNuaNkajJRcFIRGPSZcU2km3DIiv3ymH4h52FiTpIkJmXpwiHfN5SjSXiyvErhP/HVLcE+1R163nHu+0F9oY53Vrr+0Mci9Ym0m7EqNSykosCjL8JcA8KQkzvRGmfePCkHxYnTPvHhSD4sTpn3jwpB8WI0z7xBrYikGpJulI75VmEpaahVOKU5IjVgWfGBaqwm+mI0z7x4Ug+LE6Z948KQfFidM+8HqrCbyYjTPvCCZfhTdQp2RpPCswxGkZNFQdJyIlC7StJUHTVTULtK0lQdNVNQONInDKg6SVI1ArJqDtVqcvcCz4QWqsJvpiNM+8eFIPixOmfePCkHxYnTPvB6qwm8mI0z7waWnYJbqVOSNs8KzEUtiFaStRunPARLMeFIPixGmfePCkHxYnTPvHhSD4sTpn3jwpCTLYxGmfeHGkElpRKXuiMKjPf1vOvdduuf2h/m9QXuzPO1tTcMT65fL99JnxrijwKSRS5AnUwpPpNzYrlT6KQ3DOzVaOJMqZXkyCoFammUG4WwPDLCngBQZFEuOmq8pO15QmCX4tCnZtoOZFK/e4QcGdzPNV7dRnPlDcPYvKUg5IUV9Pp/x1S+zp9qjr1vOPd9oL7QxzurXX9oY5F6xPModiCWtJbIsPqkF6n6mKUZlEU+iZDwbqblfxIeDdTcr+JDwbqblfxIQxwMMiht1OcNuwq4c21uIkZqnf8ASD1O1Nn9q+JDwbqblfxIeDdTcr+JDwbqblXxIWsG1DqbbcRIknK+GYRoibVfwEcp3pi5GrSu/hnKd6YuRq0rv4ZynemDhGjcrv4ZynemEOQi4UmnXE4L5THg3U3KviQ8G6m5X8SHg3U3K/iQLU7U2f2r4kFuwiIRbaHESJsyIph84GIaJDjqc48G6m5X8SHg3U3K/iQ8G6m5X8SCNT9TEqmcRV6JkHX2FE2lDiT8Yi8R+nW8691265/aH+b1Be7M87W1NwxPrl8v31UYhMSlinD+L0hUWwhw2zWRGSZhEUwponKyJPKLRFNVRU8IdikIbStMlEaiK96QlaFTpURyCHWlmZJWkzL0h2KQimmStmSTv4J/46pfZ0+1R163nHu+0ecM87q11/aGOResg5KifW/6kPDEaSj2uYeGY3hRmHhmN4UZh4ZjeFOYamRL0QyZubx4RaragnFoKZka/mBasRvCnMPDMbwozDwzG8KMwPViN4U5gw8t6BrWUjNBiHinTNnZlfMio4AUU7bbct0pswcU7bbct0pswqKdJ49mV5cqOEKeWzqdWgr5F2gtWI3hTmHhmN4UZh4ZjeFGYHqxG8KcwJ1bup6lrKRm0oaoxLsPDpU3vnhHhmN4U5h4ZjeFGYeGY3hRmHhiNMyvpzB45ttn+tHXrede67dfzh7m9QXuzPO1tTcMT65fL98UokpNR7xCwjHGFuSRs1WnpvYBWhyIJZp3SGvcoJ1JMwRSSUpzUZTpMNn4tRKI6SiJqKX4TD5Qy21WSLxvInwGIpCieiUtJww+9yhpKVuIodKpKDvEiWcTYsoJKU+MJaar2Dl/x1T+zp9qjr1vOPd9o/52ed1a693Z5F6yVuE6/S3Vsy3/ANJBSSWc1QaTPmixRkCOiLFGQI6IsUZCjoglukRSh73rEIdx2y3H8SvxFwizQq/cSD0RYoyBHRFijIEdEWaCv3Cjohxx6zX4j8J/iINU0IwTpIbGe9MbGe9MbGremIdbtiiTMy5SFmg79wo6IsUZAjoixRkCOiLNCb9xILRD7jtg74j8B/iIVumm/D3pcYhYoyFHRFijIEdEWKMgR0QlJIOaYNJHzQ6twyRNqXjEX5lw63nXuu3X/wCd7m9QXuzPO1tTcMT65fL9+kQkXBrSLXkX+Oqf2dPtUdet5x7vtH/OzzurXXu7PIrWRtomXG/6kFwcclZ7BZ+khcsdinBcsdinBcsdinBqYy8yyZO753iBoWuCcSg9kdctIXJHF/xOC5Y7FOC5Y7FOC5I4/wDicDCHG4Klw9kSDDDLhG1sL8yM1+gEy5a7S/XOv0A2XLXaX651+gKZcN49hfrmS/QFIcc1PpbPZGXaLkji/wCJwXLHYpwXLHYpwXJHH/xOAkLRqeaVnsiaOY1RZeeh0k1vYSFyx2KcFyx2KcFyx2KcCIOOUotgsvSYdnZtz46OvW859326/wDzvc3qC92Z52tqb5z65fL99jW3FG0ZJNaCPZIK8DWlLMUbBrQokzNCt4JeiTNDSTRVZkpSjIXa+qxJCU1KWpB8E0iIjHWjXs2tgWDCZi6XXHCS0SbyCUc/TvAtUV2bU6EqUar570hBxJvk4RyM0HKZYD/x1T+zp9qjr1vOPd9oPd2ed1a693Z5FaxEs3HzJ007It4uKQu9iZ+WHoC72MtPQ+gu9jLT0PoLvYyw9D6BldumpESZl6pBupDBqN8yIjVvFwi72MsVoC72MtPQ+gu9jLT0PoLvYyxWgNk4wpaYgzI0nvEGoloybTfwEU5XhdLVdN/DKcr0xdLVdN/DKcr0xdLRLpv4ZTleCJohyWb5pSXoIXexlitAXexlp6H0F3sZaeh9Bd7GWK0A5UuGWsogzSaD3iDq7FslLiTIvVIXexlh6H0F3sZaeh9Bd7GWnofQXexMvLD0A4lckGbpmVojeLh1vOfd9uuW7vc3qC92Z52tqZ5z65fL99eYUtSVodNCizC4qrU3XKlLRTPBIhcjmwUT0lkmmcsJBMElBsmSj2CjVymYXAVKe8aZJc2xBbRw5o2Tu0pNSSnMMwarBk6jQtM5fzwhltaE7Jw1nw/46p/Z0+1R163nHu+0K3ZnndWuvd2eRWsi+uIL9X/UgrUbZbF4pekeBl45OYeBl45OYeBl45OYQkMmGRSSpzwhLaXYZSDwGausHqMrHFmHgZeOTmHgZeOTmHgZWOLMENJYhTbSeBJhmGklrZ7EpGRC5tlt9jVOQubZbfY1TkDhpqPZ7E1TMgTSXoMmz3yHgZWOLMPAy8cnMPAy8cnMC1GVjizA20tQa2y3mzEVDJiWiSapSwDwMvHJzDwMvHJzDwMvHJzBOo1/ZPFL0B2RIQX60det5z7vt107s9zeoL3Znna2pnnPrl8v5Tqn9nT7VHXrece77Qrdmed1a693Z5Fa1DRriFKQRyVwfpHhBqZ+SNjwg1kbY8INZG2PCDWRtiCUxEtmZw6CMj4BSw3CqcNlJyNW96R4QbyRseEGsjbHhBrI2x4QbyRsNEw9C2liktie8GYhZpaOkqTkXpF0LnOkqKqfSLoXOdJUVU+kHELIzOkqSVL0g7FqEtTZSo+QeEG8kbHhBrI2x4QayNseEG8kbFLDsGpwmUlNB7wi1MQ7SVWCDM/QPCDWRtjwg1kbY8INZG2PCDUy8kbC22SS2pLaS2aN7063nHu+3XTuz3N6gvdmedramec+uXy/lOqf2dPtUdet5x7vtC91Z53UFLSkpmcghxC9qcwvdmuRWslwkuPXlbYsBT3gqGglHM2F5jFyQOIczKFyQOIczKFyQOIczKDamm00oaWReqYadQbUjQs76vwnwg4WCxDmZQuSBxDmZQuSBxDmZQuWBxDmZQU4hLSkpbWRUn+Ew0y0RIVQU5CxarroKYsWq66CmLFo110FMNOINgkqQoy9UzFywOIczKFyQOIczKFyQOIczKBQsFiHMyg66gmFpJCy2B/hMLU04ilbSzL1TFyQOIczKFyQOIczKFyQOIczKCYaCScyYXmMOOkZIKlW3T+E+HW84932hbiEbY5BK0qKZHMI3V7m9QXuzPO1tTPOfXL5fynVP7On2qOvW84932hzdWed1B7bNqlMiO+EnW9WkjlTIz4QrdmuRWsidT8uN/1ComNSo5rWRi7IzGqF2RmNULri8aoanqfNo7WeG9MTcuRdnttlLOLqjCvWixdkZjVC7IzGqF1RZ3rRYZN04Txu2pMMmvxV9dd6Zb0hNdphXXXg3pCa7TCuuvBvSCjXaHfXXVeLekFG6UF4vbSF1RZXrRYuyMxqhdkZjVC6ow71osEblxHabazOYj1PkwVlP0yF1xeNULsjMaoXZGY1QTExqlFJazMOzoRPDWjr1vOPd9oUdD1aiOVMiPgDO2cVKRGd4N7q9zeoL3Znna2pnnPrl8v5Tqn9nT7VHXrece77QpC1vMkmU9lh5AqHfSU1ONEX8hDLrhTQ6yfJMLhoi2ZKpvArhFyxPGa+ITBRJGs6275+kXLE8Zr4hyIbbORxLM/RMMkp8vFPMqzi5YnjNfEPOEwclxDJHwXxCmTmwbiGTO/ev74uWJ4zXxD02N1fZTnDcQ24ciiWZ+mZC5YnjNfEPMuobUbjzKSlhvhES1eTdLWZQKHiFFMnGjL+QcPEJKZuNEX8g4tojldLOZQh2HFNJs3mVFw3xcsTxmviHIhts5HEsz9EzDM39yfZVnFyxPGa+IijJslIciGSMy9IYWTx0txDJnwXxcsTxmviHiUwXjXmU5w3ENuHIolmfpmLlieM18QuCiVEWzbwke/vC5YnjNfEXNEXRKpvc/TwhbLzZTW6yXLMJh31FNLjRl/IShaHniVKexwcgXurPO1tTPOfXL5fynVP7On2qOvW84932hH2ljndQidsypRTQSr4bUhcTW1goko+HgCz8pY5FiYmNVIlZLbYTemVS+QhQpaSVDkhKPSV+YrNkzopJ9JTUZFekIuOUUC243tnZEXomJVmuyorTuhmXUCKg0WlForczIusQ0eo9T1vL2zcyP8AgVG8ZVUm+opkZlekKTQmqIJCkegr8xqZErUp1lZ7W+k/0mHooohZrdLYmulouCQsnynaWVJbYpFgGp0VQ+22ncXC2JcBkNUYqt9xtW5Nlsi4TMWT5ys7Kk9qUiwBmKKHWS2i2JLpdLhmNU4laVNMoPbX1H6CFJrTVDkhKPSV+YqNkzppJ9JTMyK9IRMeotT0PI2zkiL+QZVmuzotE7oZl1AioNFrRWrczIusQkco4FxxzbNTI/TIVm8ZV0m+oppMyvSFCkJNUQSFI9BX5jUuJWa3GFX5FUjkMTExPyv3XaHFJRE1u7WiST4OEQ23eUkpIM7wX9pf5vUF7qzztbUzzn1y+X7+TiFIrJRGnhCoqGTTU6kqivXwlxtZTSojIJiWFqpS6kz4P89U/s6fao69bzj3faE/aGed1Cesv7QxyLExMaptndLSt5aDRP0gnUw5E2ozJZYTlO8e8FESqn0FsaKCLfngEUwtGp8NevtGRqGxhjUaj26qkXsHpGxiDQpP/GqpfpENDrXqZEXr7hmogREmT6y2FFJlvzwA3ExJG2k5rPflK8W8NTGjt31fhJJIzAmFlhvWLh1cguphWxKq/OkpbWfWIOHWUVDoxc1KPlEZDrOKiEYySknyC6mE7E6r0qiltpdQNhZ4L9s4VPINU2jJ9hX4TSaM4JxMMRNqOSy35TvHvAyJU30FsKKSLfngETDrRqZD3r7ZkoxsYc1qV/yKqR6BsYk0mk9oqpd7D6RCsLXqfE3r7pmaQkiTS+stjRQZb88AN1MQRtpMzWeA5SvFvDUxs7pdVvIQSJ+kTEx517rt1phX2h7m9QXurPO1tTPOfXL5fvzm5r5DEMaU6lpv4GwmaXYCTVfk57EJh1HdKlkTSXEyl2g5spaJ9lCkEoiJad7/AD1T+zp9qjr1vOPd9oL7QzzuoTEws/KGORYmJhxCXEmlWAK1MeK82+VO8SinIQ0ATa63HDWre4Ad/CHdTVVGbL0iP8J3w1qaqojeeql+ErxDAIiArXW04aFb++QTqY8d5x/Y75JKUwhKW0klOARUGl+R1GlZYFEPBsTP7QnlJN8Q7DcOilOcxEMNxCKVZyHg2Jn9oTymm+IWESxM6jUs8JmFpS4k0qwBWpjxXm39jvEopyEPAWa63XDWre3iGEO6mqqM2XqZ/hO+Qa1NVURvPTIvwleBXhEwBOLrbcNCt/gCdTHjvOP7HfJJSmG0JbSSU4BMTE/KvddomJg/tD3N6gvdWedramec+uXy/f1anQxngVLfTO8LBu1Q5K+lNJcgUhK0mlRTIwUCyRpPZnTgI1TL/PVP7On2qOvW84932j/nZ53UJiYWfj2eRQmJiIiksEU8KjkQeiolK5OxNJ8VJBiNdQmt1wltHgVK+HX0NNG4o7wiIuI2xv0IPa0lhEPFxF9VtaILbTK+QbfQ40ThHsZB+NeWmttwkNcaV8MxMSpcmomo+KohDxKH0nLCRyMREY4o1oYUWw2xhMW8atjGHP0pvCGijUqyclakV+QiYo0qsm5WplemFRbxK2UYc/Qm8IeMcSaEPqLZ7UxERKGElPCZyIPRMSlcnYmk+KkgxGvITW64S2uNK+HH0NtG4Z7GQiIuIvKtrNB7WRXzEPFxG2J+tBbaosAafQ60TiTvB+NdWmtpwkNFhVK+GYqJUuTUTUfFUQh4pL5HLCk5GJiYn5T7vtExMf8AO9zeoL3Vnna2pnnPrl8v5Tqn9nT7VHXrece77Qe7M87qC3EoKZhDyVmZXyPgMLPx7PIoTExHGd1p9DSjTyiG+ztmop3zvymfJyB2du6k8FjfLeK9vB4zOBgiPBUUwxM1RJqKZEu/vy5PSHpk5C0lIjVg4eUMmZanRRFgqOQandCElfKxvFvHe3xFfZ1mkpFMr8pHycggjVdLvpaSZ8oSZyYvnfdOYUV5ySCJRJOciweqIQztYM9/ZF/AizO1jD39iX8BJXm5oI1GRSmWH1gozk/fO86UhGmq6WvQ0oy5RC/Z0moplM78pnycgdndC0neKxvlvFe3g8ZnqdCkeCophmZuRUymRKwcBegPzJUMaSkRrvb0+UMmZQUaRYKjkGp27SSwWN4t472+In7O4aSlfK/KR8nIIEzutXpaSauUTExPyn3faFvJRIr5me8QQ6lZXgW7Pc3qC91Z52tqZ5z65fL+U6p/Z0+1R163nHu+0K3VnndQdJVSFkU6d4JqW6SzTSRFILPxzXIoTExEsWlCy2yMHp9AcPZ7I3GjwUyvfwGGzeRZklVHHO8fIHmEOM2eDg9AiJ1ES62zLAab5H6RDzMzSgluTwqVekGmENsWW9vh9s2kWRpVRvOJvnyBo9nsTcdVgpMr38iGZs61HtlnMw+0bFZoQZpUe9hTyBNJGXjXjlgTIQ7JmsnlopOUiTwCIZMlm8hFRykaeEKpMz8a8U8KZBho36DWgySk708KuURLNpQotsg5kHT2eyNxo8FJFe/gMNm6iyJKqN9xV4w6whxiy3t4RFRGSVktuWBSb8xDzqMkVuGeEzvEXpDLCG2bPDw+kPtmyizNKqOOV8+QNns9ibjp4KZXv5EMxZ1rPbLw+j0CYmJ+Ue77QqpDtZJqI0yDVVS1qKVW8E7q9zeoL3Vnna2pnnPrl8v5Tqn9nT7VHXrece77RZ2j7Kaqdtf/AIDkNZpmqKPRINsk5OUSqZYSNEjC4NVuyVud8lbxC4lZQeiQuJWUHokFQhpIzOJMi5CC4yHnJLzq+RBCGWzEnJEUolcU0lMXErKD0SD8RDtqNF0LWf6UEGIiHdUSLpWg/wBSSIXErKD0SEStiGOlcUo1cUkkYRFw85KecRyoIFCGoplEmZchCJS3DJm5FnyUlMFGsTvuPEXDQQaYJ5BLbizMuQg6wTKDW5FmRchA41id5x4y4aCEMluJTNuLPkpKYOENJTOJMi5CC4uHnJLzi+RBCGWxEnSiKUSuKaSIXErKD0SD8RDtKNF0rWf6UkYYiIdxRIuhaD/UghcSsoPRIRK2YY5LilGrikkphEZDzkp51HKggmENREZRJmXIQuJWUHokLiVlB6JC41XTK3Pc+AuEOMk3KcSqZ4CJEzDcPaFNMUeiQs7N95NVW1v/AMBe6s87W1M859cvl/KdU/s6fao69bzj3faG/tLPO6g/VU0sk1UmcyCDU4+TlBpIkyv74WflDHIsTExqq+u2aaJUkkVav4BEp9JLQ4bZcQusKcUmaEr2aU1WnG3xGRiz1PZNJyU7IhfdqShZopOU+OL7VCFOGs1nIlcQQsa4Wprq1Hs2pkErUcmzXJZpqNzg3wZKh0mpbhuFxD6xqW+q0eaUqaZVpn6QcUpazWu/aLkkuLLfIWTiJrOJUor97jS3hARSiimZXkOlKneIyEfFKOKenfQ0Uqd4zMWTi5LKJUkr17iz3gUUpCyWi9ZrkouNPfMaqPqtGWkqkmVapegESohJKQ4bZcQusKWpM2yXNZJqJ3h3xFRrh6mtLSezdkQvu1oS4aDQcjVxxfapStZrqORHxBBxjhanvGo5qamQS4pUkKXs1JqtOLvgyUwk1rcNwuIfWNSn12zrRqmkyrT/ACJiYn5X7rtCzU2+blBqSaJXt4MVVuuGmmoykQc+0vc3qC91Z52tqZ5z65fL9+M5EZhD7a2SdTtTKYVHw6bPbbNMykW8ERTK0qMlbXD6AmOh1KIpmU8BmUiP/PVP7On2qOvW84932hP2hnndQmJhZ+UMcixMTGqbJ27TktiaTQr0TFZspS2SFqIvxp3/AKA0mubhJktSaSb+ExFwqygGCSU1NSMH4ms0pNdZzOX4PqC8dQpSTTQcyn+P6iGhFnqc6lRbJ2ZgiNEnaZrJFJt/CZiu3Sps0qSWGtW99Bqaydq84ZbGVCf4FzGhVK8LazNP6p8AKIUpRlYLv3pbyeQQUMd0syvobmZq4TMRsMd0vTvIdkZK4DIHEKSoisF3r0t5XKLmNaqUYXFkav0y4Rqkydqy4RbGVCv5FdglLZJUosNad/6AyNc3aZLNFJN/CZCJhFlqc0lO2akYPxNakpNVZzOX4PqC8dQakmig5lP8f1EJCrOAfJRSU7MwSTRJw0zWlNJt/CYrN5KmzQtJH+NW99BqYyZPuuS2JJJCfTLfExMT8q912iYmFfaHub1Be6s87W1M859cvl+/LKaFF6Aw80jUy+otigyMvSE2yXoGzJNVzntgbEiiHIlRbNMjlgIga3IdLU3EPN1ERcb/AD1T+zp9qjr1vOPd9oL7QzzuoTEws/KGORYmJhRJURkopkYVqW1PYOrQXBMQ8CywdRTUrjK1ndTWVKNaFKbP9IZ1NZQolqUpw/1CYiIFh9VV9KuMkJ1Lan4x1a/QeAFJJERFIhEQrMQWzK/vHvjwUjfiHTLgmGmm2UUITIg6028ilaZkPBSN6IdIuCYh4ZmHKSC5T3wclEZGUyCtS2p+LdWj0FgEPAsMKqvqVxlCYe1NZWo1pUps/wBIa1NZSolrUpw/1a0RAsPnUc0q4yQnUtqezdWsuCYSSUkREUiITExPyr3XaJiYP7Q9zeoL3Vnna2pnnPrl1ff1QsMa6zZTULNFZLlsiKUxhCYSGQqpLSZ/56p/Z0+1R163nHu+0f8AOzzuoTEws/Hs8ihMTEVFWNCS2yzvB5RkrZuOuHhmk738BiIWwi0rWpHEPCXpD0Uhpi1wlvekRK1ns1uOHP8ACm9L0GIZxadmhxwiL8Cr8+QNRSHGLbAUr4fiFvotLRaUcROHlDCjNWwcdbMt9R3hCxVtWR3lIORh+KU+a0NuGgknKfG9BBCqlkRG+RnvzELFnXYLVUqUyXwiKizrsEKpVKZr4AtVKzIzfMy35hiKUwaEOOGslHKfF9BiKirGgivqWciD6jJWzcdcM99J3gxELYRaWi1I4isPKHYpDbFthKV4RLi1bNbjhkf4E3pcohlrLZoccKX4VX5+ggzFIdYtcBb/AKA/ELfRaWi0o4hYT9IZUZq2DjrZ4ZqO9/IhYq2rSe2Qd8TExPyn3faJiY/53ub1Be6s87W1M859cur8p1T+zp9qjr1vOPd9oPdmed1Bx2iV6ZngIIdM1UqTSqUws/Hs8ihMTEdO60+xVSIUzQwj5d/lDpHbuqM5kbN9W8d4PTuKCngqIQ9SVxBnvr0vQQfrU7DKK/s9H0GGZ+D4qWCo5Bqd0IURyKxvK3ivCKM1sK5SOnCfKIKq6neGyTPlCUmaWL3/ACqmFqNRLTVOZHfnt+QQpKtYPhmrMIolWsZw7HMEKNJIKqUiK/PacoUkyJ+9/wAqZCNquprhslS5RCmaIdPKexwHyh2d0LUZzKxvq3jvB6fg+FngqIMVpdiVHe2el6CERUpcOZby9H0GGZ3FGywVHINEdu0ojkRM3lbxXhFGa2F/Lv8AKIGd1q9imoTExPyn3faFumSqUpqVINu1zvSMsJAt2e5vUF7qzztbUvzn1y6vynVP7On2qOvW84932hW7M87qDiVGaVJwp4QklmutcikUiIgs/HNcihMTD7JOkk/xJOaQ6y4apusLq4UneMMQ7i00Kboa4DwmHG0ONmgyvCIZdnJxk1EW1UjgEOy7OSGjQk9saw22hDZNkV6Qfh3EpoJutrgLCQZZcJU2mF1cZZ3iDDJNEfGUc1CIYWmtTSSMl7dPCCY2V6FdnwGd4MMqI7V2VpKV4PsqNVq1K0IpXwbGyvwrs+AjvCHYWqg3UkRI2ieAPsk6RcZJzSHmXDVN1hdXGQd4wxDuKTQbdDXAeEw42hbZtmV6QiGXcC2jWktqaBDsuzk2yaSPbKXwBttDbZIIrwfh3EJoS3W1wFhINMrJU2mF1cKjvEGGSaJR/iUc1CYmJ+Ue77QolkutEjmUjIw2lRGpSpTVwBO7Pc3qC91Z52tqX5z65dX5Tqn9nT7VHXrKTU/hMthvH6RYJmR1rvfqFj+tzSFj+tzSFgmZHWvSFj+tzSFj+tzSFj+tzSFj+tzSFj+tzSFj+tzSFj+tzSFj+tzSFj+tzSFj+tzSFj+tzSFj+tzSFj+tzSFj+tzSFj+tzSFj+tzSFj+tzSFj+tzSFj+tzSFj+tzSFj+tzSFj+tzSFj+tzSFj+tzSFj+tzSFj+tzSFj+tzSFj+tzSFj+tzSFj+tzSFgmc61z9YWP63NIWP63NIWCZmda7/wCoUUvNbJR7bCetqX5z65dX5Tqn9nT7VHXrece77fyde6s87W1L859cur8p1UMihinjEdYtWsYnOLVu326dpw+kWrWMTnFq1jE5xatYxOcWrWMTnFq1jE5xatYxOcWrWMTnFq1jE5xatYxOcWrWMTnFq1jE5xatYxOcWrWMTnFq1jE5xatYxOcWrWMTnFq1jE5xatYxOcWrWMTnFq1jE5xatYxOcWrWMTnFq1jE5xatYxOcWrWMTnFq1jE5xatYxOcWrWMTnFq1jE5xatYxOcWrWMTnFq1jE5xatYxOcWrWMTnFq1jE5xatYxOcWrWMTnFq1jE5wt1u1a2ad/fFq1jE5xqUZHdMjnsy6vykyI8JCya4icwsm+InMLJriJzCya4icwsmuInMLJriJzCya4icwsmuInMLJriJzCya4icwsmuInMLJriJzCya4icwsmuInMLJriJzCya4icwsmuInMLJriJzCya4icwsmuInMLJriJzCya4icwsmuInMLJriJzCya4icwsmuInMLJriJzCya4icwsmuInMLJriJzCya4icwsmuInMLJriJzCya4icwsmuInMLJriJzCya4icwsmuInMLJriJzCya4icwsm+InMLJriJzAkkWApf/1l/8QALRAAAgEBBgUEAwEBAQEAAAAAAREAITFBUWHw8RBxocHRgZGx4SBAUDBggHD/2gAIAQEAAT8h/wDOguABKGcBp3gvHp+QboJkUGhEA0JYRwZhMB70/wCKGcuwDAXhQOmu1p64ROhw7iwceKITRdh9RNwoFpDxihtkJympMUxLB1PaEYdF1eyjO4gDtKgzYIAtV5vjrFQCkZHNnAZwPuiO+f8AxI4xhYRyMAAqEZqQzcMkCCtaBuEpi6RAGgBTYBKM1JEAALAILBL+YYUFVrWjhKaQIOIEoDDBYsm5AZBSYcQP/hrzyljSDa+BqfZHnUfxxpppppppppppppppppppppppppppppppppppppoD6KnIfAaYvaJWiJuD+WkOk+f/ACkGATAcQKPnN2m7Tdpu03abtN2m7Tdpu03abtN2m7Tdpu03abtN2m7Tdpu03abtN2m7Tdpu03abtN2m7Tdpu03abtN2m7QhZB/fGFSIgcJgBeQaquX4iEJWLGCiJDTn+YJaQClJXjBUFkuLSKRvFWbNJeb8KBfddFSkWDkfmooooooLkApgAXpGOcAXg/NRRRRRQriOIwJXQ0aRXasyq6uEflQWJDWe0b0Dci+6SzkIBA1K8QFZeQ4fSAmzDLsgs2PWbKvQEw4AqQyVMpZOsmGKmMovguJQ5SGJwMa70hiiwSV1xpD4dWZVJq4QwPgGIgki+UVExV5F5rQIF118MGeTIVsIpBUVgqLCD4SNauh++wFcVqIMQg+QqL2cpYwVmhyxBWYREioCWo0TCuI7Jcs9l0sjXYwCNzu/wKEOk+cNTSoJ+xYVojMo2Be23Gagw/MAB1AfkMLKmAIgAAQ2Ev4hYStoKHzgsJLF84hoMScNDQQX2UQ2YAXpXkVpChLfLleWxQKMLPCgUOJDtdJZNUTGAKFdCU2nZWBlkApqtLE5VAzmJFYedl4swsMHgty4zpMxoS23BxrU1gPXcLW6Fs4dRAKAgVuYWkr87yK0hpCBK12agwlhzRUNrorZZhFqk4dhSwCG/wCBqnAKkkmWENAiXGHTCCTzQ5ONoCs7WeqW9+gUEqWulV6JSEGWVifzCHS/OEohRATIANUofSAwKTC0CdPaaRw/MApOEESjpElwEDIRNziAPBKfQrEWQkBGrAF8Q0GJ+FXRSAiaZg9I0TAl4bmVFmWcpxruqCqhAkkvaSALgIrkdaEUCheQdfoYNfAWRPG2miNkN+aBba0jE8i8ryQtQvgIUPC5CbAS3fkOtlcvKL8Ue4AWGgiq3w2BgJEGgC718spKpWqWCdfeMNgyEJoV9UJ/zkU4BDpfnLaeIGPZC4EBefNM8bEd4FUBT6Wc0d3mju80d3mju80d3mju8MR9eAPmBxIGwjzTR3eaO7zV3eau7zR3eaO7zV3eJ+Kta1liX8Va1rJxVrHgTWoSopait+ZM87Ad4HEgbx5pbTxAh7v4FOA+OxzULKO5AZlzlMX0xVZA5SesETEAwNOfi7oooFKpeMLWBWGKuOEYBFD/ADCGqxwlNVIARMNUJylGtYCVH7iJrrD8wCFeC9FiHyIokJogsa78wDQYqqmyVA65SjGLis0CgMFKJ7BQ2OBW8p6IEUlfvCa5KVAlvdo6om9IWK2eLCbQJar4KsAUo4Ra/fNdRUNsmLWo2UiHAilnkXUoe5m7AhotR0bQJKgdYtRi8LNIoDjDvXgqlWUs+eRldkJUfsJlLQVSBKqRlCf8DVKBQoAGIG+ilUolZeWe64UQ6uFDqUA7PyO+DNByNY9sxnDG7GLBIA/mQIarHCUUtok1BoAOO4ikiLzU07h+YFsShom8YKSIkRwvZxA6HlskaWAIAmQqOQQm98Q0GHAx6myFBnbNpocEH0V4prWCkGt1ZaiDSBXtSlCUYoZJjTNRV+iFijFVqHcQ/BIOiAZKwL5eFq9sPBuAhK8QLGRVWkzVh4KtLYfSFR2RNkKCO29p9AxggDWeBa2F5Ms+eDdEKoamicX8QEATBHzCf85VKAQ6X5wfYC2geABJoCDD8nQmXQwlIdibvN3m7zd5u83eWTWANRLxQySakmbvN3hIwBiWo8xCQA0VQpyKbvN3m/xVBQAKhp6QKFXeCVJm6e0rgh6Zxs3BAscV0Y0QU0CyuEtaQwQUK30gKgpQADNZ6S0VdQyV9o2LgCKOC6F88wAioWELhU1KAqTF0UgXjWhVBQAGQ09IFBFbKolajdD4xMjUiArcEoaKmB8FAmXQegEkyFkmD7EW385SgEOl+cNc2VT0mtgAGTBJxww2IEes1dcP3wAAAALDnk0UQ8NU0AEqTkVsBYMN8386lAM5yaDhqpaCwRkRFSrAIthFWFSarQMIbZpgaVQDA1s1RD8gNmAAYckGaCibxjCICc50OSWgf7xQ6X5w1NY0sTyBBLmpHpQTUmH74AAAAFlzQxU4A9aCYW7RzBDf56pQrmfaFUADpzxJBFgBKhlIpHERupXSSKll4gZ5GaAq2IqjybFBVm1uCYUlLh50OPDdSRbQnUBiuAmotpX96odL84SiL4ceUhMQ7TEFgs7TQOH74AAAAFhI5EQlaKHDOX14LIBac4T/ADRSgQDaIhhEKUiGEQw4EA2iIYRBuIN/6gghgwEGz8aBgzYOBGUQB4EoMwAAgsGw8AAJAjH8Kh0vznIaAT7pz5Z4Zba2gYcwYILRVbFLKUZHprefCMZNkkUE/CNMUBjqLa9UIQBbGEUiohJOCIFOVo1FdCQjIJYZq3tHRV9XInwRsHIDigH5QEJyGm+6BzbAmhoaSfhyEE0QCKIwX5BbQ7CoD8gJINpUacNhAkctmpMFnbIihiKBXENnM4bDyI4oJ+ErZ4AaCjVvaFnIFjCPFANHbZURQ0QSVllAWmMMkw4IpwnWiaMECLMO3HZKMj01nLjGTHX4UttbAcuQEazo4TkNAB9n7lCBsMM2DB+76oxvO6IAFUAgLtysFIohgaDU4zH7S2PfNzAZeb3SZVEpdHgELC+0bUJUUDuhSMMm8Eso3fVtoaETBytdRBClQDCjMCHbTSVRE2I3ynUdOqU3+FQ6X5wlz5GA5DTbUJjlCsNsFUnDKaywhxNpAgQdgWRjDS+lQq4iLcRu5e+QNE75Gq/mhVrpqIgBVyShs7BJOgaAFBU6jcTjwGEyxJIQCGGMJiGsrzCDBbAFOVByTJMySEj5QySQqboVMHfXK6NwG5HhMJG5kY8JhIXoDAH33zbTh2ohBqJQyjMkhA+EpIF1vTTVyEwDWVxigN/bs3AcqVppzFFr8dcneqXWDKJQip5oCmbmsiAsPJFa+cAkolKBlSzeCBxNpEgAdgEThLPmkrAwwMYOGcIynELaBNzhPn/u1CBagpS8DjAipxVRmJdpkdS5XyS/crQmVwQRnG4NwkIVlwCGJdmKERSQsmu4YQlCZSTSjwcdsEOpGVKR0ubCAMLg9MwYDnNsb5gHQA04s/wqHS/OGogwISItoGhzhCuUKqDjnNK4SkyVIZbiDAYJwB0I4IrwaBdUEHoYjJDyILjqcIuK0IhBOxMwyp1CMFkGwDgMYfxCgTazKA7CpuTIovhAskB8oMVdQJQGsV4ng0hxWrZDh7dB+OwGb0Qh+OwGLmAgI8gDDQ9Ipmom8wMddUZQCsKxGmnDkA7CpqbJ2GAHAhElUmrQGblOOSAWkxC2AJA4eg4owhMmw3hJSaqkUpGMEPsXslJkqQwnACWfPBCLlCYiccoS5CGW1Fh5Q3/ORYhUOl+cICF7IWgEbSr642kQn1M9I4+UEy1Cnm9W0YwmQCECJYixahgFbzqC2xAaYGba0wMQYQAY2bjhF60FHZhQKgJIADeJ4ZDqg3kQsFucL2QBCSCFiKIQu9NRb6IMJRrKkRQ2DBgqOkOgURqti+DArXQosuGRWOpQRcZ5gGtxgAABISY2YOMp1lQmDbApA684C2QRASLFqDRzlyNHgyES8CbQkwldEA50AtsQGgKqgr4CNYQqGzccJFbQEl9oLmBgABEhUl6oIloFPFytpwlB6Z3FPXCwAEeogImkREL2Qt+4sQNkokKhYWwiNQGgESTyFsPCbIFRQjJV4RvJQKAg7CCyi9gg8wgrBOkCrNYByGk1hE4BnjS+IGIDybhzvhNNM6NohikkFQhXtAQylgUmBviGA2wUeDx/DodL84a5smItMbUDQzhGH8LRCxwLmrsJUAUUAmpAGBKQUGFUihAMINacxSYuoCLNstAgsNh1gpvnhkIHVGyAsLwVUiClJntOFwClxqSzCgx6GElpFSaAGBYBqgrroBgiEyGoCDSgS71qIrQVIQxTMwxJspQAYoB8mADNQfgygHEM61cOssT4WTr2hgGCMMmNAAKUGHWCwC5ZOPRwkJIuRQgQTtzBCFcyHBUMISockolrRZzQEKA4DWBEAoskoQ1LMkADNCpEYWc7YNCAYsCNQYugEqAKKADUiBLLnkxEfnZIWOSgBA1L6Bo5w3zf3KxA2GAjT4z9sGHzHbzWQLTDEiE0I0FWmFZ7wyEOHXvg1h0FUNZBwgEgKc3ODPk+0wygLuBIG9BYju8zgRtPpAmQOFxI3RRO0gTMsqACQWlnA6I4VRj/AA6HS/OGpo2rElcgwysgSfShmrMIxQjhKlVcihsit7VKgoot2k0ndMsTsKDFJYKKo12DWU2pJZtuZ4GctpKAWrcvjhoiLe1SaIti02C2UXqIqxEDIAXXZInQBAVdknMaqK0VgzGiwtNZumWB3YjEsuUxVjYXltxUNkTb2qaROLRkLhHOgSmjZW8RAoqhXaNJIq+TL0zCg7JcRRRbFQayMEYmuyqlClHCdKO9LDmgC0mQfWhgNCJE8wmG/wCdqxDodD84SgKlaNDYQQlFrihF22kzROEfcGEIzDAMqVTOuohahfAuGIRfNNQErbrCdZXKBCoVTGgHRQASbw7A2osAN8qxY8AUwqlTDYBhsoFXUAMDfGNAFpqSSaGEWMqXZIFmoECAwis6WCSp2KrOop7x1lPeOkIBVF8d9cyQgQgipnFhig1naAI2GMchLntSwhooBXUkMBfCKYQRurDUOAhBSpAuo5ISAoYgqhqBKkHL2aG5QNPFbFQDCUEbAc+g2pSYApqtRlnH3BjCIgyBLGTtRSirLFK1KFBYALBCf84FiHQ6H5zNgEL2QuMJIiJe8FQQd34itYG8pbkrOZ+nnM/Tzmfp5zP085n6ecz9POZ+nnM/Rzmfp5zP085n6ecz9POZ+nnM/Tzmfo5zP0c5n6ecz9POZ+nnM/Tzmfp5zP085n6Ocz9HOZ+nnM/Tzmfp5zP085n6ecz9POU7rXuoJizFn51pD4gkhIl7zNgEL3fnYgJmAoHFByMZAtR6gDByPASdEBzPBRX7GYRvgBReTwYZDqP3uh0PzhLnyEgQJNRTAL3hvoSQk3muU1hh++AAAABZ80mugUwhqJ84hIJoFoB8wnz/AM63ATNz61VQGib92N+cJRY1Y9QyvRMsbMXgbfMWqGrEoYVu5wta/CraG6LBVDUZ4UsnwZJEQ+DahpUfvdDofnDUAYpE21dQHKHR92Go6TSOH74AAAAFlzwQxRfhqOvOAMwttoqoGUN/mC3Ato1hhx9AMTPYurLEqAYGFxho6adAQRhnEzNeRBRkrG4kXx8UyJREZwiVBd1I3mXhAE5xIjVAmI0Ky/e6HQ/OCK4hgdUBJowilAMAGV3VRHI/fUhCEIQhCEIQhCEIQhCEIQhCEKpRyFxCUQwJYCASMIiK4hg9H863DodD84XvyakYBg1IUbOAxjFWBg0I5zU1wgeTbAsNJvYm9ib2JvYm9ib2JvYm9ib2JvYm9ib2JvYm9ib2JvYm9ib2JvYm9ib2JvYm9ib2JvYm9ib2JvYgeRbIsNpY88i9FssDJq8VGhOUlpirZQvf/g3uGYP9Wh0PznWyPTRcawQQ1tV81VhGStgioAq8P3ZJJJJJJJJJJJJJJJJJJJJJJJJJJJGSpkwsEq8ZY88qGCu6DooLhOt/g3uADIQRDMLnJQth45I4WQEc6DAZYjkQKQhAM06XXZssgS2EdYVRH+DQ6H5wvd4xqDCOvSZh7yDd+6IiIiIiIiIiIiIiIiIiLr1iIe4k3yw5uIL3f4N7gRmimyCQ7gTKAPZADZgYAHiDqMDnMX7qWPlCslKALWDsMaGNrvvb/wAGh0Pz/BILW4QYpEkZMLCrgf8AZ48ePHjx48ePHjx4lwgEmN6vAg5gAwd9/sePPnz58+fPnz48eHBIgBJjaVeBHTz/ANEJe4NDofnDkD4ADExQBkYWhwhbMCMEtF3ERRxRxRxRxRxRxRxRxRxRxRxRxRwMpikEvO8mHo7uIVSqLcFHi90eL3R4vdHi90eL3R4vdHi90KuC8WL4gOmvR0SUAZmDwBGIh/zoe4NDofnwAMV4qp3UJmJrAhQnT2mjcIihojQ2I/s/Mf2fmP7PzH9n5j+z8x/Z+Y/s/Mf2fmP7PzH9n5j+z8x/Z+Y/s/MQwptIbgbMgZCYTYs2LNizYs2LNizYs2LNizYs2LNizYsIQECZO9LGCt3ZgwTr7whRiIkyqkfzwNMGh0PzhAx5B7IQgkjEZuIIhAjHlPsiGr2O+X+xjGMYxjGMYxl/uRjGMYxjGMYxjMaPa74SlvbgUFuJBAIAAQcG+CBnyD3fztNGh0PznVyNoGJZGrWUzoJaF9U1NcIUsBMEh1Sbw8TeHibw8TeHibw8TeHibw8TeHibw8TeHibw8TeHibw8TeHibw8TeHibw8TeHibw8TeHibw8TeHibw8TeHibw8TeHibw8TeHiFLBTJAVWlhzziQNYN1QmxRjla9idXxtabg/ezvqq/1KHQ/OdTJxFAAwFIeqwhxGSM3MrA/u2bNmzZs2bNmzZs2bNmzZs2bNmzZs2bNmycRgBN7KwEdPPKCAEYGsanU8bWm4P3qcIeWqrs4iKoKLUXXOYwih5wkKilqs+0phgjCWtKCrhqx/gKHQ/OdZxjUGEM4AdkwJd8zMszLMyzMszLMyzMszLMyzMszLMyzMszLMyzMszLMyzMszLMyzMszLMyzMszLMyzMjOCDZIAXdLDm4jrONrTcH7xCgk2QBvKC1IbAhglUAcmu+0+BqVBBA+kYwloIsP8BQ6H5/ggaNwg7a6TcEDKaf5mn+Zp/maf5mn+Zp/maf5mn+Zp/maf5mn+Zp/maf5gZ6gkYyzhptSM45zT/M0/zD4sFxEH/AQIECBAgQa0e1BjT/ADNP8wdtVIvCRnLHn/IIa0XB/LCHQ/PghR4FkUjKWkERNA4Q94AqDUDW4ZT7fGU+3xlPt8ZT7fGU+3xlPt8ZT7fGU+3xlPt8ZT7fGU+3xlPt8ZT7fGDsbyNAtuCaru4g1BiIIdhRj7sY+7GPuxj7sY+7GPuxj7sC42Yh8QaNelhJSDLWAGTKvAs5fghrRcH8sIdD8+ECiFxhbUJiM45QRY9po3CGBIoodbGDmqO01R2mqO01R2mqO01R2mqO01R2mqO01R2mqO01R2mqO0NFFFqt5wVSAOOBymn+00/2mn+00/2mn+00/wBpp/tNP9pp/tNP9pp/tNP9pp/tE6NBkqZxljA3VygyhwzjzESCK2gtP4QK0XB/LiHQ/OCA64PqnrhjCthLQoI5gwK0VWwSiSkJAsI9U1p2mtO01p2mtO01p2mtO01p2mtO01p2mtO01p2mtO01p2mtO01p2mtO01p2mtO01p2mtO01p2mtO01p2mtO01p2mtO01p2mtO0SUgJFhPolJjrgFBjWBSTyAnr/AIQMB1wXRxVquD+XEOl+c6+VZRyIzUL2R6cCIVSaCuE1dcJca4XVDNP7TT+00/tNP7TT+00/tNP7TT+00/tNP7TT+00/tNP7TT+00/tNP7TT+00/tNP7TT+00/tNP7TT+00/tNP7TT+00/tNP7S41wqrGWHPL8KIAqg195aKEAiUF7p1/GVquD94nlmgGSZmDRAQQwR/pEOl+c6jjGosIQ6ppLYIFxE3BO4J3BO4J3BO4J3BO4J3BO4J3BO4J3BO4J3BO4J3BO4J3BO4J3BO4J3BO4J3BO4J3BO4JAVUUltEi8mWPNxnUcZWq4P3m6mw0d4cCMBABkLeWEFTIJkLShQafnJ1Ao9kIxFyqeRCE0GyhQf8Jh0vznUcY1BhDAEExqDN4zeM3jN4zeM3jN4zeM3jN4zeM3jN4zeM3jN4zeM3jN4zeM3jN4zeM3jN4zeM3jN4wQDAMagSw5uI6jjK1HB+8WFiLNLYHpWKWcpRgwoMDNyHBgPXkQDRACs/D/CYdL8/wwNG4RS20KqwJtLxNpeJtLxNpeJtLxNpeJtLxNpeJtLxNpeJtLxNpeJtLxLKK1XVqMJ0UWkcptLxNpeI95EUzX0/wAAAAAAAADQkQGQaU9Y2l4m0vEcttC6siWPP+QwVqOD+XMOl+fBACwIStBMchAPIymgcITLyoJX+y6666666666664mrc2Sp1bdxCEwwKi3/AAc5znOcMm6VBvd3EGmXpYSUkAPIzglAQVoB/BBWr4P5cw6T58CCxYJjUUwQoIo4lYZra5q3CEHy5IgXg3qat7zVveat7zVveat7zVveat7zVveat7zVveat7zVveat7wgoUBkGrdzh6sMZI5zRveaN7zRveaN7zRveaN7zRveaN7zRveaN7zRveaN7zRveEHwoMg3k3OWEBNHVYRpYoOJAIKC0B+BCtXwfy5h0nzg8UMqmgHqpEQsgItgGTwUb84BTV5XKbzm85vObzm85vObzm85vObzm85vObzm85vObzm85vObzm85vObzm85vObzm85vObzm85vOUNMxtOFkAweShflD4KyACWcPihlU3ErU8H8uYdJ8+DrXGDpgFTOATpERIqKtcpoeAjjjjjjjjjjjjjjjjjjjjjjjjjjjjjjl3nkSBDiGhqJ85VlmjtAFXP8HK1HB/LmHSfP8JaNgOIl2CDTr3hNphtMNphtMNphtMNphtMNphtMNphtMNphtMNphtMNphtMNphtMNphtMNphtMBwTtYC0sDDjd5/wAslaHg/l7DpPn+Atey/ck1zHiuc/5RK0PB/L2HSfOdVJxzXso4/wBpTTMYccuc8uOdVxlaXg/l7DpPnOuk45r2Ucf7WmsYw45c55cc67jK0vB/L2HSfOdRxtay/cE0jHiu83H1HGVpeD+XsOk+c6zjall+5JqGPFd5uPrOM7S8H8vYdJ8510nHNQyjj/aE0DGHHLnNLjnXcY2l4P3bFGOQwVMznOERSLy0ShC7NAwlpE8XXIZxexsE0XoQJb74cxCcQRMMR+aw6T5zqpOOahlHH+1homMOOXOaHHOq4xtLwfulEKrflDHZZ7S5CVB4AKQIdaASiMYBAC7NYuVsKrQ99GTUYwS8MtFHCJcABT81h0nznWcbXcuPVP2TVMeK5zcXWcY2t4P5aw6T5zqeJpuXHrH7JomPFd5+LqeIbW8H8tQdJ851/E03Lj1D9kGgx4rvPxdfxDa3g/luDoPnOv4mi5cesfsmgz4rnPxdfxDa3g/luDoPl+BGg5ceqfsh0GPFc/KINreD+W4Og+X4UaDlx6/+yaJjxXPyqDa3g/luDoPl+BGg5cep/smqY8V38og2t4P5bg6D5fgxpuXHrf7JouPFd/IYNreD+X58D5fhxruXGvwHIZOLv2SiiiiiiiiiiiiiiiiiiiiiiigIVkAMqGbjd/I4NoeD+XYOg+XAi0bi8gDpDIDCF5JrmUccccccccccccccccccccccccccccccuQMgBAV4sy0LgshFh/Ag2h4P3WMZ5QvwgBkAM+LGP+Ng6D5RwRYgXshWBywhEH2gEIHLSR+IPUGMpoTtNCdpoTtNCdpoTtNCdpoTtNCdpoTtNCdpoTtNCdpoTtNCdpoTtNCdpoTtNCdpoTtNCdpoTtNCdpoTtNCdpoTtNCdpoTtNCdpoTtNCdoqnR2EAgIZYAPxCIFeWSTEn2jggxAvdxNoeD9xjWQWcAQAAH5InOYJhQ1S7OHPFMLYLbgVkkUwgMrIdRIYDBvDUWKrC1DsGClHKS0WXBhnoKrVWACFBkBflYOg+UNQhQU1WGgD94/PRQQXmuc1dcP8AAAB64jiaA3DOaD7QKonmUGGc0H2iVFsIQpq0BdIPCaD7SixO5b0lVmVz3pNB9oE1KBvmHhGqbYQmg+00H2mg+0I9eRxFCbxl/gAsOeT5exgyaifKKxNQQmAvzhviRtDwfuHhABaKEco6IQkgKixq2CxW9abpcb2JQt+0KhSBLcsIEALVebYHJ0kgiA81kIb3ZmaXAiUAzLwh7RgVKj9vysHQfKGufL3wJ6SmCdd/kVPaa8w/wACVOalKxm4JSK7FYwH4cEoVl4/HB2gI4zTgSnah/PQdiF8twJTsARwkkFWXj8P4EqVKZQ5qUrWT/ABZc0Ys3E5nT3muDVYb5/GNoeD9w4PeHCenQcjOAwjVpZ4c4CV0HIVspOHmhNmIVzg5e3+tfKKr0QakEU5cxuxglwC6n5WDoPlCXNgJjQQaimCFDWQdhk3mpoHD/ABQCHJwAMD+G221W2v7z82222221G2v7z8G221QIcjAIwH+ACzkZygDCNDROAIUECgtAPmE+bxDaHg/cCgG3XgHbDEg2m4BA9WIqEFwT49IBYephFXgMGRYz1Gq4kW13msZ9COpABYiriE4Y+ShYMCwQlX8rB0HyghM6iRgXqJQAIJJwAAg4izJwSPpA7U1UuWU2b4mzfE2b4mzfE2b4mzfE2b4mzfE2b4mzfE2b4mzfE2b4mzfE2b4mzfE2b4mzfE2b4mzfE2b4mzfE2b4mzfE2b4mzfE2b4mzfE2b4mzfEp8baPohohzBwRA9IT0EogkAg50ghM6iZ4jaHg/BOfiQHzCMSWkFiCrEgwRwBpsAPE8AoPKQfMKJRgE7Sf1B7NokdMBl/pYOg+UJc2V/VN7QCpnDkHhiGGSmsMP3wAAAALPmkLR+MGGbl+FTKCZzhPm8Y2h4PwElK5AGrGHy1Q5AKk5zqjENl2CV+ZB6Lgp6pCULbpUuIBujHONBFTaOYQsMBLBBgDhSJVU4w0w6VQFUdv3rB0HyhLnwcKbcFOlB6xYQxlrBA095pHD98AAAACy54rgR2oG6vlGKhmJaYr6IT5/ENqeD8B6UaKLshk+iuAWEAJnE6E3GEAEPqgWsJUsYiSYi3isYXnAIkMZwNpwJEWQ3mNKinVxKFYwAypfvWDoPlOWIB+5QiCMDAGR6pAb3UQ67I3OG5w3OG5w3OG5w3OG5w3OG5w3OG5w3OG5w3OG5w3OG5w3OG5w3OG5w3OG5w3OG5w3OG5w3OG5wSLa45Aa9UghIwEOWIB+x8Tang/l2DoPlDKAQx3qgac44NTFUHE4zQ1witGtVUxD92CCCCCCCCCCCCCCCCCCCCCCCCCCCB2jWqrYjLHnlwGx2qTjlDAvmKobcoONG1PB/LsHQfLgZQuAZZbNoLLmTNXYQldspRH7spSlKUpSlKUpSlKUpSlKUpSkSumWqiWHPNvs2AoOREUfkfgY2p4P3grph0hcsshXtI472gKqSnVfGUNi3RZFaeGmsGhAkwRnvIj/CwdB8p1PGD0GEEVQ0EtEHAzd07und07und07und07und07und07und07und07und07und07und07und07und07und07ukx1BQSwScBHRzcZ1PGNqeD9687blBucJ5MSDmgYs0JIhRQR717Jdl6G4vzQp3GN9W/wDAwdB8p1/ENG4QToydV0Vgf9gAAAAAAAAAAAAAjzAU1qrARNSg5/T/AGAAAgggggggAAAE6MDRfFYCWPPxHX8Q2t4P5Zg6D5Tq4EQGTFRhiC5oHCN5QRh7y7ple+Mr3xle+Mr3xle+Mr3xle+Mr3xle+Mr3xle+Mr3xle+H8uYfF3zUd3EMbkCADULBzOas5nNWczmrOZzVnM5qzmc1ZzOas46GstVvMniDRr0sJLzDElQCQwWJ1fENreD+W4Ok+U6iBZ85WqPKGv7TO71mjcI6IihVsYKaM7zRneaM7zRneaM7zRneaM7zRneaM7zRneaM7zRneaM7xRRTUq3m4OA8lYTYk2JCe33BNyE3ITchNyE3ITchNyEALB+omxJsSFwOALvSxgKJ9rG6+sPKPK1VZTqOIbW8H8twdB8oHA3tE6DCuvu5uq5HKWXFNeUErkG9/8AbXXXXXXXXXXXXXYo5J/urrrrrrrrrrrrrrBfMN7TS3ot2QdUmZqQunu5DgL2idA4m1vB/LcHSfLh1KIi0g1QHKY0IkVH7DNTXCD4W6U0xmdDOhnQzoZ0M6GdDOhnQzoZ0M6GdDOhnQzoZ0M6GdDOhnQzoZ0M6GdDOhnQzoH426U2wlhzyiJeZaPcYC/A22AVQMvw5Wt4P3gcVjA/9XB0ny4WQIAEG4zKCQITVWEb5jskAKv/AHaUpSlKUpSlKUpSlKUpSlKUpRPmGyYEq6WPPOVcgYiAAAFgH4WVreD95pf8Kgwpam9+y2LO2lCCixSKhpMSBWlxZVmLKEHMWCl6/wCDg6X8BjUGENIwRi9F4ibqndU7qndU7qndU7qndU7qndU7qndU7qndU7qndU7qndU7qndU7qndU7qndU7qndU7qndUmkZARci8TLDm/IGVpeD95Eu5Y01thrNYCOSGyeSIiWzacfsqy44OKLhYKYURla3f4ODpY6viBa3CP4DMyJNhVxH+xBBBBBBBBBBBBARw6RIkXq8mJarTG4iCCO2E3/G/43/G/wCN/wAb/jf8AlhuMIIfwkIkSLSryY6efiOr4mtLwfy1B0vynXQVbiGN0FWiwj0mgcIhaHYMCXNAJoBNAJoBNAJoBNAJoBNAJoBNAJoBNAI46XBBbNV3cR5MRIgvQsVNHxTR8U0fFNHxTR8U0fFNHxQQipDXW/TiDRr0sJL0B2C0nkIq0MROu4mtLwfy1B0vynUQYNziCtotisAYRBVHtNG4SohojQ2I9f2j1/aPX9o9f2j1/aPX9o9f2j1/aPX9o9f2j1/aPX9o9f2lTGi0huHmgERgCZrRlM1oyma0ZTNaMpmtGUzWjKZrRlM1oyma0ZTNaMpmtGUzWjKZrRlCxkhTRFWxljBmQNQBsD3jF+MQ0aEdRxNaXg/lqDpYe0VR7gQvH15KRRKa2piA6hKS9yg2RQYBKv7phhhhhhhhhhhhhBhhhhhhhhhhhhhg2RQZAKkU1bW3gKBbWVMyFn68FL2iqHcHjrS8H8tQdLwcgwlkRkMIJlBjBhFjSaW4TV1wjfdSrqHFNP8Aaaf7TT/aaf7TT/aaf7TT/aaf7TT/AGmn+00/2mn+00/2mn+00/2mn+00/wBpp/tNP9pp/tNP9pp/tNP9pp/tNP8Aaaf7TT/aaf7RPupV1jglhzzX3ICRrrZjHAEcAiUEUuf4drS8H7x8GIKNqBzMBBAILB/0UHS/gMaqwiz1mZe4gXfuqqqqqqqqqqqqqqqqqqqs9IiXvJF8sef8obWt4P3iC+dvmHAIpgAJ1PaX0PNkIoyL4HAd6FlU9IsyQIAqbx2yyk1IAyf4KDpYPihqDCL1B2NhreD+6IIIIIIIIIIIIIIIIIIIIIIIIIIII/UDY2CtwEsObiD4prU8H7xTWzAEgH0glFKIUIGAUoLqUXOBNF2Q4l03iKPnA4Ah7P8ADQdLHVcQ0bhHZgEJlgXD/sgQIECBAgQIECBAgRWAUBFq4CBmyYV4OJAgFXBaFRGZ9oZn2hmfaGZ9oZn2hmfaGZ9oBMg2BUAcRAgVmAQEWRcEdPPxHXcTWp4P5eg6WOqgZCCErQTBFAgeRkpoHCEJc0Aq4/2ve973ve973uRm1GXRE1fdxEeAUCDY9TH9qT+1J/ak/tSf2pP7Un9qWV3pa8ieINOvSwk7CB5GbglAQlaAZ1XE1qeD+XJ8WOsgeKBIaqMEKCOwFYZrjNG4TB0wWsGP9TzH+p5j/U8x/qeY/wBTzH+p5j/U8x/qeY/1PMf6nmP9TzH+p5j/AFPMp2ZYCrcapmKC4c5tTzNqeZtTzNqeZtTzNqeZtTzNqeZtTzNqeZtTzNqeZtTzCy9WBkyxgJo6LCNMIGBBAoLQA+Z1nE1qeD+XIOlgByrJo/c4J1coA5JyhQWMjEo3wHjs5VBfFxKUKfunjx48ePHjx48ePHjx48ePHjx48ePHjx48D4OJSjSKfH3bgoLGGZQg3o5QFSDnABlWTR+xcdang/lyDpeDq65x0wCo74lcaCFResFD11whOFqwIkDeH7ooUKFChQoUKFChQoUKFChQoUKFChQoUKFEoWrEyCN4yw55XsMwlQ6PFyqENHaAJlX/AIdjV8H7xxjwcgrYNAhgxjGOMYxj/CAdDBcWNRYRHMzQxBAv/djjjjjjjjjjjjjjjjjjjjjjjjjjjjRzI0ISSLpY83GFxbGr4P3kdJIrIrRC0FYlIe/1inVhyqegSyu/yU+2GlBfgMQsDS5tVEKD/hB8H8ADVmEE2gIEUB5hNPyTT8k0/JNPyTT8k0/JNPyTT8k0/JNPyTT8k0/JNPyTT8k0/JNPyTT8k0/JNPyTT8k0/JNPyTT8k0/JNPyTT8k0/JNPyQTbAiTQDmMsOb8gDGr4P3nsMg5lRohzsSs5QtDWCVEJErsYcuvQnl/hB8GOu4ho3COAVEqiRqDvNQd5qDvNQd5qDvNQd5qDvNQd5qDvNQd5qDvNQd5qDvHKkJVGYNrEib0jnNAd5oDvH7Mmi2H7zV8s1fLNXyzV8s1fLNXyzV8sSIBrg95oDvNAd44FRKq2MsefiOu4mNHwfy4Pgx1UDV30xZ1hKqiEmAmgcIRhM9QYv9gwwwwwwwwwwwwxAI1vZijRt3EDKeUDMGvoZuaNzRuaNzRuaNzRuaA9gKDLzwHEGmXpYSFECqMgENWfTHnSdVxMaPg/lwfBgvcgWCElOytxh4JBWAHbNW4QAHFiBvC85qfian4mp+Jqfian4mp+Jqfian4mp+Jqfian4mp+JqfiCDiorEcYXW2T0mp+Jqfian4mp+Jqfian4mp+Jqfian4mp+Jqfian4mp+IBDigAXBeUsID1IuAVZA4SQ0EABcIXucTGj4P5cHwYACTgE9CCgCUdU24w+H9BYjIuC0yzlrOFF4rqAKvM3T5m6fM3T5m6fM3T5m6fM3T5m6fM3T5m6fM3T5m6fM3T5m6fM3T5m6fM3T5m6fM3T5m6fM3T5m6fM3T5m6fM3T5m6fM3T5m6fMCLwX0CVcZRUrHfQ8X0FgMy4KAsB0TbjAAkYhPU440fB+2rSjWLElQRmISgXcc5Y48dGMTRhLKxiDxtEKYHCsplAkAadfRA5wpyZ8jaPeHgwCi2lomKLszAivsUBaiAFmWofRIT2/ED4MAzieMlCwQQiIMMhy7V4k+k1dhE7UaDWiDcD+706dOnTp06dOnTp06dOnTp06dOnTp06dOiduFBrBJvAlhzydDMA+ncIPrCLsilgAoITx7Gj4P20EWAnFwCCdcDFfKHPIVDWLqwaq1TFSIGWOgFJMFOZxFwhA7F3TvEKEyOjIEE9scUYouIEDhl1lGFcg9UcFLmP8QHwYPEjUWEPNkxlBN6zes3rN6zes3rN6zes3rN6zes3rN6zes3rN6zes3rN6zes3rN6zes3rN6zes3rN6w8mTGWEsebjBxLGn4P3gNEbAAknkBBdFe1cwMrJbUkByExWsqsA9VBtSWEWf4gfBguIGrMItptiD8/unHHHHHHHHHHHHfHHHHHHHHHHHHHHPa7agfEsObiC4hjT8H7xIKwIMEtgPErE1CsIATZ0Dgc4kyLHyQBDK9hhaSFE/FQjh/gB8GOq4hoXCZRxQmmP+2973ve973ve8J66E2whoIkpJHCbLmy4Jb+yH/AYxjGMZMsL4yumy5suD4eWAFeljz8R1XExp+D94cAlsN4gkP3fOBg4CxlyhvYjzS4KxLOULgmLOfP/AAA+DHXQrSoomwAXwKphYTVoImgcIgYzFkAUjfPKb55TfPKb55TfPKb55TfPKb55TfPKb55TfPKb55TfPKMKP1oLI0bdxEJRTFu4m843nG843nG843nG84Z0KQxHieINMvSxlRWHYadiErToVFhBvnXcTmv4P5YHwYIFk3wca0wGyBsooGgAGSlnWxGi0gyAO0u4ib2je0b2je0b2je0b2je0b2je0b2je0b2gXtaQCvd5MAQQIKro3tG9o3tG9o3tG9o3tG9o3tG9o3tG9o3tCTaSIAFYXeTKaiFioJ0LGYMcS3ZCKwgWDfxOa/g/lsfBjDGUGPdC5UwQQQZJpKpovkltuEEBRLhyOAByHA0MypE2c6BeNrFcbmCyBGE6lUCYgIBafjtYgUHLKzAS0MUltRITKzChtlNL6cCOyU0vpxbV2CPVOc+JBUlKwAVPx2sRYOQKKSxQgGKa+MEKQL4u1sGrws9EBIDTgBQ0LFQlUwXyA2WYwmUwEQQQwRMMZQQ9nHmv4P5bHweAR6+TU7aIjCAL7AIDaucLTXCOZ4MWg/GWr4hm3ec27zm3ecHRrdE0y8wVAs4UFXOB3m3ec27zgAQbPTbAAcAAKBSDoK7a2RfsXWP9i6wjSM92sMaYBtFYSEm302zbvObd5wICmcTvAVvIsgQ2aiwzt3nNu85t3nF4zH5hmeNUizHHTzyQotIgufKHN6gVKyiAw/AVNfwfy2Pg8EnHD12EcLKxc5P42tY3qN6glCPuQXcNi8d122rIy0A1DtTeo3qKRpmxxjd6W3py2LWp9BYSi5rMeyUquSzHslLJyb6KxlbXhrcSlYkjY43qN6hloJoHal5L9tsNsPOObRAEIe5G9RvUP4m9B/cgscdHPLj/CVNfwfu2ZqJztP2gE2DM9URUrTQcQQrUjiFTKV2JoXiFKUkUwXIytqhdgIKUKKxitgf5sfBgSnHD12Ecs1XiJ9AiXRm1bGi40XBUeSAbFwqCNZITisAsdQRouNFwAGeoYK0pHVBQCZbwrZPkHrPkHrCAML3qxJbBLpA7y4AGOoI0XGi4Ba6hgDTJXVDBAugRUKA48kaLjRcXxk2Wxalu6NnExx0c8uOHjVNfwfu2beDycu7ovsHDJPFoRcAlPuGVnQZOoWMdcvFHelVDMMQYK/M7d4/Mx8HgJxw9FhHBrFiJCYXyU/B3cPlsVggu3J+qBEiQx4ncODISyWuHmzH41AaveoGFir87ULK1V+dqIyqhqtWoUK+keTQuKJcbuUDIDGMA0foYHwWjsNPwd3AF8yC5W2xewxx080uP8AAqa/g/dJjE4L5AlRMNNQAAgsY8EogQDmeIykSHM/mx8GDIccPQYRwDCnIsRMIrjx3z4bqWZUIJ5pWHHWJGP4EL58RgSJWjNoPWBWQmgtssgEjVbQLbLIRB0W0C2yyDGdWQW2WQJKQJIBtuAGI/gF8+EJBISAcC+srFRA80F9xt8+YZXmYt1VCao3Exx0c0uODjFNfwfunHlAAM2O3OBUUNG0mEqaBVUxEIStKLTIPOC+etMJ5vMQjBt7CoCRDTYEpggDCSI8WP4L8+Pg8CHHD1mEcdEqRwgUK9wXUTUHaag7TUHaJkhskmpMK/JzuJwkiA5J4moO01B2gERX9HiIjAgeUAmyAxEtUAfe5zFCX3ucxRi23MbEootIIIc4TE0/R4moO01B2gIElyTxBmwNGUCSYtFagzUHaag7TUHaAAKLgughKc0AyGOOjmhx/gimn4P3LJQCD6yikUsoZSDbHsOUNL4MVIFrhlASpRHeL+cqztJJZNgzLU2ZYcEMzaEGRTAOAYp2KyLIfnx8Hgg44WtwjhjAZAoQoSVtWZtGbRhR28tJ0hE4XwHAPVB4nm0ZtGEwXtjEtTnzDwkSgoo+onC4MNMY3C4MNMYOwIoaKPuJS6XugEF74zaM2jD4ni8D32lueQBtIKBHbzaM2jBVZWwW4UwRJyPTHHTzQ4/whTT8H7p9AgcMZI56OiPrAI41FmQMTADYAhyChVzgEFDRhkJXmmHKIhFUGu8Exfnxf5eBDjha3COURNssD03+JKfib54zfPGJ8/jBwyhCoNSBGAxxstCalvab54zfPGXMq/6ZYusDhMA91ZOTR6zk0essLPlBQhQaoHWXsu/6ZvnjN88Y2GgNCntCgEALVMI9LwMVG+fxm+eM3zxi03eICfiCBvoU3Y46eeHH+CKafg/dZFc3HocA1N2FcRWRlwQUsG8MoIyhQfQhqmKtQagHodw5vKA4YG8kQdpUhqgiQxFWMn8+L/LwMccLQ4RxiMFEgjAD23EB/Azq3BbaKFFhhHvhIIvbuJmCECVaJzf6SqVYEVH3Ep53GmEanncaYRYvUEUH1KOVL2QgJHGMwQBe3xwwWfaWtZM4gvwozA3tQCOAEyGn0Rx0Scf4Mpp+D+Eup1jEAAAICwf4cX+WOtg44Whwjg6MBoAXvCUg0JNuxt2D9JisqGjTXSAa7R5vKAtzJt2NuwQi1kslFcnlBitgMYqxz5iHIc+YhyHC4WWMQ4OEGwBNoq8oCixk27G3YIb2QTLbF7TlLreCv2g+kxt2NuxSLSQQqzohDRgI46JOOdbxKaPg/l8X+WOrg44WtwjjL0GBhqGAiv4a1o7YEylGMvXCTKRdxa0GBph6wVZvlsVkt9tsFCpbHfbbDUqex322y0CyW+22LgC4urCwpPFrQJhovinUH6RihUWf4a1oQUHABWXRAAeyOOmDjnV8Smj4P5fF/kjrYMLMswKsFkEDMJkSRbA54w9bhHAWvA2gTQZhndSbL9TZfqH6X6i3sDSo/i6RMYgvjek2X6my/UKqC9IJrU3O0QwluEexwKVulzJwuUulzJwAOr49kp1gvCpJgVU3pNl+psv1DdC9IB8WXYoVDAIQYwfS/U2X6my/UwzvpAzRJAQANQjjogAeAKgKYnLCIDMMxLTFk63iU0fB/L4v8kWmboFmCgKwJwokckOH6RGyj+1hW9pvUph27OAvj8EUUThweBwTiMOqItwgk23HRRAiDJEdCKwBSCAdHoPCJ79eJ79eECB1trwjRE6yDWExJ4yiiAQbKYjgC9gCkNQasJ/giiiNuxib5hWVxywR/axr9GzggrmxxKVgDlpm6BRjVZcNHwfy+L/JwaIGRZoUDQOJgkLpCYy7uFo7hHCykXOTxDorN2M3YwmCPvGFjr+CCsuu23ZH24GoZtm7GbsZQPM2Mw2254vTlVGsg/QWEW1vAxXslHtbgMV7JSmzSoPoLGAHVhrcSlQsjYzN2M3Yx9uJoGbYR1F822G2FK7YtEAgh7xm7GbsY+h6KwvvyWOOnnlwLpSYy7KPECNSgbHEfhqmr4P5fF/k4FLPCO1e0RJJ9TD01wjlkW4W9CNQJtVPmP8Ach/uQSAfWeYHYoAXeH6KQkMV3xKnvh3j/ch/uQkz7494aKagVBXVgqkv2tk+QOs+QOsIAwPfrFX0EsaA76xJj3w7x/uQ/wByEq++PePcpWFQwVg+hRUA7wEQ+s8x/uQ/3Ia0Nip8z0iW1nExx088qbcWASCPURF4W8zn+Cqavg/l8X+TgE44euwjgVpIHvIdHdqH4VrUVpuVgjh3BP1QAgAQdvHWoeGAk5hrh5swS7sFT3qABZb9fahBW2/X2opK3VLVqEEDaR5NC8oFx1qQAIAO2QRB4BPoYO0WjsNPwrWo4K/VJWloewxx0c8uPgLVZcNXwfundsA6z9EGUaQuluNuSbCQFdFTxoL80ZRhm7AMmEqwRkBMMosa6iIGi74ll+fF/k4NOOHrsI5cahTTESmUnQjjMmQ3UZRbwTzypPvmQx/AOZMiNrksDI7mL6xO8DUJwHCv2kJ2QjKn2kJ2R+eooQMTqQJIFtsAOI2v8JkyBx2OYGBvrLJnLR+8F9xZkyYYXmQxeyhNUbiY46eeXHw1qsuGr4P3VHgaKZvMGPjzK2EBaBAF6zH+wgiZiPAGAYCABPsImpejFcBSj65VjOFAdgd28fnRf5OATjh6LCOOHtIlSCII3FdZmJ5ieYnQokskiyZRtnG4ThZEEBhLMTzEwEhmZACIGHLBbsgWRMIA6PDUJdHhqM6262ckQwkgZDbCUlGJZieYmGBJEYS9NeFIpBFQQIIMzE8xPMTBEQvK6Qhyo4AY46eaXHwFqsuGr4P3XkYrgKwesdapZEY/LyAjbvOukOK1pUqUt8xFFqWoMAAKisRiKHuPzov8kCI44egwjhiwGQJAkapCths8QhJBGEeqQicLEGAeqBX3GEJQsuU2kyfMABISKhh9QgBaWANarACFhYA1qsEIAQioYfcqTU/dAhbc+MISrqXFGEehgZagBRqkABxYQjFZYLcKWCJOR6Y46OaXHDE1WXDV8H7lkoQn0gA7EG1uIEoUHGMsc4LKYD4BFiF8YSAnYd4sJfBTANrdErFUC0w88DxcWHGotzBK/wDMRf5ODHHD1mEcE5QtFHuQtvPJJH8AAcMFXEmAoDI6phMLQmpZV4gBSoq9wpsB0iAwvc7Iqqo+sVVUfWJBXywIREGqnWVrLvfEADgaA0LCsVyQFrYUlJdaNP4OAANuPIIGDk43yu4Rx0c0OPhmqy4avg/dslhQZTLRDCUEhEIAA0JkD8yL/JBiOOFrcI45ESJFGA5JjxAZtpm2mbSZQoLSFoRGYge5CYReXObaZtpjgHySr4xv9IeSYFhFftE5e3uNMI3L2dxphDyDJ1kU+kpqUN3JHCPkm2mbaYDALy9x24D7JaVE2JhTaTNtM20wNgx4AEUMmQ8+mOOnnhxwRNVlwt69H7p/onGOcBRWDPrEQVCEVbApQodti8irpJt4myyLQgvf0IS61qgE+sORhFhvH5kX+Tgo44WlwjgzBZM9yUA0cnjioofp0HquI3B9oJjtnncoDXHo8cVFCIWno8QsG0L6nKCCWQYxVjgNVa8OQ4RVWvDkOFjLBjEODhjuBNsq8oDCw9HjiooRXno8RrSYvguULZNBU7QfTuJRSgWuTxBbEoQ6cI46eeHHwpqsuFrXo/ddCnMgcRBWxtT0EQzbFLMEfhEnzpMoquxitmMNTsIUWAgWHOW5TlbS7BEDwslT2X5kX+TgY44WhwjgglYREDMpdSs3ZN2TdkO2BMoRtB+uMlLujdk3ZA0NfNGiBVm9wmQ6322wEAu7He3bCRK/sd7dsJkut9tsOihbC6sLSl803ZN2RkNd8HZYFZ5RphUWc3ZN2TdkMvpCsEGsAh7Y46JOPgzUZcLWvR/LIv8AJwUccLQ4RwGzwWgTQJgHdpTXfU131DqfEQMQaFLijiYxBfn1ymu+prvqFdB65QkE80UoRC0o7XkcC9SvsScL9CvsScHar9cScFVQXhUkwLqfXKa76mu+obseuUBRcuxQgQTDRCiDU+Jrvqa76mEd+lCnUkBAA1COOmTj4U1GXC1r0fywL/JHVwIggxMCkhS2FrcI4EyfGbnCGbs4D+PwEEEDsAhIxHC4OFThZJtOMIIBEGIGgAAKApABoZeamYFvPGZgW88YWCpbziBuINIawmJPFBBAyDYSAbEAKApKOCsP4Qgggm7GJ/mCwHHALGMcdMAoIWsgEEGInVw1GXC1r0fywL/JHVwYFGWIAO62DGAEiArVLcIetwjhYki9kE7xUcREniRsxtKEBb3rYyUq1HERv6jC1vdvrM8DT8cC2YVeNKF7IKvGlOSRn4owvdK226XdcRFkNVoIaf6VCPeV2lAPiiIneKCFzYeyOOiFcCmA2dbMYxDMchCdKmdXDUZcLWvR/LAvckGXHML2QlElpKCKheZAazKfZNui8Y1mBdpt0Fp0DVD+IYFNaq/abdGUdQM9IBq0TATU75t0CMFlYDX7QRerAHzTboMgJBsUo2mAGUGDJ0sIYQ5GlpKCe5UERMTuRt0GK1aA+KCMlFaBX7TboK/SEAZrygUhbQE9Zt0CBbWOv2gaNI0QfmbdAEIVZLxzboo6uvAoUS4ogKZLCGEMueYXumky4Wtej+WBe5ODRgGRY0tFUJymKyTQJ/CamuHEL6AMQ1xhAQRFIR5xLcBuAGoFaQ8yn1zig0yBqNU4s4UYSsmCNxRQaDFmTBW1S2AqoujV8J4ZFIQ9YKDmGkamBAGiQh6hyj7iGwUsiHxEpRc4lLHnH3ANkrZmPmANABD1BlBzBWZXGgHHIpCPrFwLahbEFUFRq+DQQsiYKMIWTFm8s5RkjUahxRSv1zigq4icAtI+YQCApCGUCEoX0AIgplcSw55XzAbBP5QwSoOaUyqkZcNaTLha16P3iQASbBBQoBgLFBpBmPaGUORReDMqwj/iBe5OLxw9VhxKenlEVkF9EoVaG2PeADj4WT3Q7uQJlfGZVsBspWY2QE0lVALGSLcLJWiocroLOEsdI3IQ91NGq5tn3hChTTiQRhBVzaHVULGyXUBF90ktwZ4dHWYIJ4VXWYozUBF9igW4IKubQqKl4WxBC2nAghDX22K722PeCzgDDSJzErVUPzCTSVQA8YJsxsjMq2CmcLcLId3AEyugQ4uNkblBfRD1CoLZ95T084gt4jp55fF7SZcLWtR+8BIBqEuRHbuUKsPCYjGIbSImzMoFJcrkriR/iBe5PwENQYcQHbKVMgNovVELPkD0iAQDBtEqkRkKv1lIxWA1vSBAAKAQZjVzHpKC6u4kHQgiN3oIGmIYAFBl5xIyYcvGBERCkjDAEI3dqKDqZSgurupBgFXIekKAg1BtlAxWQ1vWVaIwFX6RAAAQFgjFnzF6ShkEbReqA7QcSw5vwBNJlwta1H75GUEWAwZzEuCOwQUFcCRBhuEJM0A8v8UL3JD4oaNw4jrWRzhgTnsD1gsWCoG5ShAh8+UdAQrFhCCpEOlQMpUjmeEUuijUflBwi2owRzhxOxOcEOm13DKAoLM0tBhUcGgsGBRyaCwISgMTWwGGHTYxaM4cTsTnDy8VWAOccqihQflKEczxhrRDpcDOOkIVighlKkCHy5w2LBVDcoAE5bB9Y61kc+JY8/EOJpMuFvWo/loXuTg4NNqUAKknKKACGQIzQOHEdu2ANYtBiAFUPIYWHAsG4bqltiiOzgAijWowa4oYBIUHmN8sZQOSPBgFbnOqJYY0YPoFF0GOBXmEB8wFQHzFrClJJrS2SiSqTfM23MCZtuQUpJN62yGSVCLoa4j5m1lw45FeQQMSxxskcFDVfFgwSlznVLWUPkhqqokGhh5hdDs4AAo0qOMsuUTw4No3jdUWgwAQqHkEO3fACvEsJGEWEBmGRehRBoQc+HNJlwt61H8vC9yQci0qi8bCpnHikQBTL5TRuHEYDrOpJDyKawMA9QmeJY40ylz4Ac4QxB2KudWVj0jCOcW1lGWQPM4DdVAbZRLFQRAx6jA86g1lKpriS9WCVumBS/czlhu80ty3dmaE7dMjn5EqmuIvVgPOoJ5RrBYZgR6hDbqoDQylGUAHKo4IwjnNlYZg7FfKray58QfWmTJY42yiwKahIQ9RgCDrOp8QsYPDQBAWhHOBbTBO7BfnDkaTLhrsn8vC9yQSBHgAD1QCtFloScgItC2CA9DAcRmyS4+eBLgVJWIKaibU4aYWNwOB4PtBIjqrYA3BzPBjoeLmbU4MngUImia7AIXpKsQTlgO8SDAd5lVgCdk1WkAPSHI4FSZjmpm1OZ4MdwcVVbQGhen7ACODgpjY8Gi4m1OFLgUIWePnlFj7kWjbBCeggX6GjQIOYMBEjxAA6JpMuGuyfy8L3JwOETwDA21CY5QLS+4oucMpq64cRr5k4vwQ/lPDCuJUjjCIN9LHKVfzyLnbAW6jMbT9L6QkhYBtpWUd+MeQqJvVkOmsVr2OUdcQw63m6YQc5EBMFcdmZ7YlFS+saAoFaVsj6wgVoftWEClB96xoigVpWzLpHZmOzJRQvpDzkxEwVx1xHDpcSpjDhrFYtjlFkGJFztgJAwBbSsqr8IS3U5tp+t9ZRfPJvVkdYDDvtY5QflLDLzOka+JObsHEsOeTNCF+VLszgmUA420CZ58HaTLhrsn7wCFgDhkiVRV0rAlQynolLfe0PM5WGqMcgT/jhe5PweNVYcQsFjn1JbVADKu6ww/3GYMDKNaE4F6thBSnnxW3oQ7t4srkVcUg3YR6njC7CMU5UZ0XGginenOFDhLOA4Fo1L2RGessRR00ikYFC2XCKRgQrZcIzPSGAo6awBnEcG0al7pXtflChxgnKDKq4UMLU8YXYQXzcgX4wh3KxZ3oQUp50jZcjcxGDc7Jz/ZhxMpbVATOm6wQWKFPiCx5vwntJlw12T94wK0mBBAAF6VAXQRdyxEBUwlBSEQlCOoAYigGwhW/44XuT8FDUGHEA0ARBgRE+NmiG+cRmOH4i1kD6QFI2MwOB45sRiwhwbaBFYAQAgmKaxoEYVqI4KBDhoMeIK1EUO6s2tSgisQIgx4QZNtCxz4zwEpG1kDB8RYzA9I4J5xEYUBHjbogGwCAHEsOb8BTSZcNdl/ffhxKEhQsBgBhAAghg2iCAILCrP8AHC9yfgQ0bhxBoyVEuzlb4uRYCiMK9EfhK8MAXEYXAfZvnqRk6LuG6B9kEcqlCQd0YBXol5cKhc4MQikT8xyowLS+SBIcUrWYwweTK5YIfJlc8CQ4rStwilRhWl8kGIRSI+ZeXCgXKVpBXwgleiH7MA53ESoq8boLkPt3T1JXlAK5IXAAdyIfCUvi9FgaIhRr8+JY8/4BNJlw12X+Xhe5OBCCmegXmHV3BsEZTQOHEfjEHMjAXWpJqTXWxSXVAFrRT1i7qbG2INg0lfUjKMOZKQze9JApJA7IV9YKw6ANzLZpLIsA9IQWAiAqMaSx9MhRQUBdCIIGwScoMDaZPnFj+YKigMC6kwXEgCqcay2LQPSMFJdSFuRbFINZIlZCnrE3c7lGUY8iVg2xJsG0pB99RXlAFrRX1gLrQg1MjfbNIvGAOZDiWEho8jJoAZxASZ6JdwRpMuGmy/y8L3JwQMOHFCwQboPhcEHbazNG4cSkCuDjDMne7YMtx1uZpXbQuUNAB0QlmBcfDijmSMgFKPKixg1XrBUaAYawOgFKFioBeY2vMA8kXVBsoXsJWJPIASkDlAiPoh21L3EbfmIeaWF1AcYRlrB6AUOq9ZKzSryosI+BxRyIGYLgpgOiG8gClNtC5y3HW5GguDudsCUIVwMeJYwPxECQVliMMfRUsAC7hDSZcNNl/l4YLhuIJiG2Kr4n3In3ITENDRa+J9yJ9yJ9yJ9yJ9yJ9yJ9yJ9yJ9yJ9yJ9yJ9yJ9yJ9yJ9yJ9yJ9yJ9yJ9yJ9yJ9yJ9yJ9yJ9yJ9yJ9yJ9yJ9yJ9yJ9yZWk2sifcifcgEA21VdCJHqBdw0WX+Xhe5P47SZcNFl/kmMgAKxjbcqjSW5G25tubbm25tubbm25tubbm25tubbm25tubbm25tubbm25tubbm25tubbm25tubbm25tubbm25tubbm25tubbm25tuMtlhYTbcHkILYF3f5IFAIwM2JNmTYk2JNiTYk2JNiTYk2JNiTYk2JNiTYk2JNiTYk2JNiTYk2JNiTYk2JNiTYk2JNiTYk2JNiTYk2JNiTYk2JNiTYk2JNmTYkFofIF/5l//xAAtEAEAAgECBQMFAQEBAQEBAQABABEhMUEQUWFx8JHB8SBQgaGxQDDR4WCAcP/aAAgBAQABPxD/APnTNDQWq5ARQXVZjuKn6tBwVeoFCG1u3WJwcuC4F5dP/wAUl3r+spoFhE4itF7IvwhQtrgFTfKUsG8zvjUxm/8ArdacLh/UswtvQAx2LliUZrlyEXU4V6+tcQOl489kK7lVDUlZtr0ijwsmaaLaG84W1oBW61f/AMSNCkoqt5E1Z4F5QoDSiVW7W6Eo3Icm20GbUC0gbatx5ErAloAHQgoAG567KuICIdUs0mBbZhzkBZZiWF2XlDHDjxsL/wD8NK3aEgSionxEhsa6W9lP4iXxEviJfES+Il8RL4iXxEviJfES+Il8RL4iXxEviJfES+Il8RL4iXxEviJfES+Il8RL4iXxEviJfES+Il8RL4iXxEviJfES+Il8RL4iXxEtxW0voqn4iRCs7V0/A1ftPiuX7S0/e+1trwXLwc+yJ8InwifCJ8InwifCJ8InwifCJ8InwifCJ8InwifCJ8InwifCJ8InwifCJ8InwifCJ8InwifCJ8InwifCJ8InwifCJ8InwifCJ8InwidpUP8Av2qcuqcBcVRluY1VnhZwsg0jr50TKIE/kr6fBcvBuMeALaECg11RSW1lMPgsmwibmo8Jql2GBBCqKGit4nnXtPOvaede0869p517Tzr2hwetYjatQvO30DltTzr2nnXtPOvaede0869p517QSfK7Rhu6CaBRFuCFep2hBMcrVekIhAuww66kXalg8G8F8qzVDbThLlsKgabSCx4N5QNLFS7lo27QILVKloQkZXvYAg5hhLoi29RcGv7wTUQpGVo/y0kINhrk2Eeke1CJhLqoUglrCatVlgJSxVgtWxioN9UWkV4lLJzf71p2ZLq22oRm1VqHmszOxXjF1nMzHqR5E8GsTZbpdFPYXDXqmMau5bI3sqkg15ZfUXwXLxaX+G5wMe2C2Ywxr8m7odp1XSfgP5fX/wByvAzO4aQM5INEtNrrx3sVMcexGeHnFV6ePv2zLcWWtC0usEYjJiaHDMEy2yqsqpSh63ObY9WCo6TqD3e7biWYbkrj1baTgvagqNllVzF6HPOFNup11yjICCvvb2cjY4tl83bHd5W5xcS7zt1qtSts7k3IZ1l+yiMt2lMxToWagsbndHK8qxAM67oV01XaYHZj0Q1qsEv8P7/+9NXQLAtWlk1ugBYy2tIDKqrZpviEU/F+loKivHNC0aVGjTGIJWr0QwCvWq9Rfp8Fy8Xl+ntHdbcsUNSFJF5KQQc4yt6fznvnfO+d8753yletLSj0DzjAviADqSd8749zWptzYoCLBhQsrnfO+b1swbtjXWZN5XMh4DTPUOewqYLS5QNzew2htDbzQl5zpFENWfRxRRAnGdX0NjTG8u+3NEdf70yx51h7Gjplg21iQErX9TeJr/GbiknNmGVLiTDmvVjwKnXN4EHeJzIXK/zVudhUCwKseKzAuiOZe7+ZZulvQrB5ReCvnKgB0Iv0/wC/9rTXguXi8bBVFVHKiFDa0APWSfIavqSoM3Cootf1y5cuXLl9bKXrQyW9rUCf8Jcv37ly9f55j5Bj5Bj5Bh/+gx8sx8sx8gx8gx8gx8gx88x8gx8gwuPInPudQ71rQKqSyBNSvqyUNrEB9JLBVVVPKmfv/wC9NFFpcss6akLadjF9I1VXTRhEMA0nSYNFDddCBmFuEPLPXAEWBOGabdymGYS26Cvp8ly8XF9hyzEslbVLsMfFpjKKg6ZEzt6fwnvnfO+d8753wzH5ub7VDC0H5xyMm+U753zvnfO+d83vZnM3j/nUSN1/T7TozWb3eW+aSyU+M6sVuDDaYGHjlJbWxB3JJvF07+Z7Jc1cQ2n/AH5Jj1Sruzcqqiy34nZzlxNLU6UsC7Hapsx6FZbptMV5M3gajpKfXfXa9GXF2pHZsFk0uPmNkBTHsu7nTAmUI+knX5mX2H9//eujwVZeai+Qox5NzMQhZrSIuT4mkou3UEP4Dm/1maaDtZJGzVo2zA6Sm6zWxTH0+S5eLi2SkDVtbfKLLYBSji5ANPfEznL+f1wNeldUlDPJR1mskAkepk1xDH6bUeBFZnuCbGXxHpTMKmTBVSGjMW0fSl2zNbNPPAipvzYPPr3EG0GeV+lxYztuxDv3V4yj2T2YpdOVKPlsKY3VkHW/WDPp0lImLCwbKiVTikSYXcBFov3Xy3AsA8ItUhmdWSiazpkuKfKgoLgZHyW2EcoEOsDS2bjcSlbfFm0WyX9/7WuvJcvF4OllbrPLApg1jKRbs9gzQFBAHlFvSz6zGMYxgKU6jZNdZbktX3VF4sYWmvIDUpdglTRwrAAPNxYxcSQ1jO0gNGWW11ug3cEq27rQWsqUSxmtEBpTQTgNqTW1NJUKoYIUKckhzhpChRlkootdTFG853e1FpbR3xNojkVkdhysen250GlzkKgr3UIGuZyIBRllMK9203JN8BAKHA5iO4Fte8WyzNds3SNjDLT7NqtYullTpP7/ANrfXkuXi8v87jE8NcGBqzLa38sHSqVM3ekXvnfO+d8753zvnfO+d8753zvnfO+d8753zvnfO+d8753zvnfO+d8753xy7+JMbLjzFpWzHUVySBXQ6Mv8/wC/9T6CxCUZW1PaMB9XUcFMG4NC6Lg7IsJKlrzUSmT5aMV2QxYCQQdFIOTY2eoy3mBS9629NBDxgsQv+IZEjDtvWjpv/s89y8TluhzgGBkFVQ3ZCfUu5G+2zwbb/fAAAAAfIbYli2fAi9EmVrRcACqCqNCW6H936n1igyrQ9QQY/J8wOjXolDzoECnQDNIUYcRFIKgrr2cNEvd1U2yWM6bXxXW4RrkxwVzFGjIYnTuuym0Jsm13CjH/AGeM5eJy/Tu/m0EFVkbkw3KwoFs5UmQ5fy/3v/8A/wD/AHI6v5mP5ZlMlbi0TcZ/Sylg3S/T/u/U+hKB7wIoAcpfoY0xpM10udNrcou6L5zRx7kwBSjSbAXzmwF8/wDrTAnMYAKEdE+lNJEtmUOAJM0FB4AiABawKwLBsR4K1GgbHh4zl4nGEsPRgcpSMrmq8ldiaUirKrpQJL7l/U0TSJXSlgaTD33oirbLS6VZkFOeLOC0IK6TRRimC6qcnlEhiq5yN6X83cnhHtyCWnSLaxmBHaxaWROib2BeZD7isgvNSH/BMNWJrqeSYXpLztIHF9dOUedpQ6nrtzgyMYKq9pl7qglqdlkV4ucETVDYLjmBHa1bSVlZMcujhji8GXKtqk7GB7UkbqQXClm4uIQnnpbSSzMlcLVfTCTAlXQNzSJfSlg6zPPh13SVNCFdhV1tFmb/AFKYU2SWUoPRkcpCfu/61V+sxuC4aVv4JosxlIIhclFDCFYbT341HJB1ceeyrx1iqhUQDSlsk/Mvnr5CNUuuI9A51zgDn48mJK7JUkut0rbpmm7AZ2Wh1sjcAXxmIihv9HL1E34m2/A4XjOXicvsqthaLR6TVsKLz3wSFs1WZe9P4TdCHPiwThs6RV31yUZ6BrUWtO4zRiqm0GL/ANpv7aYz9tS68ZzBgTqiH0SO+b0DgybF1NIKtaQ8aIdTtrSFNpKaaRxmBA8sMhtl9tjSqaM0NJ7Sju2lVdIur5x1bSqu0VdcoexjvrU24blqu2pMd4oXPZEJyQbBDpbV2CLQVS0j4xTbRxLDlj5TumY0NeNAgxL7II19Tw7hl4I3CohcgDOOVtWATfNXzLk5hmZRtMx2lRdCHPigTnyWya93Tw6pmrx+YFMWcGzF9l/d/wBaqSxIVNaadywdSMDeMlW0aWytxz8dxULkdduFHqhBJgeQOJAnB3sNYKVAr7DqtwD54ZfS+4Qws1CWu4shCO57RYu6kEN3eUUsJqBCiSBIHxmJWUyDaaI6eWsd4eM5eJy+Tg9fplHtN0xkwSuCLtmrTPcv5y4qqaqfqoexXM8SQjhKKz4lGhGrZxiwrHquBbGUgjQiioDeZeR2nBbLMeesnpGM6bQYBNNJKZFR1vkuEA/CCx6snSH5BqSExdGCqukXVSqMFVdoq7mOa8ZS2F9UBj8LuiQa3yVCFflE0ctITjjOdFoMA2gKOHJHdMheDrNlUiztgnGR2Ui4BaHsiD/1LAlvdKXGVkOyKzFqy2jExVUVU/dRzPKs0oMTlaM1SYrWrQXXGrF8n/Z+15rxnLxOarkF/DJlTt04nmRLy14nucL9QlKtcaIFg1AboIqmqJfuq6sMw/Y1WaS6LJUnrJvNRnPa8WpSUUkTVlKsFFKwEWl+zwONaDT4RNrowFtuIqGPwEUVtG7CUQCXaXGihf5QrvAY6DapO0JYtaKd0J6F66yw1hPRvfUWWkBo68+d92FzVioHNgI1rdaINfhHQe5la89brgW2oio6/AyywsB7sHgObrVQ9uIWA4xnKS0DBCXKC0cFJoQkZGIJbipccEsKWgclscU8930hoZCwagN2UTeZLGxbqmTbfme5UJMq1tDM82arkF/DZ+x/rxSpPIliLLDWJluypkNarhoHbtam7AWzlM2dAS7FFLCXHG31WJ0AJtLS0uJRAhodL2l/lUuHMtqdYYi0CTtrKZRHj9oxogKajbWK6dKj82KjhWKwpqmQATXcVA5TCkxr0jg8Jy8Tl/naiTmEJyd0xn3eEDe6DynaSrU5hcbDKcFJKHSxURbbBFz5oAI7wZQ2RlONVwHUiAzljlCqmC8EmtVC8DgNiV91+U99XizWe/WF6MJqkXaBjHFuYv8AS3UoYs2dFYZA++7SIcmBKAAGgREoAI6JF2cVo73KQFaNX1licVL3A5in0p3LrHQ7HaGZfV4sVnv1m2S5CTgUS49fClZ3whsKEy6mDg+eBQNnOVuNKnbTEHaogrIi7mXNmaxjRqcwqNhj5TZH9tNEgK2EMgd2AtAdkv8AP+x/r5WfaYHa/WHAWUtA61gVLhMuiiTHMIHsJQ7izMcirWpDMUtNu3Yx01nMtdOFR6cUHG+dRLd0WGgMQaD5spb+O0adJByZ2QLOFXPYT95ry2BitBpPIrXDwnLxOW6GmzjAAu7CqJes6OBx0CZPl/KSq8fTdpajgCpZGiWuyaCHLQqnrcFmSTlQvpRF2qqENB3rlmPajsVSz74g5VLmMYb0YArUBsEt6JVZpXswYMWdxCkLBQrsQS7lVIg01cbUQ3l3jTVxvQBWTeZKjcHkcQizsIQg7gkNTIvMYArWRolp6Jk7dxA1sjvj9inQpdWbMu11YpoO5cpWjBYS1QXMURqYcoF09aWGp66XcjBVePpq0lxcjwrLdXDyJfRZvgOcAchuyW6H9j7XyvKcvF5b50TTw6WpYgzPIWXFH4Jkr0/lFjmjVCpEteA3CucqAZlv2n0SxAllWfzamuY1NsI0Y3UPmy7Yvx7MK/S01i1ZLonfNwk1GLFuGaSILuEkoG644jM9ooen4axZGuFJz67tyARLVGqo6GqWhZTSCI6rSNFtIZvjr1//AJJrG1ekka0Lrht0NoQLCZdZYiA1/LNJEF3CWXQ1MUrBQnfHdWpPADrYxVvam1pqyZe0sOrVo6bwZtBKUM+N1C2s/WL4OzOccVUxD5JY5oXQqRHK6v5hymFW3tLTdjEjO9j1Zuy3z/sfa+V5Tl4vFMuTURz1ZzL3/bQED0Ow27VgyCjY9rcNL/vUyZMmTJ0+xMmTJkyfbsTJkyZMn27kyZMmTpu7D3t1NYQqFratWkkaUj6tukhTKk1E892fsfVyrhG4oeSUipiogtDzaOg8BZC/7vQcKfspVLqiqs0RwHAGiy8l/wCzynLxeWyVRv7X3inNQK+6wyFadFKmWvT+U98753zvnfO+d8753zvnfO+d8753zvnfO+d8753zvnfO+d8753zvnfO+OZfxIeerg5FaW64Sh+VtYW7xbJf2Pq1QXXOaJvzUbAfVM6ZrVwZwqhMKgFXNVZvaZvozY+8xLgXTdrH92HHuzdqIWwIpnXYJQS1a9fRjUMXdf8nT/Z5Tl4vL7PTH07lbXCsmXXLTfUFw0FzPP9p7p3TundO6d07p3TundO6d07p3TundO6d07p3TundO6d07p3TundO6d0c6/ixQWtrtymiMSj3FWOo/JL7P+x9WqGcWiClak5lPwEhhxW2Cumr1Jki3fTQT9s6W0phGg9oc56KZuikOryxd83VimBUwjLTxYqFovm/2eU5eLzR4/pvXCMqaphnTw6IUaXuXRadX49Z1/n1nX+fWdf59Z1/n1nX+fWdf59Z1/n1nX+fWdf59Z1/n1nX+fWdf59Z1/n1nX+fWdf59Z1/n1nX+fWdf59Z1/n1nX+fWdf59Z1/n1nX+fWdf59Z1/n1nX+fWdf59Z1/n1nV+PWPNFfXt3EnI9EBqWgIJq8f03rj9j7XqvIcvFpVN3EavVlQaCibl2xwXNM3hKip7LX+0wAAAAAAAAAAAAAAAAAAAAAAAAAAAFU9luG+G2SmWCyr10qKBmD99orUi6b/a+wapBpJ5X/z8By8WjqF1QaGCF0NQZ7lyzyXabYoNQ4syXCLhFwi4RcIuEXCLhFwi4RcIuEXCLhFwi4RcIuEXCLhFwi4RcIuEXCLhFwi4RTFBrHBmR8ZshYgbGex1JogsOiO4X9r7B6syOfNXhdyqiuuOcCpxzw+hYimmNvjcDEo5Tzipy4h5rWP6p8Ry8WlHGp4FtL7S6k6H4zp+uOn646frjp+uOn646frjp+uOn646frjp+uOn646frjp+uOn646frjp+uOn646frjp+uOn646frjp+uOn646frjp+uOn646frjp+uD2l1JUfzj4rbxLJX9r7B6rx1FGa8lKm3hjVqDUkgcim49PJVv7cMILkKqrgV0fpmi8nN9XiOXi0dcUnme0hxRAgFDqP+wYMGDBgwYMGDBgwZbREBbVHoILa0tAb/AOwMG7du3bt27dowYMHFECiUegj5rbxHcT+19r9XiOXi0onwRvVKCdcJXTxfaToAjECx0H/aTJkyZMmTJkyZMmSfgIMAVmDxHbxEbUl28FT5JPkk+ST5JPkk+ST5JD2ynKp9Ca76x/M6oTqiI3olksn/ANr7XyvEcvEoqhwvVgOqoEXYMJgUoYwVHdynhm0LucbbdMn/AGatWrVq1atWrVq1a5U43yv5rFU3AkT/ALUUeaaaaaaacUUXLxgAehH1H+YBFi1ay7s4RrxfcIUE7MVw/wC39rhXmOXiUZmXu+JI24LVSEKv2nrATRIu44LXFirettXKPks+Sz5LPks+Sz5LPks+Sz5LPks+Sz5LPks+Yz5LPks+Sz5LPks+Sz5LPks+Sz5LPks+Sz5LPksWKta0184d6xaSefa+sDDrhYFjCZl7viy/b+1w7zHLxKKpOvhEEvNt3op1eFqi24dXCVcAWiMuv9pQoUKFChQoUKFChQoUKFChQoUKFChQoUKGALRGXUfHbJs0YN7ivBoqVhIyFOu3diuT/b+wQ/NAKoFoIln/AC8hy8SjqFSiNI6jCU30AHoTzTaX/GjAFQq/X/b8+fPnz58+fPnz58+fPnz58+fPnz58+fPj/jRhGo3XpHzGyF73qAPRgAAAGgR3C/t/YIfedN3BW2yRjy+btRlaET0sWduerJPlg17H6sR5p1nnXZdssYlirrV9XkOXiUdcengW0oiXUAD+H+2mmmmmmmmmmmmmmmmmmmmmmmmmmmkES6wIf0j4jbxHc7+39gp77fU2K3Cfkw4xk2iq1qt2FbWOHSRXj8kr8FO0gJrAeHO8A3X1eQ5eJRVxWeR7SgvXBqIa83/ZddddddddddddcdusBFdNYebWRes1ca6+olo07j/wECBAgQIEHQwLFD6cS64C9cGKhryR8Ft4iuL/AG/tdv8AKcvEo6k657gbquwGrFhQi0Z0UZ4NtK1NRDYNHKS5DchuQ3IbkNyG5DchuQ3IbkNyG5CdVSrNC6JKPJx4itaSpQaJ/wAKKKKKKKNEuXW2X6CXfUP5j7IVeMa0ExCzbZRsjox3J/t/a7f5Tl4lFUOQXtrYNkVaQylc3UnTWqTwTaKXVKKJtBT/ALCRIkSJEiRIkSJEibzRKhb3YXCTj91UHT/sbNmzZs2bNmzZs2bVjTNOGoqR9R/mKZpG63dSWgxNT2FWLdiuH/f+12/wnLxKOiRaHTyxYJFqlgNirrr6BJeda+wJyHVUWUtD/at27du3bt27du3bt27du3bt27du3bt27dvIdVRZQ0IdaF+2SogpX019Uso3I1ax0QLY6+WP3ftcv8Jy8UjqT0VFkLwDeLATf0pA6PC1Plm3HYrl4F4F4F4F4F4F4F4F4F4F4F4F4F4F4F4F4F4F4F4F4F4F4F4F4F4F4F4D8o255VUfHbJdIR3KQhmrykUFjhpm0O5P937BL1BKPuaglED+5CxHc/5eM5eKRVwa7p5ZtI0605aQ6v8A21q1atWrVq1atWrVq1atWrVq1atWrVq1asNOpOWkejj4rZO7gVxv7v2CXoW1rRazxSW7hnNk4NxcKq00sBVpLxzhdvFfTL5wvlY0rtia6+/1KPHcvFI649PAtpBT4SKCjXb/AGxxxxxxxxxxxxxxxxxxxxxxxxxxxxop8JBFAvvHwG3iO539z7BP7fvl1OaQwHUWlOSNCbhbQUW1qHcUOZOqpo/MzJVLkSq1U6fV47l4pFXEZ5HtObD0CwJdj/2Pnz58+fPnz58+fPtLXUCl+FBMMQaJlNcR8/i60inktf8AgJEiRIkSJuv3i+VXi4nz+LD0CiZVBHwW3iK4P9z7XP8Ax3LxSKpNbpP10rgnucRtNWjDPAtoFWZJlcufBveeDe88G954N7zwb3ng3vPBveeDe88G954N7zwb3ng3vPBveOrNFZXarkuUefjxKlEHhANGddLrpddLrpddLrpddIMVLMV+iF++ofzBf8mgoNWnBMdo+qlcV/bJyj+O5eKx1Hqs2wl0LzTKVaj3MVTGxU8k2jLIfcLvPJ/2Vq1atWrVq1atWrV597LkPdh5dAKFq/7adOnTp06dOnTp06eUSepTeeaPqv8AEPG0nz7VsbtzTYcoegXFsd/bHyj+e5eKxszvPg5yLqvRyWB1Fu38CrBC/eatxT/fmmmmmmmmmmmmmmmmmmmmmmmmmmmmmmebcdZUl0pX/SlaAjNro4aGFmd58nO/bJV/PcvFZ+5NgVguXVZ2R2tLjEo6A0Rf74QAAAAF87ZDhxqHRR1Da5QDXvQ4s3z9z7Zyv+e5eKz9udy4orcuWddIOmiVGv8ApY8ePHjx48ePHjx48ePHjx48ePHjxtcuCEQgLlxfG2S5c/b+2ci/kuXis/ZncuPzdpuXP3/+r63Li+dsly5+z9s5F/Jcv1DOR+Ttxjvu/wDSuuMovibPt5zJv5Ll+oZSPwduMd99/pVXHUXwNn28pk38ly/QMZuXH4m03Ln7r/UtblxfK2S5f21mXfyXL9AwG5cXmbTcufuv9SFuXF8LZLl/bQbd/Jcv1DNReFtxjvvv9Kq4ii+Vs+xmvu4lUptXMYFXWeiq5q7vZBZdG01Vmrs1zSLpXo6RaQYhmXIzQkzznUkcH9wjfgF1bn0+C5fqGSi8LbjHfd/6V1xVF8Db9jJfdx4yOavquM9c8C38uFUe9Y2qtLhhoKYLFCNB0leeGp1ekuiu5bdSV2bUEYIAKqj6fFcv0DNblxeftNy/9emDcuL4G2XL+26+b+K5foGH3Lj8fabl/wCuTBuXF8rbLl/bT+F/N8v0DH7lx+HtNy/9eHjcuL4W2XL+2v8AC/n+X6Fl9y4/L2m5cf8AphuY3Li+Vtly/uN/C/67u5cfn7Tcv/XBU3Li+s/mXL4d/v8A2sr+f5foXN3Li8LaLl/6/Lm5cX1H8y5f21vlfz/L9C4u5cXhbRcuO/8ASyqnNy4vrP5ly/tpfK/n+X6F2dy4vO2i5cd/6uFty4vqf5ly/tufK/j+XgcLoblx+JtFy5Z75ZgrVdTPF/aeL+08X9p4v7Txf2ni/tPF/aeL+08X9p4v7Txf2ni/tPF/aeL+08X9p4v7Txf2ni/tPF/aeL+08X9p4v7Txf2ni/tHQdzqqaO6XLi+p/iXL4Q/v/axv4fl+hNi12hiCmEtuzBmOCzBt3G4/B2/3gAAAAF9Z/Ea+Q0HqKdgqBfZHAW1g3PsOLG4ygFIKgXqBXT/AFMqIC1Rbg4oIIPr8Py8Uxv7S/ABWF1yw5oBJMzYKINCVto6t+mg/wB8iRIkSJEiRIkSJEiRIkSJEiRIkSJEiRIkSJF54JWf8JO2aGsdSSS+4kCsmftL8AEf97G/StucWsg+8p9TqjhiPto2b5Yo32QE6UHQ7XVEl4RdBtKupD9dt8A6mD5HNzbSX0hi0b5PAFoMQva36PD8vFNfusTnGuo4osuFVF6oYDTRpUzV6Re+d8753zvnfO+XRfKhFyl4Jqfqvhg+FzabzGddv4xpJTFdvP8AHhNbzT7zu8lvFPrG73hmlJKZrp4/nKbzGNcv6/RNmzaovtQm5Qx3zvnfO+d8753xy7+BK5UCsQGkVa4rdRycKbRfusf2/wDcN6+rr7XNShqyK7qLi0xieY1F/TDXrzWrYr15q7RbRUyl1gGoq5sbgm57U0sFvRgpu313EqPqhNOiCUOAFTevoeH5eKa+wu2o6RZDdcg9Vrl+cZfl/Ke+d8753zvnfO+FjxMucs4AyjpzGZq+XhGURO5Ftv0miRg7Mr+/AY2uQsrHEtrmLLzxwjLJGDowv5yiB2Ktlev0RgwYWHEy5y2HfO+d8753zvnfHM8KxyL1Qi+VuB/lo0Tf0l9h/Z/3HczOIXVWqBADpnD9nmlwFpDr1NOyBGpLMJ1aGz6y1aYEWQW2Sc+0D20J/S1iqG6mshaQ1a26L2RfQoNH0eF5eIa+T2WT9YpTzlifaKkK0NsTwLb/AIAFxCkCpqJ0p8hj5DHyGLs1hsa39p8hj5DHyGPkMfIY+QxVmsNnS/lPkMfIY+QxUQpAqKgdb/gAc7q/mVL+YisrS3blRUXSMLd4vn+/gz5tYN9yi4qsU1y9DkwPcMEJ9GZZ+T/6SJExAbq0lzMF7tDrFzgu+q5Vw1eZKmBzG3ixiCltyDQrHSFn4G4p9DwvLxDNhT1sPWMprxdu0gQlkGXQZxlL6vKaf9/Xr169evXr169evXr169evXr169evXr169et0gX3tUl9VNWEM/jj/7gyWFPWy9IfWDOIW2gavK4M9ajgGdSEAUtYjonBkKYKr0Du8Ahro3MYBGsTSA8LP8WGhqbNWTT/k87y8Q1/hNzp5gUbW2QjkvUUFvYQ/D/wAp7p3TundO6d07p3TundO6d07p3TundO6d07p3TundO6d07p3TundO6d0fJbITCMqoiUtTUgaNXtFNAd0v8P7H1Ee9jikOb2LEfdGq0Yhz0TasUUKjVGswbzwRWsEnQ6d0ODSMU2qevXH0Bncu8sSFyt9uN5+Gri3LS3w4Bpef7HneXiGt06gNqro200ISSWmhAi9Iz96fznvnfO+d8753zvnfO+d8753zvnfO+d8753zvnfO+d8753zvnfO+d8753xzr+LHRcNyxRU1hwfd26yx1It0/7H1BfG0Dbo6pYbT3VJaLC82+km4eKXWgE1tMbGxB3bLWjtObCbjxTaUg+fmzWLKgV+pau0HLO/Q1OZ/s8zy8QwR4oIKd0RSx1REWQjWrHus54O4HD/eKHDhw4cOHDhw4cOHDhw4cOHDhw4cOHDhw4UPPn3tboC0jS7DskiTHRAQAeaCKndH2wAfzPLxDOu9MiXrAY4R0YCPZrRQJkq/AVwuIKY9v+0LLLLLLLLLLLLLLLLLLLLLLLLLLLLYXEFMeyB8NshDqyyq1pmqy9klLGcm7DvvfbMAfzPLxDKu7F9dw8hNE5MtWFWFXTIWeQ7TUabWxQf9s5znOc5znOc5znOc5znOc5znUabW1UI+A2SxZVYXdcJIFv5a3LqvNivux/Y+wAd0erN3tBfGI0oUsDpitrHWro1nfOnA7dqUr185QpUvWozSpnorSH1R5nl4hnXHJ4ltJgmktyhXL/ANtq1atWrVq1atWrVq1atWrVq1atWrVq1atGCbS3KN8+PmtnEdzP7H2ADlb2aLUolaq+5HN2Ocpyd8KFbaBOTrthOxjPxSDyFZNIbLlKZWp+rxPLxDKk4s8j2lQP9ogH7H/YAAAAAAAAAAAAAS3hqhUGSkJq0bL/AO0AACCCCCCCAAAAQP8AaKJ+hHxW3iK0+2MGfxPLxDKmnRAALVaCBEXQQ9SeH7TeBtgNCx+E8b9p437Txv2njftPG/aeN+08b9p437Txv2njftPG/aeN+08b9pSxsILRWY8B28QYw0F0VQH/AAWrVq1atWrrEoQn4R9BLvqn8xcC6iHqwUBCxGxitvtnBn8Dy8UzqMvoE5heRfvRDrq2rY243TwzaKrZICkt1v8AsPHjx48ePHjx48ePuNkgJebqQdFAR5Hjlksqnm/8P3333332/wDxR8cshpQKlTsR9R/mbRwej6XZLwKWAVusncZ+x9rM/geXiGuHqB6DmIW2DvcxB0nH/UC04jTgtbOcfxj/ALHHHHHHHHHHHHHF5ndbren/AH4cccccccccccccYx/GYO8Bph7so6x+/RTYO1TXD1I9DzMP2PtZn8Dy8Uy08V03Su1t3mYGIM41FYNEzwlWN/x6f+2YxjGMYxjGMYxjGMYxjGMYxjMb/r05fHbJaQoa7cRoBVSsBt6Z2+Rg2/2FZnattAH+F/5+B5eKZ13Y06tSFiQCSaE9Inkm0rYTsID+v+173ve973ve973ve973ve973vWwHYSH8Y+I2RIiak9JlcLUCgI77v2FZnvHSILXkaydJRPGWlqGqaXGHt0DlrcpOiaOTDs+M7XNgTCIMUboXp9TwPLw8XzxV3uKeBbS/wBNEUCxVen+21atWrVq1atWrVq1atWrVq1atWrVq1atWn+miIJZu/WPiNvEV96P7f2ASmbcVWawbgwP8gMpQa2inJSTHBxwGt78ENwIxIFFyjSoNirdt7/V4Hl4eL5464jPM9pTtnIVodRKkVSKpFUiqRVIqkVSKpFUiqRVIqkVIl1kqowHUufVVuripFUiSobyf+Bhw4cOHDh3f4yWpFUiDvnIVo9BHyW3iO4P9/7WJfK8vFcqn0A9uVDWzzljmqSeDbTeVJwAN3adH59Z0fn1nR+fWdH59Z0fn1nR+fWdH59Z0fn1nR+fWdH59Z0fn1nR+fWdH59Yr0A4ALslHk48QCMg36KoKdVL1UvVS9VL1UvVS9VLR4FKj3S30Eu+ofzB0zzFDkWsAJuLLiv7Z/kfyvLxXKox31GOxYFd6gNLSbwQB6J4ZtCVTjbLtmfM5+Zz8zn5nPzOfmc/M5+Zz8zn5nPzOfmc/M5eEa22v6FsQFDrhATT/s0aNOnTp06dOjRo0OEUomRWBH1H+YAK5HnCIQjKhHbAabXFf2xnIvneXh4Pni/U94Y5CGqVowjYqYH3BlRPoxFNkvy5aIO3+3zzzzzzzzzzzzzjzzzzzzzzzzzzzyfLloh7y7w7Tqxqp2Lmv4wI0KtSA/U94Z5GH7/2si+d5eHg+eXTxzaNgi0GsUPRYsJCq8NqakcWjrNP9pKlSpUqVKlSpUqVKlSpUqVKlSpUqVKlSpTEjm0NYpD47ZCWu1hmlLpKt/AmDYZhdvH9/wCwEXQcn1yQFENMCxGxH/l53l4eD5467nFPJNpLaHQvU/OdX0x1fTHV9MdX0x1fTHV9MdX0x1fTHV9MdX0x1fTHV9MdX0x1fTHV9MdX0x1fTHV9MdX0x1fTHV9MdX0x1fTHV9MdX0x1fTHV9MdX0w20Oher+MfEbOI77n2F4BsstsG29Xcs0k+FGuGo1kQ5uzSptc6Xqz1kWsN37F1dmBCxVura/U87y8PB88q73HPAtpyM+dVCj0k+Kj8VH4qPxUfio/FR+Kj8VH4qPxUfio/FR+Kj8VH4qPxUfio/FR+Kj8VH4qPxUfio/FR+Kj8VH4qPxUcjPnRRodZHxG3iXd77D8QgH16H1Eps8u87NkxdGhgM0sN4I3oYjACFk2pqQnDnMAG6H1eN5eHg+eKuKzyPacqTEgE/I/7RIkSJEiRIkSJEiRMpDQiOISm4pDdi+KJEdptPYv8AgECBAgQIEXv5JkOKJEypMSIz8CPktvEdxf7/ANrEPjeXh4Pnjqeqhli9dRBVjdWU1aSM8C2iy0LFKiz4hPiE+IT4hPiE+IT4hPiE+IT4hPiE+IT4hKrQOCtUnhu3iLFHzqg5L/wgQIECBAgYwlCneXH0Qt31D+YCGM1YGLSAI1VliqV0x3Pfv/axD4Xl4Hh88VQjPt7KXSnZmQAKNcVp2ngm0Eu2CVSzLT/syZMmTJkyZMmTJkySVJE2W4UsxLNDl0f9kKFChQoUKFChQoUKuZAkLGJSx9R/iCtMKq6invmUCYayiLd4V/bCQw+F5eHg+eCNXks6IjduO+XwTWdgf9CNyS3lcppgIsSusJa/258+fPnz58+fPnz58+fPnz58+fPnz58+fPSLEvrIS5eYTn2pUOdaT/UcSSrjvl8MiNTms6I+2Qw+B5eHg+eDTRbZSUkjd4UmdgxBBaNo0OHrnvlOAL6D/aJEiRIkSJEiRIkSJEiRIkSJEiRIkSJEiROe+E5ArqI+O2S3UtgyBDLNSbEFsuQleLbR/c+wXF4s8s8d1tR/IluhGdBKJdlROrBemYhqn1eT5eHi+eUdzinlm02BdgcCfv8A7aKKKKKKKKKKKKKKKKKKKKKKKKKKKKAuwuRP1j4rZxLO59hZcU/imRvmyoZ+QCV5dRM6WIL0rtLA3VjvZP5LhGVGvaVRYaUVH1e/J8vA8vnjrv8AHPDtpsRm3bLT/aKaaaaaaaaaaaaaaaaaaaaaaaaaaaaEZt2ywgfAbeI77/2HlRz1UbJhC/KRjEqXRnpa/wBIJskYNmtMRAO2dGAg0q6lnJfL6vJ8vA8vnirio8j2mlu5SQFtj/sNGjRo0aNGjRo0aNv1mE2lZZlEE3dgXTjatcw+f8qE9Gf0Z/Rn9Gf0Z/Rn9GfmHVL61WXxtWprNwmILLsfBbeIr+2KkR8ny8Dy+eKpDJw+MWFlbBHu49OU1YNk8C2i35oErl6GieHe08O9p4d7Tw72nh3tPDvaeHe08O9p4d7Tw72nh3tPDvaeHe0reY3ldrQWXPL9vEd5lVIBSH/CrVq1atWrKrRJC9Rv6Av31D+YtP3cuUXQtswavhGSitxiv7ZCRHyfLwPL55VCMdEYtApgzaMqChVuq1PJNoBsL4hC2nJ/2JJJJJJJJJJJJJSECLSitoRqKplbrV/9pJJJJJJJJJJJJKNhfEqW05o+q/xGJYRVFWrNEuX6hNQKIXfbCSI+b5eB5fPHV1dLWczGU06KtW5mjSHlvVlIPtsclXMqNNYoX7P+0ePHjx48ePHjx48ePHjx48ePHjx48ePHjxGmsVL9GPIDO7U1loa3lvVtNsMCrRuMxIaurpa3ma/7pEc8A64HckLTDszWVpSGMb/W6rLOuQLRtfO4BKbqoah0WHw3ALIkNWO/QQQQVtVlTdoB3bIqJDqKHLbAL3VtcPNJTpmf1k8fF8vA8nnlUkcduznQS67xICfcwWAu48p2kXOouynQ/wC1u3bt27du3bt27du3bt27du3bt27du3bt1c6i7K9THxmyMs0bUlAGktFQ7m3FAXXvLv8AdMqJ4zWrRaxuq4SgVHcze/ajvaYFkVB0doSXcJtOoGWpZc4Sofl2wEYphQ0LnjHmvetUqs6T9a4lKl4x0pr+pGwXG8Xy8DyeeOu7xTwzadIcZ6ORU8r955X7zyv3nlfvPK/eeV+88r955X7zyv3nlfvPK/eeV+88r955X7zyv3nlfvPK/eeV+88r955X7zyv3nlfvPK/eeV+88r955X7zyv3nlfvNIcZ7OBcfBbOI77v2FlxDbrSj8rCzP5lS0OlSUjFpLukBmI7fcvUUg9Ptdo+vxfLwPJ55R3+MeHbS+3LWqb5R5N7Tyb2nk3tPJvaeTe08m9p5N7Tyb2nk3tPJvaeTe08m9p5N7QXTzuk8m9p5N7Tyb2nk3tPJvaeTe08m9p5N7Tyb2nk3tPJvaeTe08m9p5N7R9uUtc1zh8Bt4lnf+w0uOggx7AJBtuWavDmKm+CsWaPURFQ8m3QEtDFNpir0FlMiTXwsvu/qeL5eB5PPHXER5XtNJL/AEaM/Dx8PHw8fDx8PHw8fDx8PHw8fDx8PHw8fDxWSV6tCWUeAqp4nnikWWYQvR/4ZznOc5CTQ2NL5HE89RzYJXox8Ft4jv7CKXHPCt25yYCEaFX/AO05u6SPodJam8O7rG7KqqFd4Cz3Jqua/wCC54PPFUgS9KsolqDWIg0RZtWDpZPAtoDGkSlg1I5/9uPHjx48ePHjx48eJHkOVrF1Jnl+3iXL/umKBqf8IAAAAAAAA6hEroamfoC/fVP5iBGSLMoWGWmG7lFoLYB0iv7dCzFc8HnhmAkODGnWkp11GLNW5uJBFy0905QG6nIoFjoP+379+/fv379+/fv34KlBEQFZgYfTG9DX/Z+/fv379+/fv379+DdTkQSz1EbDfbnJDAgvNFl1BjAC3EFGmgQzCfbJZz5fl4Hg88vZ9q9xywVmzCWItBMtviZKjQw2hXOoKGifPvaPbXtKChDkFrVxxrVCrhFs88nC4WWpgje9pxrWsu86sGT5BhGxVFU09aKkQi4fnsRMvz2bME3GWCVC09TgdqlZd51ONaiU72srQxy3STUMrrmcWwAvjK1uw98VzLoBqocip597R7M8l0LqoeqapsUKGWDn3DM6I0ZWz7V7nl+2DOfL8vA8HnirtxUTTwUpbcKU6RncS6LW6cRUWULxHqVrTPQ/omzZumqCrDYCYux2XqdjRvQ45s0+2q8w1TCce8bFFQck2wVIXvDlpfeIrS94ctL7wNQCI5Gj3IqD09Xf1I/bVeOJmzb1Ows3oyfUH4e0JGLd8+ibNm7Fa1no8A69ofrhHw2yXpkFUbdFjexixKsRwoDQRX2/ty5zeeDz/QU8t24WgW59nG8e5OJtsuSGV1eds+lF/TAZ4zpjsHFts3WiVAsfpx1+TU9n2L+Eaz1nxh6zSek+MPWdE3rP+EOlqvT2/JUKrZL4jbbGmO4Qv7BDFFnVwueQcEHG22DQ7BhpftXd8D4zZ9jCusgbDvVH4TAs51eW0oJcIO2XUlUwWY522pEMrWouy75VUAB6W1XI16AK6ekuLiYGiLXQLz+u88Hnjrip5DtwrFz7LdzosHqKCHM1/wDtGv8A9ogi/hi+QtVKGRhIhV6sDX+R701/+0a//aOGB09qRLemCzowZ+nU5Bsg9D2rDly7xOw7Vhy5d4v+AucnQ7zVXHET2JMMDr701/8AtGv/ANojX+B7U6mj0CtUHngVKABPyxr/APaNf/tHIKmgD/ki9l0bRqV4HwGziO/sCusg79xL09S5iweHhiEZejzAIFX9zCgCcowyIEV0yxH26cn16oWU8fbuBl19E0l/lv13ng88GuO/lm3DNNBbHUICWzVP0ZmHgX0bVTUlA5W+AN+xh45jSCvLC9HAKiBDXU7CigG40zhAZnTOEZHtnUBCIHceiwFIK8PFmAN+zlhqXa51aFlT2wp+jMznUAuAYktHVo8L4LZx1v7BrrLs6XuYMTv50ZrnArpoGx4DRb3N6Dji1s+emfXeeDzxVxo8C24QZSzW0rQJQahaLjO/emxxGIqbcFKCXRgCaDkdOI799yHWAiRovgEpJ3JRbVo7qWVQKLGzy3VeJrQCxs8t1Xicisdr2d1DAhNkbaABCbkOnEd+9AyOsFzP81I8BlInIktq5pnFzv3vIC+aS+YYEmoUcD4rZxFf++nWVAV0JrjhT3HRdgl5XgoEQ8WvpOgOZ8xoC7psOW5Y+Q4dq7kDINkNV10hNO88XcRz9Xjd9I8Py8DweeKu5xjw7bhNOHX6oIbHV4J6n0QYMG/z5J5phsCV1JwVOuDWevFBgtSK9GcNLs31UKayujNCAILFGJgQos2ZmBJmAcCboQ5ruJTjUCvQ4+DBFTjl1vpByJVzODZtIVpan0QYMHINTJPQlO77duAPgNvEV9z/AHzjNhOOmmhTCDlL26qIonW9TfWhV6JboUNIASXbVOj0xSbindWE1qAroDKzeEycaxK67Ih+6WIb6bw/LwPB5467nGPL9uFaWBzElZq9o42GFoiEtex5mIFhXmN0Xd+Iwxjy6wLdv1V0IRnsgEp9bGbi1Mr8gtV87DVBiIV5Dar52mqHZBklvrYzcY3+03V0Yz5deIYYqirtC1Fk1W+H1VZogwcUYYq5WyT0EiQvAPiNvEd9z7BOM4naU6WQeXlUnOopRAwPQY530fhh80yl4/PrdetQBmQppK/hOddb0IwbJtF2frfPN54673GPI9uEfG92AdCkmk/fW1fFJkplSOs4iABTBdKIANZNWvRilOGUL1eKTJxsiKo0w8EFe20W6RYO/wCmFJdrX42Eulr8bCXk6eNMIKgUOgtskzsibs28UmSBRhlA9GHki+3RfpGxRUyoreyBhGOnHyZOs/fS1UASyWN6AcD4LbxHfe+wSjN6/Bq6K1UyH1w9ER0jqy6mkNZJ2wrwYWzw7r4Q6w4M95dzvdxQQNiJrMUreSeFK5n63zzeeKu7xjy/bhGtYuQsmo7Jb6BmC61ZFw1Lvn26zK8/SLyHjmaiB3jTdZYWKWjiHZFP1sYqCrQ3ay11z00RVaurSWuuemiKIi70/XDFR/Y4yq6s26zQQO3HMrP2C8Alt/7d78RuLLfqr6A5gbddiQCvquYnCPqn88RX3fssoyObjeVUD0IAwAfV4/l4Hm88VcUHgW3AtEshsZraVhNquwfTi79wjU/eGeQhdRlLxrcFcyTM9xxnfveDoCS1zyqrpYZ1bAIF0IHB1V5mBNPRfiYHugQondDCxgGF8FtZeHoHjO/czHYSYuZFAvNuIqhC8ipSF8f9+94VtV0B6xaf1V2bxPA+ofzxFf2xDvPj+Xgebzx1xweHbcC+hRU6IRj2fb+gMY213totlUZIjkzXN/W5cQx7oDNTqFWBaRVjjWGp4BQeQYoGlNe7DovMVDWmvdh0XmOELCPKbByLLKDWrKLjN0Bi+MY9/WYRbkLK5bcvTQLTVK+gYxoe/wCnFrimOhwj6j/PEd/bsK8vnn88dSDkG1pbEuaXHz3drFJkmU8k24GehtUl0XEsjfCv/k+PR8eig16OMVZcqihUIs9Ahj0gk+PR8eh1HOdWHTAwwgmGpWthFrZRRC8dWZQB56sys72It6bP/hMvTraaHLUNRznUnx6Pj0OPWCyp9RLwWjUFivETF2ygX6OPj0fHouwN8K/+Q1NARwR9V/iUR2W4wrguEc0/tOQ33qO/t0BeVzz+eI7kK/jETsdUiWQ/XLZmoOFXuNHC3ENRgzs2btpV/p9A888qYhmX1FxdhF7YrwBxPPCHqUGF8ABGXfO9OogVebeuvnFr829dfOKlVOus0YKgwUa0SHoXE88e2K8oQR3Rgd4MVRk/oPPP2ZAr/SMwDgpHK4Wu5F+Sbqg06aZZBJzoERPchX8Z+3D87nn88/TiDxxuQ8khZr98MNXNcYhaTb32czw/tPGyxVQsHcd3V70i16gmWLsQb7Tissb5XKhuHpo1+TU5Hnmi/hGT6PVCGD6PVCHK001X8ISNV6e/5ahXL5fE2WVYA12sKeZ1Xih9ilm9ZCqE4llmU21qicHbO74Hx2yFu9HpJqZqV51a0B5hD9P7ciU7nn88VdiOa82DYibiZGKoFWKbS7HjKnayDvW68mXoqCf941ixAoVAB0JfqKuxg6q8sLZ4VvxrFi4B6fxSm90ZEeVABwKDmGyCoNasOfKucRCK1Yc+Vc4l8AEc3QgNouxF5dCLgHr/AFcaxYtnhW0gm947VlQA6BUoADiVYsx9GoD/AMlX35FLbVwD4bZLOjfmm1qhmR92q15icrFfY+zIlKh9Xm+Xgefzx12OIeU7cLKbIjajLBPyT+Az4DPgMEyopyp2Llb4UpKofAZ8BjiEvWehyU2MEwptroKf+paOLr2RUjm69EWEtmugL/xLYT8m4jEJes/AZ8BjSkLh1WIyrQTqy6VU+Az4DPgM2WfJ5qZG6tPgfGbOI77H2AGJGrjrWanWkYZqB7gqEBgdfXI3Nw02xktvHHORa89JLIZoOnskAitLp0s3zIyGxyfXuefzx8YPIduEWYsYYrQJS5zTjPBg0mMtw804yTa6B3QqCaLQenHwYOoDqns4GLEUKE3cmyxWjF3SzSgFuHZd1eJrQC3Dsu6vExcH2Q04u6GDK5RFoAEJoA6OPgwaJYes916uejwGXAbLjadZpHFmDBuMFtNOUZtizUKOB8Rs4j+wQMSK45eyBNnV1hSMQF1r81TLcUIsLo1YX0gKKxt8brAB4KjqG8hFItK0RhVCCidEYOn9c54/PFXGDwzbhPcHVbIpe3F3w+hZZZWDsJRPqEilpkfWnBeuNljENekQ6tELaoyWdyWaiAIcaLKwIU52WXgYJiGQTdioZyoU4xDXpxbLD1pyzuFaBgrlx++ikiqz6LLLN8+jlFfExC1wB8Fs4iv7BA5KOWgA66v1pHLjEVBtDjjdYHk9YUNNg487lFbuUaiyHOxKe02amtMTjvCVsumVbqfXGePzxcWPAtuF17wgkLh4zMIJCYXuL8HhDUJDr87ihCjd9B+HDxQ0IRpZZOGr53qiWvsYC9XzsIC19DIXq+dpGt5k4avneojALjcsLoxRu+4kIB1+NGHipVIrNxqDAQ46EKiSonpe9heCfFbOIv8Aew5K205dBcJ2Pf3z0SEu6gTBF0KSoDhZzE8ZqDB6+Ul6ZTYbcZkAXjUI9aiDZcVCvN2Y1JON+aVfWGePzxa48eHbcJBIRNN0KjC93G1OaBaU1lQAkp0qBNSqnWaHcG1PFOd6woSjTLUqG9EvCi1M0YUmX1xRjMPrijGWrxMNGEHKhMYtsy9YUrZt4zmA5g2ohqDG2aXjmIUFwVvcELG45zyvdLTbHYqtbHAfAbeIN/7+HJQREsmBsBDKMXJpMFY7uqNZkWmYABUaFTJdF84sgF1Q1mZcy2tfWGePzR+vxjyPbhYeUchZZIuNvWWfQKLyszkOKpZk8XWY6fxFhHEUUUc7uUnPeiwKatMcgTlXe8MVBvAaSN7rW9NEWdFpIXutb00Q5gscu73hiotvQZ5VZt1iI43YpxFF1/gLAJdv6Xe/FxpFKWz6JyKLnq4WdZbDSVPMTgHxW3iP1/sEPS3tupKY1F1yn4+fHBecf8Ug5IWJ85InVBKUVmxqrtHLIUhW9USum27S2hVoQMqBBLLPrDPH5oq7vGPK9uEZp2AOMlllBTertHtU/AY+AwIWMquGgXkIwk+xtCrWCs9xL8Bj4DF0OkJU8KSulovYzAA5CtSg9N5DsauWHrvAdjVzGjIEToq1HtNCkb4LSy6PSMvwGPgMFY7CUYlZWXYbGqoUtaAQoGM+Ax8Bi4L2q6Q73N91FzW3BwPgtvEV937BDUj4IY6UeUaHRI5Jl3KzsHTqETETaWOoHvzgGyUolLJxzcuqORFIYGJVLqdY755JToNB9YZ4/NF6nEPB9uFqQq7IRq7AW/Qkkkexf3GYp9ITUz3N125K+MkndhVBYHPggqy/klU7oUHkGZSYuu9j0XMpM3Xex6LleoxDuzYORYn9zmIuM7MK+JJJuuzBXE1i2o242xwXNUrP0SSSFdG8pj9T6hwD6h/PEXqfbgqlM8fmjrvcQ8C24GfHjUk0XEs1faDUeST5JNNovSKYk4ZS+8ba5ohCnpgR5JPkkto51COT5mRTDUCYasq2UREvwFlnsoU+Qss9lEuMzV6sBLLDrkVOWFo50CPJJ8klp64EEUimZiFvmSRpdsplt6R5JPkk2YK+0goxQRwR9U/niO+99uCqWzx+aOQIudUom3DA1O5PDNuBZ/Us7viEY6lf6fQnnnJlfDqAENsA6CJ01XQBxnnMGB3eDISRC3SAEfmoW94DVyJ7Pyit3Ins/KBVKsOzR7xI0NoVuRTHBkdj4zzh11XShAlGvCv0gF1H9Mx9E886GOhX+kXr+tJVvDgfUf5m3TB1exGLnRLI/t0CqWzxuaKoDKJ8YKgqa1FBxDvQgKLHkG3AA9P3GGanxjiZjIzel7bSrCwUYut7UupIrNR4mbWyiUErgFiqpTUas9IlVP0rSdM7Rr/BznTO0a/wc4OgwQl1+2FaxSKD3qa+6oXsItjxM6qSijVYKKLM11axZS1oWKwYDjmehk6zF4/7HNwPqn8QneAjrWsWSL8LbailLpcV/bgF09nn80tBtDpCA6cunJ1LuoLTJyq4LXwZDrps0aMnUZtBQAp/zApXQAHdcIVhxr6RwE3Nobp4MduwAl2EHsSrG4CXZMaeiD0n5VEIVN24QhU3ThAbTmkI/CVHBkr2JVDRt2AAO64YpFtkYa0jT0gx8EIpXQCXYSgoAW/5g1CboRb9UOFl36Vqk7A3shl05bktBtLpH7cd09nn80ddiAyRU1SG3DKQWSDpSDm5fRKgq7apmYVbr8yNAoPpC0uWHpEYutRBcqdOY4KVOudp2mhFDjRhpYE28J0Sws7yGES7AiHMqcidAWBKwXNU1RH1rG99VVXkWS92ezoL0zac07roTV2zuupNHTL2XjOwvXNhzQ9exrfRddYNErBc9TXEeZV5E6ItGUt/IZRLuAOE6JZQ40YaWBFMUNKzXK17XRguVOnMbResvYJxdaKX6v8ApJFA9IKu2qYq4h8dsgSpWjXsPJwg5z1dUhnRR32PsJ3S6ABauwS4+WrfMMseggOvFxfrMhU6UWK/X53l4Hn80VdvgAhRgnmm3GIzL2qukB+OOdaFwCykWOAJ0b3N6wm1SMwUdPd0Vswt3U9/RRtFhYQc9YqCDSOOg34LuE+hlZxSqKhFm/7KyJK62StSx3QIaiftSUhNrlucNAcsWW9wwB4ZsSGCPpSBQaVGV1MlS1juIAbn228ibiGVhELsusww6Sx0G/JdygE5axuKd1Pf1WbZIZiq6+6ojRhtWEW6QnKwY5Ajk3uB+OCc2KgBiXtFcOIfMbIlEcnAr7f2E7NIC1IhqaF7yDceF30dckiDYztF5aFzk/4Qj6187y8DzuaKuLHgW3GV2Tmmk6iaMUMEhE6QJKlYV+k0+ARNEYFe9+H6BOler5DKwFAaAQej0Kp9XHaF4Mx1iseaM2vVXVmtt6P4jCd6zl3QbHO6DY4Qjek5a/3q/iVmzTmk6iaMdsTgTHSBqPQqn0MZWAQOiMvaV6PkWHnfn+in4ABoBFBUrCv1cUcGhE6xVZNFtr1V1eI+I28RX9ibs1NL7ezaxXEqWNUNlR0Y9GRhwwlJaIuX1+V5eB5nNGjcY8j24yq3SNb5mtpZsd4Fg/G7q/zg5tcJnLQjNY4vXb0YrbGT7Q1YerVWMNb7R2o9wxaqM6FrnKYMreopQ3L2mgz7r1ueoabwKeSgOM3n4ojjNx+aO28C3kpqI+463LcNrWora3a2jocY5SGDYD3BNqoPVhRnLSu8yvGT7w0Zm8cXntNWDNvpcYakP43dV+UXbHeBYqt0jSuYvbiPgtvELN9sujfK8vA8zmiruQWjQIpbAghOqNDozwbbjKy17sP8iYbGK7VnQ92CqCupwp0EaYP9RTUGUXo5rcGxQEaFDir6ECiajNo+dVXAWQc++mYpJk0t42g6gmIhl1r1jWucdmJ6DDEsIA0wiAnXPqrUDpj1VKGpYwgcwqBqXOOjF9QmIhl1r1JabYhbQoHqCBsk5d9MRi0cOi6jcY8VbQo2RUDKb1c1qBTtGaZP9BRcBQTdTpToYw2MV3rGw7M55d2H+TxH1D+Y7TivMGrEq0DPIgxX3Pth0b4Xl4Hmc0q78MxZ9gIzLYpE0dxtsWy1BU8E24gr4r3dE8mEWsKzNkYIn6V6mQc/jMb5YNdCkWLPqARfWxMycTLKz374dwabq9bCZQVQQEBxjeko2RQsbJsJSt1Dh7F5EWQ/nQlIxRqPsmWkQjI1DYutNlhAUuFCaU3SKNx5TcrCZSB/MgKBlK3SOHu3ky3JVCRsigiOKKoAIR5zrSPcGkavSxaHJmGVjv3xIsn5IKvpZhXLDqtazedccTAOPxhNrStzZOCUOK9otg8jiPqP8xMrCS9mwRY3mZ2GCEFV0xaXd/id1faW+F5eB5nNHxiuy45IyDcGYNgWsePoQsdFElxxXq6ONVWxPY8EE0ZnO8vj5wt7jSgMnks0WGfDyHhqZ5Bo95pvaM72pfIk6Egdb+mzAdtxz0qDy9ag8tO+4Zp/61sxfJkaAmu9pzvLjvmGj24a6LDHh5LMaEHE8h46+cJAaMRne1LE9nQcVVXUhft8qP39tFutCykjqwg2BYx8YLsueTi7q+0t8Dy8DzOaKuzCkt8eL1nViozWDiTsr9FqboFYi7OGTi0t52juxYidYIGXVrLsx1BXcq40z6CU4K9EylGFwqKyFYwKp6ipdi5Zp2+vqVhh8OV5Jaisias+PgsIb2GnhQFqEDJkbICq2jVVD9V8xL1X8xKSZGwAgtgXdQb2EjlUFLUa8+PksI4fDlOaWkvJghZg2+vq1nMVTCtcmEogOVRUVJCudMugGMkOqXpvqCu7xRifZIOXUrrMsnFrbw9zszdAjEVeMfHbJbA1C834LxCflPR0jRhX2eJnX/ubrcpdiIZAxD+EFubOdG6QX0GyXrBGqqw45fWPA8vA8zmjrt8Q8k24zoZAAUHHBg+rM6uSSDy4YDQHpgZtWJVVYHakktckFBDITWotmhUsoHY7XFqqyutGK4Cw5glsP06y6PALWCupxS1ytgHBgRdCE4Sok2pmE/8AjMgJyT+4kVAXRpJSQEO1EbZWwTlwK0kLt0TbB9OsqrwW1sxTICHIMGK7VFLqSgrrUW3QIUEEmkRLXMSygWmrAqq8IXVw2i0PTDBgerM7uDpnQqIAgjiPitnEd9viZ1/7mhzYJ1SUfEEyIy+UdeMwc/meRqpyT6QlUz6/A8vA8TmipOMeBbcZWVo1iS8nPK4ajzqzJo/MXWMvvXcuhwAu9Z94m+PKMHCENQBP/hUSWCfPqPSNg1Bu813ZsHodnmOzEPl1HpHNod/JY+IQ1iMDfXtmETdDPtwavLdy6kyaPzF0ipwiPO8nPCmkvRqAOI+A28RWnGzr/wB7xwo3jice6LVBDrApCxGXXPS/V9fgeXgeJzS6bjHke3GYzOZtOmLMBJpY+al6TN1fWhq7LN2EGuhI1xAaFiym41vsUtNt8xUIHV6yY2cijUBlPQg87ddax6sQ6XlUgXKjnNLFA/r62pOMEoNxAAfZLCc0An3Sgf09bQnOGJcqOcksHVqHac6sD0onG3Tekws5NGoDOKhAavSTU+xS02Vxrjo0LFttQTFhJqtZMSB9aGqs4CXah81q1mM7maTpicR8Ft4l23Gzr+0v8zy8DxOaOu7AgYA8NF6ugBFuBRRdVaJ4FtxAqIp1a5uCSct4PLeUKXm0BtYG5f6SmoK1Jck8lUrIzAgQjXUoUXIDbAt/I/C5Xzu9bXlGs5xI1enk3ptAbVQ7bg3SFnb+CNY0QMxXix6xtjQTrl1hbGhDXDpCuaIBUVcsek3DukbOz8MDtXDtpKdStprYMp53asvwganZP5VAkUjXUpVTKJTBWpJkvgotuHMG4f6ii4wpebwA3gXuLokOGsnltBccVOPqH8xboMQpq0w8AB5VV6mojHfd4mdX2l/meXgeJzRV3YW+MWKWlJpFuCmVuKQOU8E24gIBoe0HnVYjv2gd6LRKyALUa3d4hzqIOjRJl5aX5QIFlZj3tgILG41za33lfaTy9u7zcs+dAZegXG0tF1S8rtqK2ZHvuppHFaRCE6oqSvgNIr/1w8CEIv8A9cd1pUJToqhMq5DvurrG1Ki6oPOqalnzgDD1Kpf3gsvbu8VBY1COTSu0Xj4j3tkJlxaX5QIONZR1a3K6GZU63d5h/wBqHeiWRgDoO0vle3EfUf4j0oGXuqAect1K1lLRZ1ivu8TOr7W/M6nXJr5a1EQbr5SlPFttAExmTd/vbbbbbbbbbbbbbbbbbbbbbbbbbbbbbb/YLOV1xbbBBqvlaUQFWgU5Om+Gr7X/ADPE5vtMdX2n9wVpKAnw33hs7V4rtPDfeeG+88N954b7zw33nhvvPDfeeG+88N954b7zw33nhvvPDfeeG+88N954b7zw33nhvvPDfeeG+88N954b7zw33nhvvPDfeeG+88N954b7zw33nhvvPDfeeG+88N954b7zw33nhvvPDfeeG+8SSvK4i58N94r21iGPtO9ctQs+13fXXXXXXXXXXXXXXXXXXXXXXXXXXXXXXXXXXXXXXfXJgS2hfx//ADL/AP/Z;clipPath=inset(4.67% 24.19% 2.67% 24.19%);" parent="1" vertex="1">
          <mxGeometry x="703.8199999999999" y="1814.26" width="72.368345323741" height="251.48" as="geometry" />
        </mxCell>
        <mxCell id="nLhs3VdEfNRNzpU9Hnr--13" value="Estrutura de um servidor" style="text;html=1;align=center;verticalAlign=middle;resizable=0;points=[];autosize=1;strokeColor=none;fillColor=none;fontFamily=Times New Roman;fontStyle=2" parent="1" vertex="1">
          <mxGeometry x="670" y="1772.55" width="140" height="30" as="geometry" />
        </mxCell>
        <mxCell id="nLhs3VdEfNRNzpU9Hnr--14" value="Firewall" style="text;html=1;align=center;verticalAlign=middle;resizable=0;points=[];autosize=1;fontSize=6;fontColor=#ffffff;labelBackgroundColor=none;fontStyle=2;fontFamily=Times New Roman;" parent="1" vertex="1">
          <mxGeometry x="650" y="1815" width="40" height="20" as="geometry" />
        </mxCell>
        <mxCell id="nLhs3VdEfNRNzpU9Hnr--18" value="" style="endArrow=none;html=1;rounded=0;entryX=-0.004;entryY=0.803;entryDx=0;entryDy=0;entryPerimeter=0;exitX=0.996;exitY=0.809;exitDx=0;exitDy=0;exitPerimeter=0;strokeWidth=6;strokeColor=#999999;" parent="1" edge="1">
          <mxGeometry width="50" height="50" relative="1" as="geometry">
            <mxPoint x="520.7100000000002" y="193.93000000000006" as="sourcePoint" />
            <mxPoint x="60.70999999999997" y="192.07000000000005" as="targetPoint" />
          </mxGeometry>
        </mxCell>
        <mxCell id="nLhs3VdEfNRNzpU9Hnr--20" value="" style="html=1;shadow=0;dashed=0;align=center;verticalAlign=middle;shape=mxgraph.arrows2.arrow;dy=0.6;dx=40;direction=north;notch=0;fillColor=#e51400;fontColor=#ffffff;strokeColor=#B20000;" parent="1" vertex="1">
          <mxGeometry x="130.71" y="205" width="20" height="15" as="geometry" />
        </mxCell>
        <mxCell id="nLhs3VdEfNRNzpU9Hnr--21" value="" style="html=1;shadow=0;dashed=0;align=center;verticalAlign=middle;shape=mxgraph.arrows2.arrow;dy=0.6;dx=40;direction=north;notch=0;fillColor=#e51400;fontColor=#ffffff;strokeColor=#B20000;" parent="1" vertex="1">
          <mxGeometry x="280.71000000000004" y="205" width="20" height="15" as="geometry" />
        </mxCell>
        <mxCell id="nLhs3VdEfNRNzpU9Hnr--22" value="" style="html=1;shadow=0;dashed=0;align=center;verticalAlign=middle;shape=mxgraph.arrows2.arrow;dy=0.6;dx=40;direction=north;notch=0;fillColor=#e51400;fontColor=#ffffff;strokeColor=#B20000;" parent="1" vertex="1">
          <mxGeometry x="433.71000000000004" y="205" width="20" height="15" as="geometry" />
        </mxCell>
        <mxCell id="nLhs3VdEfNRNzpU9Hnr--23" value="" style="shape=process;whiteSpace=wrap;html=1;backgroundOutline=1;fillColor=#CCCCCC;fontColor=#ffffff;strokeColor=#314354;strokeWidth=2;" parent="1" vertex="1">
          <mxGeometry x="115.71000000000001" y="111.24" width="350" height="45" as="geometry" />
        </mxCell>
        <mxCell id="nLhs3VdEfNRNzpU9Hnr--26" value="" style="shape=singleArrow;direction=south;whiteSpace=wrap;html=1;rotation=20;fillColor=#b1ddf0;strokeColor=#10739e;" parent="1" vertex="1">
          <mxGeometry x="70.30000000000001" y="205" width="19.7" height="31.71" as="geometry" />
        </mxCell>
        <mxCell id="nLhs3VdEfNRNzpU9Hnr--27" value="" style="shape=singleArrow;direction=south;whiteSpace=wrap;html=1;rotation=-30;flipV=0;flipH=1;fillColor=#b1ddf0;strokeColor=#10739e;" parent="1" vertex="1">
          <mxGeometry x="493.71" y="205" width="19.7" height="31.71" as="geometry" />
        </mxCell>
        <mxCell id="nLhs3VdEfNRNzpU9Hnr--29" value="" style="shape=singleArrow;direction=south;whiteSpace=wrap;html=1;rotation=0;flipV=0;flipH=1;fillColor=#b1ddf0;strokeColor=#10739e;" parent="1" vertex="1">
          <mxGeometry x="355" y="205" width="19.7" height="31.71" as="geometry" />
        </mxCell>
        <mxCell id="nLhs3VdEfNRNzpU9Hnr--30" value="" style="shape=singleArrow;direction=south;whiteSpace=wrap;html=1;rotation=0;flipV=0;flipH=1;fillColor=#b1ddf0;strokeColor=#10739e;" parent="1" vertex="1">
          <mxGeometry x="205" y="205" width="19.7" height="31.71" as="geometry" />
        </mxCell>
        <mxCell id="nLhs3VdEfNRNzpU9Hnr--31" value="" style="verticalLabelPosition=bottom;outlineConnect=0;align=center;dashed=0;html=1;verticalAlign=top;shape=mxgraph.pid.misc.fan;fillColor=#999999;" parent="1" vertex="1">
          <mxGeometry x="364.71" y="115.6" width="36" height="34.5" as="geometry" />
        </mxCell>
        <mxCell id="nLhs3VdEfNRNzpU9Hnr--32" value="" style="whiteSpace=wrap;html=1;aspect=fixed;fillColor=#999999;" parent="1" vertex="1">
          <mxGeometry x="270.34999999999997" y="113.38999999999999" width="40.71" height="40.71" as="geometry" />
        </mxCell>
        <mxCell id="nLhs3VdEfNRNzpU9Hnr--34" value="" style="verticalLabelPosition=bottom;verticalAlign=top;html=1;shape=mxgraph.basic.rect;fillColor2=none;strokeWidth=1;size=20;indent=5;fillColor=#999999;" parent="1" vertex="1">
          <mxGeometry x="250" y="98.24" width="80" height="13" as="geometry" />
        </mxCell>
        <mxCell id="nLhs3VdEfNRNzpU9Hnr--35" value="" style="verticalLabelPosition=bottom;verticalAlign=top;html=1;shape=mxgraph.basic.patternFillRect;fillStyle=diag;step=5;fillStrokeWidth=0.2;fillStrokeColor=#dddddd;fillColor=#0050ef;strokeColor=#001DBC;fontColor=#ffffff;" parent="1" vertex="1">
          <mxGeometry x="211.41999999999996" y="157" width="158.58" height="15" as="geometry" />
        </mxCell>
        <mxCell id="nLhs3VdEfNRNzpU9Hnr--36" value="" style="verticalLabelPosition=bottom;verticalAlign=top;html=1;shape=mxgraph.basic.rect;fillColor2=none;strokeWidth=1;size=20;indent=5;fillColor=#999999;" parent="1" vertex="1">
          <mxGeometry x="190.70999999999998" y="111.6" width="10" height="42.5" as="geometry" />
        </mxCell>
        <mxCell id="nLhs3VdEfNRNzpU9Hnr--38" value="" style="shape=singleArrow;direction=south;whiteSpace=wrap;html=1;rotation=138;flipV=0;flipH=1;fillColor=#e51400;strokeColor=#B20000;fontColor=#ffffff;" parent="1" vertex="1">
          <mxGeometry x="440" y="118.75" width="13.71" height="36.24" as="geometry" />
        </mxCell>
        <mxCell id="nLhs3VdEfNRNzpU9Hnr--39" value="" style="verticalLabelPosition=bottom;verticalAlign=top;html=1;shape=mxgraph.basic.rect;fillColor2=none;strokeWidth=1;size=20;indent=5;fillColor=#999999;" parent="1" vertex="1">
          <mxGeometry x="420" y="112.49" width="4" height="42.5" as="geometry" />
        </mxCell>
        <mxCell id="nLhs3VdEfNRNzpU9Hnr--43" value="" style="shape=singleArrow;direction=west;whiteSpace=wrap;html=1;rotation=138;flipV=0;flipH=1;fillColor=#b1ddf0;strokeColor=#10739e;" parent="1" vertex="1">
          <mxGeometry x="115.705" y="130.01500000000001" width="36.24" height="13.71" as="geometry" />
        </mxCell>
        <mxCell id="nLhs3VdEfNRNzpU9Hnr--44" value="" style="html=1;shadow=0;dashed=0;align=center;verticalAlign=middle;shape=mxgraph.arrows2.arrow;dy=0.6;dx=40;direction=north;notch=0;fillColor=#e51400;fontColor=#ffffff;strokeColor=#B20000;" parent="1" vertex="1">
          <mxGeometry x="286.06" y="80" width="9.29" height="10" as="geometry" />
        </mxCell>
        <mxCell id="nLhs3VdEfNRNzpU9Hnr--46" value="&lt;div style=&quot;font-size: 15px;&quot;&gt;O processo de resfriamento de um datacenter é essencial para manter o&amp;nbsp;&lt;/div&gt;&lt;div style=&quot;font-size: 15px;&quot;&gt;funcionamento seguro e eficiente dos servidores e equipamentos, que geram muito calor.&lt;/div&gt;&lt;div style=&quot;font-size: 15px;&quot;&gt;O método mais comum é o uso de ar condicionado especializado&lt;/div&gt;&lt;div style=&quot;font-size: 15px;&quot;&gt;(chamado de CRAC, ou Computer Room Air Conditioner),&amp;nbsp;&lt;span style=&quot;background-color: initial;&quot;&gt;que capta o ar quente gerado pelos servidores,&lt;/span&gt;&lt;/div&gt;&lt;div style=&quot;font-size: 15px;&quot;&gt;&lt;span style=&quot;background-color: initial;&quot;&gt;&amp;nbsp;resfria e o devolve ao ambiente.&lt;/span&gt;&lt;/div&gt;&lt;div style=&quot;font-size: 15px;&quot;&gt;&lt;span style=&quot;background-color: initial;&quot;&gt;Esse ar frio circula pelos corredores onde os equipamentos estão instalados, resfriando os componentes.&lt;/span&gt;&lt;/div&gt;&lt;p style=&quot;font-size: 15px;&quot;&gt;&lt;br style=&quot;font-size: 15px;&quot;&gt;&lt;/p&gt;" style="text;align=left;verticalAlign=middle;resizable=0;points=[];autosize=1;strokeColor=none;fillColor=none;fontFamily=Times New Roman;html=1;fontStyle=2;spacingTop=1;spacing=2;fontSize=15;" parent="1" vertex="1">
          <mxGeometry x="560" y="80.00000000000001" width="660" height="170" as="geometry" />
        </mxCell>
        <mxCell id="nLhs3VdEfNRNzpU9Hnr--47" value="" style="html=1;shadow=0;dashed=0;align=center;verticalAlign=middle;shape=mxgraph.arrows2.arrow;dy=0.6;dx=40;direction=north;notch=0;fillColor=#e51400;fontColor=#ffffff;strokeColor=#B20000;rotation=-90;" parent="1" vertex="1">
          <mxGeometry x="320" y="127.85" width="9.29" height="10" as="geometry" />
        </mxCell>
        <mxCell id="nLhs3VdEfNRNzpU9Hnr--49" value="" style="html=1;shadow=0;dashed=0;align=center;verticalAlign=middle;shape=mxgraph.arrows2.arrow;dy=0.6;dx=40;direction=north;notch=0;fillColor=#e51400;fontColor=#ffffff;strokeColor=#B20000;rotation=-90;" parent="1" vertex="1">
          <mxGeometry x="340.71" y="137.85" width="9.29" height="10" as="geometry" />
        </mxCell>
        <mxCell id="nLhs3VdEfNRNzpU9Hnr--50" value="" style="html=1;shadow=0;dashed=0;align=center;verticalAlign=middle;shape=mxgraph.arrows2.arrow;dy=0.6;dx=40;direction=north;notch=0;fillColor=#e51400;fontColor=#ffffff;strokeColor=#B20000;rotation=-90;" parent="1" vertex="1">
          <mxGeometry x="340.71" y="120.00999999999999" width="9.29" height="10" as="geometry" />
        </mxCell>
        <mxCell id="nLhs3VdEfNRNzpU9Hnr--51" value="" style="shape=singleArrow;direction=south;whiteSpace=wrap;html=1;rotation=90;flipV=0;flipH=1;fillColor=#6a00ff;strokeColor=#3700CC;fontColor=#ffffff;" parent="1" vertex="1">
          <mxGeometry x="226.29" y="117.86" width="13.71" height="36.24" as="geometry" />
        </mxCell>
        <mxCell id="nLhs3VdEfNRNzpU9Hnr--53" value="" style="html=1;shadow=0;dashed=0;align=center;verticalAlign=middle;shape=mxgraph.arrows2.arrow;dy=0.6;dx=40;direction=north;notch=0;fillColor=#0050ef;fontColor=#ffffff;strokeColor=#001DBC;rotation=-180;" parent="1" vertex="1">
          <mxGeometry x="255.71" y="118.74999999999999" width="9.29" height="10" as="geometry" />
        </mxCell>
        <mxCell id="_eStgFOM0S1kTOzYDItb-1" value="" style="rounded=1;whiteSpace=wrap;html=1;fillColor=#333333;strokeColor=#666666;gradientColor=#333333;gradientDirection=radial;" vertex="1" parent="1">
          <mxGeometry x="60.000000000000014" y="585" width="470" height="410" as="geometry" />
        </mxCell>
        <mxCell id="_eStgFOM0S1kTOzYDItb-2" value="Sistema de energia&amp;nbsp;&lt;span style=&quot;background-color: initial;&quot;&gt;de um datacenter&lt;/span&gt;" style="text;html=1;align=center;verticalAlign=middle;resizable=0;points=[];autosize=1;strokeColor=none;fillColor=none;fontFamily=Times New Roman;fontStyle=2;fontSize=20;" vertex="1" parent="1">
          <mxGeometry x="130.00000000000003" y="545" width="320" height="40" as="geometry" />
        </mxCell>
        <mxCell id="_eStgFOM0S1kTOzYDItb-4" value="" style="triangle;whiteSpace=wrap;html=1;direction=north;fillColor=#f5f5f5;fontColor=#333333;strokeColor=#666666;" vertex="1" parent="1">
          <mxGeometry x="95.71000000000001" y="882.5" width="24.5" height="85" as="geometry" />
        </mxCell>
        <mxCell id="_eStgFOM0S1kTOzYDItb-5" value="" style="triangle;whiteSpace=wrap;html=1;direction=south;fillColor=#f5f5f5;fontColor=#333333;strokeColor=#666666;" vertex="1" parent="1">
          <mxGeometry x="85.21000000000001" y="912.5" width="47.25" height="12.5" as="geometry" />
        </mxCell>
        <mxCell id="_eStgFOM0S1kTOzYDItb-6" value="" style="triangle;whiteSpace=wrap;html=1;direction=south;fillColor=#f5f5f5;fontColor=#333333;strokeColor=#666666;" vertex="1" parent="1">
          <mxGeometry x="72.96000000000001" y="935" width="70" height="20" as="geometry" />
        </mxCell>
        <mxCell id="_eStgFOM0S1kTOzYDItb-11" value="" style="triangle;whiteSpace=wrap;html=1;direction=north;fillColor=#f5f5f5;fontColor=#333333;strokeColor=#666666;" vertex="1" parent="1">
          <mxGeometry x="154.33" y="830" width="24.5" height="85" as="geometry" />
        </mxCell>
        <mxCell id="_eStgFOM0S1kTOzYDItb-12" value="" style="triangle;whiteSpace=wrap;html=1;direction=south;fillColor=#f5f5f5;fontColor=#333333;strokeColor=#666666;" vertex="1" parent="1">
          <mxGeometry x="142.96" y="860" width="47.25" height="12.5" as="geometry" />
        </mxCell>
        <mxCell id="_eStgFOM0S1kTOzYDItb-13" value="" style="triangle;whiteSpace=wrap;html=1;direction=south;fillColor=#f5f5f5;fontColor=#333333;strokeColor=#666666;" vertex="1" parent="1">
          <mxGeometry x="130.71" y="882.5" width="70" height="20" as="geometry" />
        </mxCell>
        <mxCell id="_eStgFOM0S1kTOzYDItb-14" value="" style="whiteSpace=wrap;html=1;aspect=fixed;fillColor=#B3B3B3;strokeColor=#36393d;" vertex="1" parent="1">
          <mxGeometry x="102.96" y="760" width="40" height="40" as="geometry" />
        </mxCell>
        <mxCell id="_eStgFOM0S1kTOzYDItb-30" style="edgeStyle=orthogonalEdgeStyle;rounded=0;orthogonalLoop=1;jettySize=auto;html=1;exitX=1;exitY=0.5;exitDx=0;exitDy=0;exitPerimeter=0;entryX=0.5;entryY=1;entryDx=0;entryDy=0;strokeWidth=6;fillColor=#fff2cc;strokeColor=#d6b656;endArrow=none;endFill=0;" edge="1" parent="1" source="_eStgFOM0S1kTOzYDItb-15" target="_eStgFOM0S1kTOzYDItb-23">
          <mxGeometry relative="1" as="geometry" />
        </mxCell>
        <mxCell id="_eStgFOM0S1kTOzYDItb-15" value="" style="html=1;shape=mxgraph.basic.isocube;isoAngle=15;fillColor=#B3B3B3;strokeColor=#36393d;" vertex="1" parent="1">
          <mxGeometry x="190.20999999999998" y="712.55" width="30" height="30" as="geometry" />
        </mxCell>
        <mxCell id="_eStgFOM0S1kTOzYDItb-19" style="edgeStyle=orthogonalEdgeStyle;rounded=0;orthogonalLoop=1;jettySize=auto;html=1;entryX=0.5;entryY=1;entryDx=0;entryDy=0;strokeWidth=3;endArrow=none;endFill=0;fillColor=#fff2cc;strokeColor=#d6b656;" edge="1" parent="1" source="_eStgFOM0S1kTOzYDItb-16" target="_eStgFOM0S1kTOzYDItb-14">
          <mxGeometry relative="1" as="geometry" />
        </mxCell>
        <mxCell id="_eStgFOM0S1kTOzYDItb-16" value="" style="verticalLabelPosition=bottom;verticalAlign=top;html=1;shape=mxgraph.basic.flash;fillColor=#fff2cc;strokeColor=#d6b656;" vertex="1" parent="1">
          <mxGeometry x="115.71000000000004" y="842.5" width="20" height="30" as="geometry" />
        </mxCell>
        <mxCell id="_eStgFOM0S1kTOzYDItb-18" value="" style="html=1;whiteSpace=wrap;aspect=fixed;shape=isoRectangle;fillColor=#999999;fontColor=#333333;strokeColor=#666666;" vertex="1" parent="1">
          <mxGeometry x="100.48999999999998" y="625" width="66.67" height="40" as="geometry" />
        </mxCell>
        <mxCell id="_eStgFOM0S1kTOzYDItb-20" style="edgeStyle=orthogonalEdgeStyle;rounded=0;orthogonalLoop=1;jettySize=auto;html=1;entryX=0.5;entryY=0;entryDx=0;entryDy=0;fillColor=#fff2cc;strokeColor=#d6b656;endArrow=none;endFill=0;strokeWidth=3;entryPerimeter=0;" edge="1" parent="1" source="_eStgFOM0S1kTOzYDItb-17" target="_eStgFOM0S1kTOzYDItb-15">
          <mxGeometry relative="1" as="geometry" />
        </mxCell>
        <mxCell id="_eStgFOM0S1kTOzYDItb-17" value="" style="verticalLabelPosition=bottom;verticalAlign=top;html=1;shape=mxgraph.basic.flash;rotation=10;fillColor=#fff2cc;strokeColor=#d6b656;" vertex="1" parent="1">
          <mxGeometry x="122.96000000000004" y="630" width="20" height="30" as="geometry" />
        </mxCell>
        <mxCell id="_eStgFOM0S1kTOzYDItb-22" style="edgeStyle=orthogonalEdgeStyle;rounded=0;orthogonalLoop=1;jettySize=auto;html=1;exitX=1;exitY=0.5;exitDx=0;exitDy=0;entryX=0;entryY=0.5;entryDx=0;entryDy=0;entryPerimeter=0;fillColor=#fff2cc;strokeColor=#d6b656;strokeWidth=3;endArrow=none;endFill=0;" edge="1" parent="1" source="_eStgFOM0S1kTOzYDItb-14" target="_eStgFOM0S1kTOzYDItb-15">
          <mxGeometry relative="1" as="geometry" />
        </mxCell>
        <mxCell id="_eStgFOM0S1kTOzYDItb-23" value="" style="shape=process;whiteSpace=wrap;html=1;backgroundOutline=1;direction=south;fillColor=#CCCCCC;" vertex="1" parent="1">
          <mxGeometry x="273" y="665" width="140.71" height="230" as="geometry" />
        </mxCell>
        <mxCell id="_eStgFOM0S1kTOzYDItb-24" value="" style="verticalLabelPosition=bottom;sketch=0;aspect=fixed;html=1;verticalAlign=top;strokeColor=none;align=center;outlineConnect=0;shape=mxgraph.citrix.chassis;flipV=0;flipH=0;" vertex="1" parent="1">
          <mxGeometry x="364.71" y="810" width="40.71" height="52.55" as="geometry" />
        </mxCell>
        <mxCell id="_eStgFOM0S1kTOzYDItb-25" value="" style="verticalLabelPosition=bottom;sketch=0;aspect=fixed;html=1;verticalAlign=top;strokeColor=none;align=center;outlineConnect=0;shape=mxgraph.citrix.chassis;flipV=0;flipH=0;" vertex="1" parent="1">
          <mxGeometry x="288.5799999999999" y="810" width="40.71" height="52.55" as="geometry" />
        </mxCell>
        <mxCell id="_eStgFOM0S1kTOzYDItb-26" value="" style="verticalLabelPosition=bottom;sketch=0;aspect=fixed;html=1;verticalAlign=top;strokeColor=none;align=center;outlineConnect=0;shape=mxgraph.citrix.chassis;flipV=0;flipH=0;" vertex="1" parent="1">
          <mxGeometry x="288.58" y="753.72" width="40.71" height="52.55" as="geometry" />
        </mxCell>
        <mxCell id="_eStgFOM0S1kTOzYDItb-27" value="" style="verticalLabelPosition=bottom;sketch=0;aspect=fixed;html=1;verticalAlign=top;strokeColor=none;align=center;outlineConnect=0;shape=mxgraph.citrix.chassis;flipV=0;flipH=0;" vertex="1" parent="1">
          <mxGeometry x="364.71" y="753.72" width="40.71" height="52.55" as="geometry" />
        </mxCell>
        <mxCell id="_eStgFOM0S1kTOzYDItb-28" value="" style="verticalLabelPosition=bottom;sketch=0;aspect=fixed;html=1;verticalAlign=top;strokeColor=none;align=center;outlineConnect=0;shape=mxgraph.citrix.chassis;flipV=0;flipH=0;" vertex="1" parent="1">
          <mxGeometry x="364.71" y="690" width="40.71" height="52.55" as="geometry" />
        </mxCell>
        <mxCell id="_eStgFOM0S1kTOzYDItb-29" value="" style="verticalLabelPosition=bottom;sketch=0;aspect=fixed;html=1;verticalAlign=top;strokeColor=none;align=center;outlineConnect=0;shape=mxgraph.citrix.chassis;flipV=0;flipH=0;" vertex="1" parent="1">
          <mxGeometry x="286.05999999999995" y="690" width="40.71" height="52.55" as="geometry" />
        </mxCell>
        <mxCell id="_eStgFOM0S1kTOzYDItb-32" value="" style="shape=ext;double=1;whiteSpace=wrap;html=1;aspect=fixed;fillColor=#666666;" vertex="1" parent="1">
          <mxGeometry x="416.26" y="842.55" width="17.45" height="17.45" as="geometry" />
        </mxCell>
        <mxCell id="_eStgFOM0S1kTOzYDItb-33" value="" style="shape=ext;double=1;whiteSpace=wrap;html=1;aspect=fixed;fillColor=#666666;" vertex="1" parent="1">
          <mxGeometry x="416.26" y="812.55" width="17.45" height="17.45" as="geometry" />
        </mxCell>
        <mxCell id="_eStgFOM0S1kTOzYDItb-34" value="" style="shape=ext;double=1;whiteSpace=wrap;html=1;aspect=fixed;fillColor=#666666;" vertex="1" parent="1">
          <mxGeometry x="416.26" y="782.55" width="17.45" height="17.45" as="geometry" />
        </mxCell>
        <mxCell id="_eStgFOM0S1kTOzYDItb-35" value="" style="shape=ext;double=1;whiteSpace=wrap;html=1;aspect=fixed;fillColor=#666666;" vertex="1" parent="1">
          <mxGeometry x="416.26" y="753.7199999999999" width="17.45" height="17.45" as="geometry" />
        </mxCell>
        <mxCell id="_eStgFOM0S1kTOzYDItb-36" value="" style="shape=ext;double=1;whiteSpace=wrap;html=1;aspect=fixed;fillColor=#666666;" vertex="1" parent="1">
          <mxGeometry x="416.26" y="725.0999999999999" width="17.45" height="17.45" as="geometry" />
        </mxCell>
        <mxCell id="_eStgFOM0S1kTOzYDItb-37" value="" style="shape=ext;double=1;whiteSpace=wrap;html=1;aspect=fixed;fillColor=#666666;" vertex="1" parent="1">
          <mxGeometry x="416.26" y="695.0999999999999" width="17.45" height="17.45" as="geometry" />
        </mxCell>
        <mxCell id="_eStgFOM0S1kTOzYDItb-39" value="" style="html=1;shadow=0;dashed=0;align=center;verticalAlign=middle;shape=mxgraph.arrows2.arrow;dy=0.6;dx=40;direction=east;notch=0;fillColor=#e51400;fontColor=#ffffff;strokeColor=#B20000;" vertex="1" parent="1">
          <mxGeometry x="453" y="842.5" width="15" height="13.72" as="geometry" />
        </mxCell>
        <mxCell id="_eStgFOM0S1kTOzYDItb-43" value="" style="html=1;shadow=0;dashed=0;align=center;verticalAlign=middle;shape=mxgraph.arrows2.arrow;dy=0.6;dx=40;direction=east;notch=0;fillColor=#e51400;fontColor=#ffffff;strokeColor=#B20000;" vertex="1" parent="1">
          <mxGeometry x="453.71" y="812.55" width="15" height="13.72" as="geometry" />
        </mxCell>
        <mxCell id="_eStgFOM0S1kTOzYDItb-45" value="" style="html=1;shadow=0;dashed=0;align=center;verticalAlign=middle;shape=mxgraph.arrows2.arrow;dy=0.6;dx=40;direction=east;notch=0;fillColor=#e51400;fontColor=#ffffff;strokeColor=#B20000;" vertex="1" parent="1">
          <mxGeometry x="453.71" y="782.55" width="15" height="13.72" as="geometry" />
        </mxCell>
        <mxCell id="_eStgFOM0S1kTOzYDItb-46" value="" style="html=1;shadow=0;dashed=0;align=center;verticalAlign=middle;shape=mxgraph.arrows2.arrow;dy=0.6;dx=40;direction=east;notch=0;fillColor=#e51400;fontColor=#ffffff;strokeColor=#B20000;" vertex="1" parent="1">
          <mxGeometry x="453.71" y="746.28" width="15" height="13.72" as="geometry" />
        </mxCell>
        <mxCell id="_eStgFOM0S1kTOzYDItb-47" value="" style="html=1;shadow=0;dashed=0;align=center;verticalAlign=middle;shape=mxgraph.arrows2.arrow;dy=0.6;dx=40;direction=east;notch=0;fillColor=#e51400;fontColor=#ffffff;strokeColor=#B20000;" vertex="1" parent="1">
          <mxGeometry x="450.71" y="709.41" width="15" height="13.72" as="geometry" />
        </mxCell>
        <mxCell id="_eStgFOM0S1kTOzYDItb-48" value="" style="shape=singleArrow;direction=east;whiteSpace=wrap;html=1;rotation=0;flipV=0;flipH=1;fillColor=#b1ddf0;strokeColor=#10739e;" vertex="1" parent="1">
          <mxGeometry x="393" y="743.01" width="16" height="10.71" as="geometry" />
        </mxCell>
        <mxCell id="_eStgFOM0S1kTOzYDItb-49" value="" style="shape=singleArrow;direction=east;whiteSpace=wrap;html=1;rotation=0;flipV=0;flipH=1;fillColor=#b1ddf0;strokeColor=#10739e;" vertex="1" parent="1">
          <mxGeometry x="393" y="806.27" width="16" height="10.71" as="geometry" />
        </mxCell>
        <mxCell id="_eStgFOM0S1kTOzYDItb-50" value="" style="shape=singleArrow;direction=east;whiteSpace=wrap;html=1;rotation=0;flipV=0;flipH=1;fillColor=#b1ddf0;strokeColor=#10739e;" vertex="1" parent="1">
          <mxGeometry x="393" y="861.79" width="16" height="10.71" as="geometry" />
        </mxCell>
        <mxCell id="_eStgFOM0S1kTOzYDItb-51" value="" style="shape=singleArrow;direction=east;whiteSpace=wrap;html=1;rotation=0;flipV=0;flipH=1;fillColor=#b1ddf0;strokeColor=#10739e;" vertex="1" parent="1">
          <mxGeometry x="393" y="684.39" width="16" height="10.71" as="geometry" />
        </mxCell>
        <mxCell id="_eStgFOM0S1kTOzYDItb-52" value="&lt;div style=&quot;font-size: 15px;&quot;&gt;&lt;div&gt;Um datacenter precisa de muita energia para funcionar,&amp;nbsp;&lt;/div&gt;&lt;div&gt;já que abriga diversos servidores e equipamentos que trabalham 24/7.&amp;nbsp;&lt;/div&gt;&lt;div&gt;O processo começa com a entrada de energia da rede elétrica principal.&amp;nbsp;&lt;/div&gt;&lt;div&gt;Porém, como quedas de energia podem causar grandes problemas,&amp;nbsp;&lt;/div&gt;&lt;div&gt;há sistemas de backup como geradores e baterias (UPS) para garantir que tudo continue funcionando.&lt;/div&gt;&lt;div&gt;&lt;br&gt;&lt;/div&gt;&lt;/div&gt;" style="text;align=left;verticalAlign=middle;resizable=0;points=[];autosize=1;strokeColor=none;fillColor=none;fontFamily=Times New Roman;html=1;fontStyle=2;spacingTop=1;spacing=2;fontSize=15;" vertex="1" parent="1">
          <mxGeometry x="560" y="615" width="630" height="120" as="geometry" />
        </mxCell>
        <mxCell id="_eStgFOM0S1kTOzYDItb-53" value="" style="rounded=1;whiteSpace=wrap;html=1;fillColor=#333333;strokeColor=#666666;gradientColor=#333333;gradientDirection=radial;" vertex="1" parent="1">
          <mxGeometry x="70.30000000000001" y="1100" width="470" height="410" as="geometry" />
        </mxCell>
        <mxCell id="_eStgFOM0S1kTOzYDItb-54" value="" style="rounded=1;whiteSpace=wrap;html=1;fillColor=#333333;strokeColor=#666666;gradientColor=#333333;gradientDirection=radial;" vertex="1" parent="1">
          <mxGeometry x="73.93" y="1660" width="470" height="410" as="geometry" />
        </mxCell>
        <mxCell id="_eStgFOM0S1kTOzYDItb-55" value="Sistema de segurança&amp;nbsp;&lt;span style=&quot;background-color: initial;&quot;&gt;de um datacenter&lt;/span&gt;" style="text;html=1;align=center;verticalAlign=middle;resizable=0;points=[];autosize=1;strokeColor=none;fillColor=none;fontFamily=Times New Roman;fontStyle=2;fontSize=20;" vertex="1" parent="1">
          <mxGeometry x="136.41000000000003" y="1060" width="340" height="40" as="geometry" />
        </mxCell>
        <mxCell id="_eStgFOM0S1kTOzYDItb-56" value="Sistema de rede&amp;nbsp;&lt;span style=&quot;background-color: initial;&quot;&gt;de um datacenter&lt;/span&gt;" style="text;html=1;align=center;verticalAlign=middle;resizable=0;points=[];autosize=1;strokeColor=none;fillColor=none;fontFamily=Times New Roman;fontStyle=2;fontSize=20;" vertex="1" parent="1">
          <mxGeometry x="161.41000000000003" y="1620" width="290" height="40" as="geometry" />
        </mxCell>
      </root>
    </mxGraphModel>
  </diagram>
</mxfile>
